<?xml version="1.0" encoding="utf-8"?>
<!-- Generator: Adobe Illustrator 26.0.2, SVG Export Plug-In . SVG Version: 6.00 Build 0)  -->
<svg version="1.1" id="Layer_1" xmlns="http://www.w3.org/2000/svg" xmlns:xlink="http://www.w3.org/1999/xlink" x="0px" y="0px"
	 viewBox="0 0 36 36" style="enable-background:new 0 0 36 36;" xml:space="preserve">
<style type="text/css">
	.st0{fill:#231F20;}
</style>
<g>
	<path class="st0" d="M32.5,16.2c-0.2-0.3-0.3-0.4-3.1-0.8c-0.3-1.2-0.8-2.3-1.4-3.3c1.5-1.9,1.6-2,1.7-2.1c0.1-0.3,0.1-0.7-0.1-1.1
		c-0.4-0.8-1.7-2.1-2.8-2.3c-0.2-0.1-0.4-0.1-1.1,0.4C25.7,7.1,24,8.3,24,8.3c-0.1-0.1-2.6-1.3-3.3-1.4c-0.3-2.6-0.3-2.7-0.4-2.8
		c-0.1-0.3-0.4-0.6-0.8-0.7C18.7,3,16.8,3,15.9,3.6c-0.3,0.2-0.4,0.3-0.8,3.2c-1.2,0.3-2.3,0.8-3.4,1.5C9.4,6.5,9.3,6.5,9,6.5
		C8.8,6.4,8,6.3,6,9.1C5.8,9.4,5.8,9.8,6,10c0,0,0.8,0.9,1.9,2.3c-0.6,1-1,2.1-1.2,3.2c-2.8,0.4-3,0.5-3.1,0.6
		c-0.3,0.1-0.8,0.6-0.3,4c0.1,0.4,0.3,0.6,0.7,0.6c0,0,1.2,0.1,2.9,0.3c0.3,1.2,0.7,2.3,1.4,3.3c-1.7,2.2-1.7,2.4-1.7,2.6
		c-0.1,0.3-0.2,1,2.6,3.1c0.3,0.2,0.7,0.2,0.9,0c0,0,0.9-0.7,2.2-1.8c1,0.7,2.2,1.1,3.4,1.3c0.4,2.6,0.4,2.8,0.6,3
		c0.1,0.2,0.4,0.5,1.7,0.5c0.6,0,1.3-0.1,2.3-0.2c0.4-0.1,0.6-0.3,0.6-0.7c0,0,0.1-1.1,0.2-2.7c0.6-0.1,2.9-1.1,3.1-1.2
		c0,0,1.8,1.6,2.3,1.8c0.3,0.1,0.7,0.1,1.1-0.1c0.8-0.4,2.1-1.7,2.3-2.8c0.1-0.4,0.1-0.5-1.5-2.6c0.7-1,1.1-2.2,1.4-3.4
		c2.4-0.2,2.5-0.3,2.6-0.3c0.3-0.1,0.6-0.4,0.7-0.8C33.1,19,33.1,17.2,32.5,16.2z M31.4,19c-0.3,0.1-1,0.1-2.6,0.3
		c-0.3,0-0.6,0.3-0.7,0.6c-0.3,1.4-0.8,2.7-1.5,3.9c-0.1,0.3-0.1,0.6,0,0.9c1,1.3,1.4,1.8,1.5,2c-0.2,0.6-1,1.3-1.4,1.5
		c-0.1-0.1-2-1.5-2-1.7c-0.2-0.2-0.6-0.2-0.9-0.1c-0.5,0.3-3.2,1.4-3.6,1.5c-0.3,0.1-0.5,0.6-0.6,0.9c-0.1,1.2-0.2,2.1-0.2,2.6
		c-0.9,0.1-1.7,0.1-2,0.1c-0.1-0.4-0.2-1.1-0.4-2.8c-0.1-0.3-0.3-0.6-0.6-0.6c-1.4-0.2-2.6-0.7-3.8-1.5c-0.3-0.1-0.7-0.1-0.9,0.1
		c-0.9,0.7-1.7,1.4-2.1,1.7C8.8,28,8.2,27.5,8,27.2c0.2-0.3,0.7-0.9,1.7-2.3c0.2-0.2,0.2-0.6,0-0.9c-0.8-1.1-1.3-2.3-1.6-3.7
		C8,20,7.7,19.7,7.4,19.7c-1.2-0.1-2.3-0.2-2.8-0.2c-0.1-0.9-0.1-1.7-0.1-2c0.4-0.1,1.2-0.2,2.9-0.4C7.7,16.9,8,16.7,8,16.4
		c0.2-1.3,0.7-2.6,1.5-3.6c0.1-0.3,0.1-0.6-0.1-0.9c-0.8-0.9-1.5-1.7-1.9-2.3C8,8.9,8.5,8.4,8.8,8.1c0.3,0.2,0.9,0.7,2.4,1.7
		c0.2,0.2,0.6,0.2,0.9,0c1.2-0.8,2.4-1.4,3.8-1.7c0.3-0.1,0.5-0.3,0.6-0.7c0.2-1.8,0.4-2.5,0.4-2.8c0.6-0.2,1.6-0.2,2-0.1
		C19,5,19.1,5.7,19.3,7.5c0,0.3,0.3,0.6,0.6,0.7c0.9,0.1,3.6,1.5,3.7,1.5c0.3,0.1,0.6,0.1,0.9-0.1c0.1-0.1,2-1.5,2.2-1.7
		c0.6,0.2,1.3,1,1.5,1.4c-0.2,0.3-0.7,0.9-1.7,2.1c-0.2,0.2-0.2,0.6,0,0.9c0.8,1.2,1.3,2.4,1.6,3.7c0.1,0.3,0.3,0.5,0.7,0.6
		c1.7,0.2,2.3,0.3,2.6,0.4C31.5,17.5,31.5,18.6,31.4,19z"/>
	<path class="st0" d="M23,14.1c-0.1-0.1-0.2-0.3-0.4-0.4c-1.2-1.2-2.8-2-4.7-2c-3.6,0-6.5,2.9-6.5,6.5s2.9,6.5,6.5,6.5
		c1.8,0,3.4-0.7,4.7-2c0.1-0.1,0.3-0.2,0.4-0.4c0.1-0.1,0.2-0.3,0.4-0.5c0.7-1,1.2-2.3,1.2-3.6c0-1.4-0.4-2.6-1.2-3.6
		C23.3,14.5,23.2,14.3,23,14.1z M23.1,18.9c-0.1,0.4-0.2,0.9-0.4,1.3c-0.8,1.8-2.6,3.1-4.7,3.1c-2.8,0-5-2.3-5-5s2.3-5,5-5
		c2,0,3.9,1.2,4.7,3.1c0.1,0.4,0.3,0.9,0.4,1.3c0,0.2,0.1,0.4,0.1,0.7S23.2,18.7,23.1,18.9z"/>
</g>
</svg>
