<?xml version="1.0" encoding="utf-8"?>
<!-- Generator: Adobe Illustrator 26.0.2, SVG Export Plug-In . SVG Version: 6.00 Build 0)  -->
<svg version="1.1" id="Layer_1" xmlns="http://www.w3.org/2000/svg" xmlns:xlink="http://www.w3.org/1999/xlink" x="0px" y="0px"
	 viewBox="0 0 36 36" style="enable-background:new 0 0 36 36;" xml:space="preserve">
<style type="text/css">
	.st0{fill:#231F20;}
</style>
<path class="st0" d="M26.7,7.8l-4.8,1.3l-0.4-1.4c-0.4-1.6-2.1-2.6-3.7-2.1l-6.2,1.7c-1.6,0.4-2.6,2.1-2.1,3.7l0.4,1.4l-4.8,1.3
	C3.5,14,2.5,15.7,3,17.3l3.6,13.3c0.4,1.6,2.1,2.6,3.7,2.1l21.6-5.8c1.6-0.4,2.6-2.1,2.1-3.7v0L30.4,9.9C29.9,8.3,28.3,7.4,26.7,7.8
	z M11,10.5c-0.2-0.8,0.3-1.6,1-1.8L18.2,7c0.8-0.2,1.6,0.3,1.8,1v0l0.4,1.4l-9,2.4L11,10.5z M31.4,25.4L9.8,31.2
	c-0.8,0.2-1.6-0.3-1.8-1l-1.6-6c0.6,0.2,1.2,0.2,1.7,0.1l3-0.8l0.4,1.4c0.1,0.4,0.5,0.6,0.9,0.5s0.6-0.5,0.5-0.9L12.6,23l12.2-3.3
	l0.4,1.4c0.1,0.4,0.5,0.6,0.9,0.5s0.6-0.5,0.5-0.9l-0.4-1.4l3.1-0.8c0.6-0.2,1.1-0.5,1.5-0.9l1.6,6C32.7,24.4,32.2,25.2,31.4,25.4
	C31.4,25.4,31.4,25.4,31.4,25.4z M30.1,14.9c0.3,0.9-0.2,1.9-1.1,2.1l-3.1,0.8l-0.3-1c-0.1-0.4-0.5-0.6-0.9-0.5s-0.6,0.5-0.5,0.9
	l0.3,1l-12.2,3.3l-0.3-1c-0.1-0.4-0.5-0.6-0.9-0.5c-0.4,0.1-0.6,0.5-0.5,0.9l0.3,1l-3,0.8c-0.9,0.2-1.9-0.3-2.1-1.3c0,0,0,0,0,0
	l-1.2-4.6c-0.2-0.8,0.3-1.6,1-1.8l21.6-5.8c0.8-0.2,1.6,0.3,1.8,1v0C28.9,10.3,30.1,14.9,30.1,14.9z"/>
</svg>
