<svg id="Layer_1" data-name="Layer 1" xmlns="http://www.w3.org/2000/svg" viewBox="0 0 36 36"><defs><style>.cls-1{fill:#231f20;}</style></defs><path class="cls-1" d="M27.05,5.75,24.59,8.21H5.91a3.26,3.26,0,0,0-3.26,3.26V24.65a3.26,3.26,0,0,0,3.26,3.26H15.6v1.91H10.35a.75.75,0,0,0,0,1.5h12a.75.75,0,0,0,0-1.5H17.1V27.91h8.68A3.26,3.26,0,0,0,29,24.65V12.46L31.4,10.1a3.1,3.1,0,0,0,0-4.35A3.14,3.14,0,0,0,27.05,5.75ZM21.49,17.89l-2.23-2.23,7.51-7.51L29,10.38Zm-3.27-1.15,2.19,2.19-3,.79Zm9.32,7.91a1.76,1.76,0,0,1-1.76,1.76H5.91a1.76,1.76,0,0,1-1.76-1.76V11.47A1.76,1.76,0,0,1,5.91,9.71H23.09l-6,6a1,1,0,0,0-.25.45l-1.05,4A1,1,0,0,0,17,21.38l4-1.05a.94.94,0,0,0,.45-.26L27.54,14ZM30.34,9l-.28.28L27.83,7.08l.28-.27A1.58,1.58,0,1,1,30.34,9Z"/></svg>