<svg xmlns="http://www.w3.org/2000/svg" viewBox="0 0 36 36"><title>WA-article</title><path d="M28.09,2.41,13.34,0l-.19,0a4.1,4.1,0,0,0-4,3L7.88,2.83H7.69A3.65,3.65,0,0,0,4,6.41l.21,24.32a3.67,3.67,0,0,0,3.48,2.45h0l1.47-.11A4.12,4.12,0,0,0,13.15,36h0L28,34.8A3.83,3.83,0,0,0,32,30.71V6.49C32,4.22,30.6,2.77,28.09,2.41ZM9,9.8V30.86L7.65,31a1.37,1.37,0,0,1-1.33-1.38V6.41A1.38,1.38,0,0,1,7.61,5L9,5.25ZM29.68,30.71c0,1.88-1.34,1.88-1.79,1.88l-14.78,1.2a1.85,1.85,0,0,1-1.75-1.89V4.1a1.86,1.86,0,0,1,1.7-1.89L27.72,4.59c1.63.24,2,.93,2,1.9Z"/><path d="M16.23,13A1.72,1.72,0,0,0,18,11.31V7.12a1.77,1.77,0,0,0-3.51,0v4.19A1.72,1.72,0,0,0,16.23,13Z"/><path d="M26.81,17.17l-11.39-.84A.84.84,0,1,0,15.28,18l11.39.83c.36,0,.56,0,.95-.77A.85.85,0,0,0,26.81,17.17Z"/><path d="M15.35,23.44H26.74c.54,0,1.56-1.22,0-1.67H15.35C14.82,21.72,13.79,23,15.35,23.44Z"/><path d="M26.67,26.37l-11.39.84a.84.84,0,0,0-.8.9c.06.25.14.56.94.76L26.81,28a.84.84,0,1,0-.14-1.67Z"/></svg>