<?xml version="1.0" encoding="utf-8"?>
<!-- Generator: Adobe Illustrator 25.2.3, SVG Export Plug-In . SVG Version: 6.00 Build 0)  -->
<svg version="1.1" id="Layer_1" xmlns="http://www.w3.org/2000/svg" xmlns:xlink="http://www.w3.org/1999/xlink" x="0px" y="0px"
	 viewBox="0 0 36 36" style="enable-background:new 0 0 36 36;" xml:space="preserve">
<g>
	<path d="M24.4,22.7L24.4,22.7L24.4,22.7z"/>
</g>
<path d="M12,11.1c0.1,0,0.1,0,0.2,0c0,0,2.1,0,2.1,0s1,0.3,1,1.2c-0.1,1,0.9,2.4,0.1,3.2c-0.7,0.6-1.8,1.4-1.1,2.5
	c1.1,1.6,2.5,3.3,4.4,3.9c0.7,0,1.2-0.7,1.6-1.2c1-0.9,2.4,0,3.6,0c0.7,0.1,1,0.3,1,1c-0.2,1,0.6,3.4-1,3.2c-6.9,0-12.7-6-12.8-12.9
	C11,11.4,11.4,11.1,12,11.1 M12,10.1c-1.3,0.1-2,0.6-1.9,2c0.1,1.1,0.2,2.3,0.5,3.5c1.6,6,7,10.2,13.2,10.3c1.3,0,2-0.7,2-2
	c-0.1-1.6,0.5-4.1-1.8-4.2c-1.4,0-3.3-1-4.4,0.3c-0.3,0.2-0.6,0.8-1,0.8c-1.4-0.9-2.6-2-3.5-3.4c-0.1-0.1-0.1-0.2,0-0.3
	c0.9-0.8,1.9-1.6,1.4-3c-0.2-0.7-0.3-1.2-0.3-1.8c0-1.2-1.1-1.9-1.7-2.1C14.2,10,12.5,10.1,12,10.1L12,10.1z"/>
</svg>
