<?xml version="1.0" encoding="utf-8"?>
<!-- Generator: Adobe Illustrator 25.2.3, SVG Export Plug-In . SVG Version: 6.00 Build 0)  -->
<svg version="1.1" id="Layer_1" xmlns="http://www.w3.org/2000/svg" xmlns:xlink="http://www.w3.org/1999/xlink" x="0px" y="0px"
	 viewBox="0 0 36 36" style="enable-background:new 0 0 36 36;" xml:space="preserve">
<path d="M24.7,11.7H11.4c-1,0-1.9,0.9-1.9,1.9v8.7c0,1,0.9,1.9,1.9,1.9h13.3c1,0,1.9-0.9,1.9-1.9v-8.7c0-0.5-0.1-1-0.5-1.3
	C25.7,11.9,25.2,11.7,24.7,11.7z M10.6,15.1l4.7,3l-4.7,4.1V15.1z M11.3,23l5-4.4l0.1,0c0.5,0.3,1.1,0.4,1.6,0.4
	c0.5,0,1-0.1,1.6-0.5l0.1,0l5.1,4.4H11.3z M25.4,22.2L25.2,22l-4.5-3.9l4.7-3V22.2z M25.4,13.7L25.4,13.7l-5.5,3.6L19,17.8
	c-0.2,0.1-0.4,0.2-0.5,0.2c-0.1,0-0.3,0.1-0.4,0.1c-0.1,0-0.3,0-0.4-0.1c-0.2,0-0.4-0.1-0.5-0.2l-0.8-0.5l-5.5-3.5l0,0
	c-0.1-0.2-0.1-0.4,0-0.5c0.1-0.2,0.3-0.3,0.6-0.3h13.3C25.1,12.9,25.4,13.2,25.4,13.7L25.4,13.7z"/>
</svg>
