<svg xmlns="http://www.w3.org/2000/svg" viewBox="0 0 36 36"><title>CD-phone</title><path d="M25.79,20.94l0,0-1.84-1.09a2,2,0,0,0-1.67-.27,2.44,2.44,0,0,0-1.57,1.49h0a.79.79,0,0,1-1,.56c-1.89-.23-5.1-3.41-5.3-5.23a.74.74,0,0,1,.61-.92h0a2.17,2.17,0,0,0,1.38-1.29A1.9,1.9,0,0,0,16,12.44l-1.15-1.72,0,0A2.52,2.52,0,0,0,13,9.57,4,4,0,0,0,10.1,11c-2.53,2.37-.37,8,3.26,11.39,2.52,2.37,6.2,4.1,9.07,4.1a4.52,4.52,0,0,0,3-.94c.05,0,.1-.05.12-.09,1.06-1,1.55-1.89,1.47-2.72A2.33,2.33,0,0,0,25.79,20.94Zm-.91,3.73s-.07,0-.09.07c-1.94,1.82-7.17.32-10.77-3.06s-5.15-8.27-3.21-10.09a3.18,3.18,0,0,1,2.13-1.13,1.69,1.69,0,0,1,1.13.74l1.15,1.73,0,0a1,1,0,0,1,.22.94,1.14,1.14,0,0,1-.79.69h0a1.68,1.68,0,0,0-1.25,1.89c.25,2.26,3.8,5.76,6.16,6.06a1.67,1.67,0,0,0,.32,0,1.74,1.74,0,0,0,1.71-1.15h0a1.59,1.59,0,0,1,.93-.94.94.94,0,0,1,.81.16l0,0,1.84,1.08A1.47,1.47,0,0,1,26,22.78C26.06,23.26,25.67,23.91,24.88,24.67Z"/></svg>