<?xml version="1.0" encoding="utf-8"?>
<!-- Generator: Adobe Illustrator 25.2.3, SVG Export Plug-In . SVG Version: 6.00 Build 0)  -->
<svg version="1.1" id="Layer_1" xmlns="http://www.w3.org/2000/svg" xmlns:xlink="http://www.w3.org/1999/xlink" x="0px" y="0px"
	 viewBox="0 0 36 36" style="enable-background:new 0 0 36 36;" xml:space="preserve">
<path d="M26.8,16.8l-8.4-6.7c-0.2-0.2-0.5-0.2-0.7,0l-8.4,6.7C9,17,8.9,17.4,9.1,17.7c0.1,0.2,0.5,0.3,0.7,0.2c0,0,0,0,0.1,0
	l1.1-0.9v8.4c0,0.3,0.2,0.6,0.6,0.6h4.5c0.3,0,0.6-0.3,0.6-0.6c0,0,0,0,0,0v-5.8h2.7v5.8c0,0.3,0.2,0.6,0.6,0.6c0,0,0,0,0,0h4.5
	c0.3,0,0.6-0.3,0.6-0.6v-8.4l1.1,0.9c0.1,0.1,0.2,0.1,0.3,0.1c0.2,0,0.4-0.1,0.5-0.2C27.1,17.4,27,17,26.8,16.8z M23.9,24.8h-3.4V19
	c0-0.3-0.2-0.6-0.6-0.6c0,0,0,0,0,0h-3.8c-0.3,0-0.6,0.3-0.6,0.6c0,0,0,0,0,0v5.8h-3.4v-8.7l5.9-4.7l5.9,4.7
	C23.9,16.1,23.9,24.8,23.9,24.8z"/>
</svg>
