<?xml version="1.0" encoding="utf-8"?>
<!-- Generator: Adobe Illustrator 25.2.3, SVG Export Plug-In . SVG Version: 6.00 Build 0)  -->
<svg version="1.1" id="Layer_1" xmlns="http://www.w3.org/2000/svg" xmlns:xlink="http://www.w3.org/1999/xlink" x="0px" y="0px"
	 viewBox="0 0 40 80" style="enable-background:new 0 0 40 80;" xml:space="preserve">
<path d="M32.9,58.1h-0.5c3.3-4.7,2.9-10.6,2.9-16.5c0-2.6-3.1-4.4-5.4-3c-0.9-2-3.4-2.6-5.1-1.5c-0.9-1.7-3-2.4-4.7-1.6v-6.1
	c7.9-3.6,5.2-16.1-3.6-16c-4.6,0-8.4,3.8-8.4,8.4c0,3.4,2,6.3,4.9,7.6v14.5c-1.3-2.1-3-5.5-6.1-4c-6,2.6,4.3,15.2,6.9,18.1v0.1
	c-0.6-0.4-1.6,0.1-1.5,0.9c0,0,0,6.6,0,6.6c0,0.5,0.4,1,1,1s1-0.4,1-1V60h17.6v5.6c0,0.5,0.4,1,0.9,1s1-0.4,1-0.9l0,0v-6.6
	C33.9,58.5,33.4,58.1,32.9,58.1z M10,21.7c0-3.5,2.9-6.4,6.4-6.4c6.1-0.2,8.7,8.5,3.6,11.7c0.1-2.9,0.6-7.4-3.6-7.5
	c-4.2,0.1-3.7,4.6-3.6,7.5C11.1,25.9,10,24,10,21.7z M29.8,58H16.6c-3.8-3-8.1-10.3-9.7-14.3c-0.8-2.1,1.8-2.9,2.8-1.2
	c0,0,3.2,5.5,3.2,5.5c0.4,0.7,1.7,0.4,1.8-0.5c0,0,0-17.5,0-17.5c0-1.4,0-5.4,0-6.9c0-2.1,3.2-2.1,3.2,0c0,0,0,4.9,0,4.9
	c0,0.5,0,15.8,0,16.9c0,0.5,0.4,1,1,1s1-0.4,1-1v-6.4c0-2.1,3.2-2.1,3.2,0c0,0,0,7.7,0,7.7c0.2,1.1,1.8,1,1.9,0c0,0,0-6.2,0-6.2
	c-0.1-2.1,3.3-2.1,3.2,0c0,0,0,7.9,0,7.9c0.1,0.5,0.6,0.9,1.1,0.8c1.7-0.6,0.4-5.5,0.8-7.2c-0.1-2.1,3.3-2.1,3.2,0
	C33.3,47,33.6,53.7,29.8,58z"/>
</svg>
