<?xml version="1.0" encoding="utf-8"?>
<!-- Generator: Adobe Illustrator 25.2.3, SVG Export Plug-In . SVG Version: 6.00 Build 0)  -->
<svg version="1.1" id="Layer_1" xmlns="http://www.w3.org/2000/svg" xmlns:xlink="http://www.w3.org/1999/xlink" x="0px" y="0px"
	 viewBox="0 0 40 80" style="enable-background:new 0 0 40 80;" xml:space="preserve">
<path d="M31.3,15.8H13.2c-3.7,0-6.2,2.4-6.1,6.4v34.1c-4.6,0.2-3.9-0.5-4.7,1c0,5.4,4.1,6.8,6.3,6.9h18.1c3.7,0,6.2-2.4,6.1-6.4v-34
	c4.5-0.2,4.1,0.5,4.7-1.1C37.7,17.3,33.5,15.8,31.3,15.8z M8.6,62.3c-0.4,0-3.7-0.3-4.2-4.1c2.8,0,10.5,0,16.3,0.1
	c0.1,1.5,0.7,2.9,1.7,3.9L8.6,62.3z M26.9,62.3c-2.3,0-4.1-1.9-4.1-4.3c0-0.1,0.1-1.6-1-1.6c-5.9,0-10.1-0.1-12.8-0.1V51l0,0
	c0.9-0.3,5.6,0.8,5.4-1c0.2-1.8-4.5-0.7-5.4-1l0,0v-3l0,0h5.9c0.6,0,1-0.4,1-1c0.4-1.8-6.1-0.7-6.9-1l0,0v-3l0,0h8c0.6,0,1-0.4,1-1
	s-0.4-1-1-1H9l0,0v-3l0,0h5.9c0.6,0,1-0.4,1-1c0.4-1.8-6.1-0.7-6.9-1l0,0v-3l0,0c0.9-0.3,5.6,0.8,5.4-1c0.2-1.8-4.5-0.7-5.4-1l0,0
	v-7c-0.1-5.6,8.3-5.6,8.2,0c0,0.1-0.1,1.6,1,1.6c5.9,0,10.1,0.1,12.8,0.1V29c-0.9,0.3-5.4-0.8-5.2,1c-0.2,1.8,4.3,0.7,5.2,1v3
	c-0.9,0.3-7-0.8-6.7,1c-0.3,1.8,5.9,0.7,6.7,1v3h-7.8c-0.6,0-1,0.4-1,1s0.4,1,1,1H31v3c-0.9,0.3-7-0.8-6.7,1c-0.3,1.8,5.9,0.7,6.7,1
	v3c-0.9,0.3-5.4-0.8-5.2,1c-0.2,1.8,4.3,0.7,5.2,1C30.8,54.4,32.4,62.3,26.9,62.3z M19.4,21.7c-0.1-1.5-0.7-2.9-1.7-3.9l13.8-0.1
	c0.4,0,3.7,0.3,4.2,4.1C32.9,21.8,25.2,21.8,19.4,21.7z"/>
</svg>
