<?xml version="1.0" encoding="utf-8"?>
<!-- Generator: Adobe Illustrator 23.1.0, SVG Export Plug-In . SVG Version: 6.00 Build 0)  -->
<svg version="1.1" id="Layer_1" xmlns="http://www.w3.org/2000/svg" xmlns:xlink="http://www.w3.org/1999/xlink" x="0px" y="0px"
	 viewBox="0 0 40 80" style="enable-background:new 0 0 40 80;" xml:space="preserve">
<style type="text/css">
	.st0{fill:#010101;}
</style>
<title>Expertise-Typography</title>
<path class="st0" d="M30.3,61.8c0-0.1-0.1-0.1-0.1-0.2c1.4-0.8,2.2-2.5,1.8-4.1l-5-29.1c0-0.2,0.1-0.3,0.1-0.5c0,0,0,0,0,0l0-5.1
	c0-1.9-1.6-3.4-3.5-3.4c0,0,0,0-0.1,0H23v-5c0-1.7-1.3-3-3-3s-3,1.3-3,3v5h-0.6c-0.9,0-1.8,0.4-2.5,1c-0.7,0.7-1,1.5-1,2.5v5
	c0,0.3,0.1,0.7,0.2,1L8.3,57.5c-0.5,1.7,0.3,3.4,1.7,4.2c0,0.1-0.1,0.1-0.1,0.2l-1.2,5.6c-0.1,0.5,0.2,1.1,0.8,1.2
	c0.1,0,0.1,0,0.2,0c0.5,0,0.9-0.3,1-0.8l1.2-5.6c0-0.1,0-0.1,0-0.2c1.6-0.2,3-1.4,3.2-3.1l5.1-22.5l5,22.3c0.2,1.7,1.6,3,3.2,3.2
	c0,0.1,0,0.1,0,0.2l1.2,5.6c0.1,0.5,0.5,0.8,1,0.8c0.1,0,0.1,0,0.2,0c0.5-0.1,0.9-0.6,0.8-1.2L30.3,61.8z M26,27.9L26,27.9L25.1,28
	l0-0.1H26z M19,14.4c0-0.6,0.4-1,1-1c0.6,0,1,0.4,1,1v5h-2V14.4z M15,22.9c0-0.4,0.2-0.8,0.4-1c0.3-0.3,0.6-0.4,1.1-0.4h7
	c0,0,0,0,0,0c0.8,0,1.5,0.6,1.5,1.5v5h0l-5.1,3.3l-5-3.3V22.9z M13.1,58.6c-0.1,0.9-0.9,1.5-1.8,1.5c-0.9-0.3-1.3-1.2-1.1-2.2
	L15,30.4l3.9,2.6L13.1,58.6z M27.1,58.5l-5.8-25.7l3.9-2.5L30,57.9c0.2,0.9-0.3,1.8-1.1,2.1C28,60.1,27.2,59.4,27.1,58.5z"/>
</svg>
