<?xml version="1.0" encoding="utf-8"?>
<!-- Generator: Adobe Illustrator 23.1.0, SVG Export Plug-In . SVG Version: 6.00 Build 0)  -->
<svg version="1.1" id="Layer_1" xmlns="http://www.w3.org/2000/svg" xmlns:xlink="http://www.w3.org/1999/xlink" x="0px" y="0px"
	 viewBox="0 0 40 80" style="enable-background:new 0 0 40 80;" xml:space="preserve">
<style type="text/css">
	.st0{fill:#010101;}
</style>
<title>Expertise-Wireframe</title>
<path class="st0" d="M33.8,53.2l0-6.1c0-0.1,0.1-2.6-1.5-4.3c-1-1-2.3-1.5-4-1.5l0,0v-3.1h1.4c2.3,0,4.1-1.8,4.1-4.1V18.9
	c1.6-0.5,2.8-2,2.8-3.8c0-2.2-1.8-4-4-4s-4,1.8-4,4c0,1.9,1.4,3.6,3.2,3.9v15c0,1.2-0.9,2.1-2.1,2.1h-1.4v-2.3
	c0-1.5-1.2-2.7-2.7-2.7h-5v-2.9c0-1.8-0.5-3.2-1.5-4.2c-1.5-1.5-3.7-1.3-3.7-1.3h-4c-0.4-1.7-2-3-3.9-3c-2.2,0-4,1.8-4,4s1.8,4,4,4
	c1.9,0,3.4-1.3,3.9-3l4.1,0c0,0,1.4-0.1,2.3,0.8c0.6,0.6,0.9,1.5,0.9,2.7v2.9h-5.3c-1.5,0-2.7,1.2-2.7,2.7v5l-0.3,0
	c-5.1,0-5.8,2.7-5.9,5.7v7.3c0,2,0.6,3.6,1.7,4.6c1.7,1.6,4,1.4,5.1,1.3c0.1,0,0.2,0,0.3,0l9.7-0.1c1.1,0,2.2,0.4,2.8,1.1
	c0.5,0.5,0.8,1.2,0.8,2l0,0.2c-0.1,0.9-0.5,1.6-1.1,2.2c-0.7,0.6-1.5,0.8-2.4,0.8h-8c-0.2-2-1.9-3.5-4-3.5c-2.2,0-4,1.8-4,4
	s1.8,4,4,4c1.7,0,3.1-1,3.7-2.5l8.2,0c0.1,0,0.3,0,0.4,0c1.3,0,2.4-0.4,3.4-1.3c1.1-0.9,1.7-2.2,1.8-3.6c0-0.1,0-0.2,0-0.3
	c0-1.3-0.4-2.6-1.3-3.5c-1-1.1-2.6-1.7-4.3-1.7l-9.7,0.1c-0.1,0-0.2,0-0.4,0c-0.8,0.1-2.5,0.2-3.6-0.8c-0.7-0.6-1-1.7-1-3.1l0-7.2
	c0.1-2.5,0.5-3.7,3.9-3.7l0.3,0v5.3c0,1.5,1.2,2.7,2.7,2.7h12.3c1.5,0,2.7-1.2,2.7-2.7v-2.9l0,0c1.1,0,2,0.3,2.5,0.9
	c1,1.1,1,2.8,1,2.9v6c-1.8,0.4-3.2,2-3.2,3.9c0,2.2,1.8,4,4,4s4-1.8,4-4C36.6,55.2,35.4,53.7,33.8,53.2z M30.5,15.1c0-1.1,0.9-2,2-2
	s2,0.9,2,2s-0.9,2-2,2S30.5,16.2,30.5,15.1z M7.4,25.7c-1.1,0-2-0.9-2-2s0.9-2,2-2s2,0.9,2,2S8.5,25.7,7.4,25.7z M9.2,66.3
	c-1.1,0-2-0.9-2-2s0.9-2,2-2s2,0.9,2,2S10.3,66.3,9.2,66.3z M26.2,46.1c0,0.4-0.3,0.7-0.7,0.7H13.2c-0.4,0-0.7-0.3-0.7-0.7V33.8
	c0-0.4,0.3-0.7,0.7-0.7h12.3c0.4,0,0.7,0.3,0.7,0.7V46.1z M32.6,59c-1.1,0-2-0.9-2-2s0.9-2,2-2s2,0.9,2,2S33.7,59,32.6,59z"/>
</svg>
