<?xml version="1.0" encoding="utf-8"?>
<!-- Generator: Adobe Illustrator 23.1.0, SVG Export Plug-In . SVG Version: 6.00 Build 0)  -->
<svg version="1.1" id="Layer_1" xmlns="http://www.w3.org/2000/svg" xmlns:xlink="http://www.w3.org/1999/xlink" x="0px" y="0px"
	 viewBox="0 0 40 80" style="enable-background:new 0 0 40 80;" xml:space="preserve">
<title>Expertise-Persona</title>
<path d="M31,19.1h-6.8v-5.2c0-1.4-1.1-2.5-2.5-2.5h-3.5c-1.4,0-2.5,1.1-2.5,2.5v5.2H9c-2.3,0-4.2,1.9-4.2,4.2v41.1
	c0,2.3,1.9,4.2,4.2,4.2h22c2.3,0,4.2-1.9,4.2-4.2V23.3C35.2,20.9,33.3,19.1,31,19.1z M17.8,13.9c0-0.3,0.2-0.5,0.5-0.5h3.5
	c0.3,0,0.5,0.2,0.5,0.5v9c0,0.3-0.2,0.5-0.5,0.5h-3.5c-0.3,0-0.5-0.2-0.5-0.5V13.9z M12.4,66.4V52.2c0-2,1.6-3.7,3.7-3.7h7.8
	c2,0,3.7,1.6,3.7,3.7v14.2c0,0,0,0.1,0,0.2H12.5C12.5,66.5,12.5,66.5,12.4,66.4z M15.7,38.3c0-2.4,1.9-4.3,4.3-4.3
	c2.4,0,4.3,1.9,4.3,4.3c0,2.4-1.9,4.3-4.3,4.3C17.6,42.6,15.7,40.7,15.7,38.3z M33.2,64.4c0,1.2-1,2.2-2.2,2.2h-1.5V52.2
	c0-3.1-2.5-5.7-5.7-5.7H21l0-2c3-0.5,5.3-3.1,5.3-6.2c0-3.5-2.8-6.3-6.3-6.3s-6.3,2.8-6.3,6.3c0,3.1,2.3,5.7,5.3,6.2l0,2.1h-2.9
	c-3.1,0-5.7,2.5-5.7,5.7v14.4H9c-1.2,0-2.2-1-2.2-2.2V23.3c0-1.2,1-2.2,2.2-2.2h6.8v1.8c0,1.4,1.1,2.5,2.5,2.5h3.5
	c1.4,0,2.5-1.1,2.5-2.5v-1.8H31c1.2,0,2.2,1,2.2,2.2V64.4z"/>
</svg>
