<?xml version="1.0" encoding="utf-8"?>
<!-- Generator: Adobe Illustrator 23.1.0, SVG Export Plug-In . SVG Version: 6.00 Build 0)  -->
<svg version="1.1" id="Layer_1" xmlns="http://www.w3.org/2000/svg" xmlns:xlink="http://www.w3.org/1999/xlink" x="0px" y="0px"
	 viewBox="0 0 40 80" style="enable-background:new 0 0 40 80;" xml:space="preserve">
<title>Expertise-Interaction</title>
<path d="M32.9,58.1h-0.5c3.3-4.7,2.9-10.6,2.9-16.5c-0.1-2-1.7-3.5-3.7-3.5c-0.6,0-1.2,0.2-1.7,0.5c-0.8-1.8-3-2.6-4.7-1.7
	c-0.1,0.1-0.3,0.1-0.4,0.2c-0.9-1.7-3-2.4-4.7-1.6v-6.1c2.8-1.4,4.8-4.2,4.8-7.6c0-4.6-3.8-8.4-8.4-8.4c-4.6,0-8.4,3.8-8.4,8.4
	c0,3.4,2,6.3,4.9,7.6v14.5l-1.5-2.3c-0.8-1.7-2.8-2.5-4.6-1.7s-2.5,2.8-1.7,4.6c2.1,5,4.9,9.5,8.5,13.5h0.1v0.1c0,0-0.1-0.1-0.1-0.1
	h-0.4c-0.6,0-1,0.4-1,1v6.6c0,0.5,0.4,1,1,1s1-0.4,1-1V60h17.6v5.6c0,0.5,0.4,1,0.9,1c0,0,0,0,0,0c0.5,0,1-0.4,1-0.9c0,0,0,0,0,0
	v-6.6C33.9,58.5,33.4,58.1,32.9,58.1z M10,21.7c0-3.5,2.9-6.4,6.4-6.4c3.5,0,6.4,2.9,6.4,6.4c0,2.2-1.1,4.2-2.8,5.3v-3.9
	c0-2-1.6-3.6-3.6-3.6s-3.6,1.6-3.6,3.6v3.9C11.1,25.9,10,24,10,21.7z M29.8,58H16.6c-3.8-3-8.1-10.3-9.7-14.3
	c-0.8-2.1,1.8-2.9,2.8-1.2l3.2,5.5c0.3,0.4,0.9,0.6,1.4,0.2c0.2-0.2,0.4-0.4,0.4-0.7V30v-2.1v-4.8c0-0.9,0.7-1.6,1.6-1.6
	s1.6,0.7,1.6,1.6V28v2v14.9c0,0.5,0.4,1,1,1s1-0.4,1-1v-6.4c0-0.9,0.7-1.6,1.6-1.6c0.9,0,1.6,0.7,1.6,1.6v7.7
	c0.1,0.5,0.6,0.9,1.1,0.8c0.4-0.1,0.8-0.4,0.8-0.8V40c0-0.9,0.7-1.6,1.6-1.6c0.9,0,1.6,0.7,1.6,1.6v7.9c0.1,0.5,0.6,0.9,1.1,0.8
	c0.4-0.1,0.8-0.4,0.8-0.8c0-2.1,0-4.3,0-6.4c0-0.9,0.7-1.6,1.6-1.6s1.6,0.7,1.6,1.6C33.3,47,33.6,53.7,29.8,58z"/>
</svg>
