<?xml version="1.0" encoding="utf-8"?>
<!-- Generator: Adobe Illustrator 23.1.0, SVG Export Plug-In . SVG Version: 6.00 Build 0)  -->
<svg version="1.1" id="Layer_1" xmlns="http://www.w3.org/2000/svg" xmlns:xlink="http://www.w3.org/1999/xlink" x="0px" y="0px"
	 viewBox="0 0 40 80" style="enable-background:new 0 0 40 80;" xml:space="preserve">
<style type="text/css">
	.st0{fill:#010101;}
</style>
<title>Expertise-Iconography</title>
<path class="st0" d="M28.9,11.7c-0.1-0.3-0.4-0.6-0.7-0.7c-0.3-0.1-0.7,0-0.9,0.2c-1.1,1.1-6.8,6.5-7,9.4c-0.1,1.9,0.6,3.7,1.8,4.9
	l-3.5,9.7c-0.9,0.6-2.3,2.9-4.4,10.9l-5,0L9,41.5c0-0.6-0.5-1-1-1c-0.6,0-1,0.5-1,1l0.3,24l0,0.1c0.2,1.8,1.8,3.1,3.5,3.1
	c0,0,0,0,0,0h15c1.8,0,3.3-1.3,3.5-3.1l0.3-24.1c0-0.6-0.4-1-1-1c-0.6,0-1,0.4-1,1l-0.1,4.6l-4.3,0c1.4-5.7,1.5-7.9,1.2-8.9
	l2.3-10.5c0.6-0.2,1.2-0.5,1.8-1c1.2-1,2-2.6,2.1-4.2c0,0,0,0,0,0C30.9,18.6,28.9,12,28.9,11.7z M24.7,26.9l-2,9.1l-2.2-0.6l3.2-8.7
	C24.1,26.8,24.4,26.9,24.7,26.9z M27.4,65.4c-0.1,0.7-0.8,1.3-1.6,1.3h-15c0,0,0,0,0,0c-0.8,0-1.4-0.6-1.5-1.3L9.1,48.2l18.5-0.1
	L27.4,65.4z M16.2,46.2c1.3-4.7,2.6-8.1,3.2-9l3.3,1c0.1,0.6,0,2.4-1.4,8.1L16.2,46.2z M28.7,21.3c-0.1,1.1-0.6,2.2-1.4,2.9
	c-0.6,0.5-1.4,0.8-2.1,0.7c-1.8-0.1-3.1-2-3-4.1c0.1-1.4,2.8-4.5,5.2-6.9C28,16.2,28.8,19.7,28.7,21.3z"/>
</svg>
