<?xml version="1.0" encoding="utf-8"?>
<!-- Generator: Adobe Illustrator 23.1.0, SVG Export Plug-In . SVG Version: 6.00 Build 0)  -->
<svg version="1.1" id="Layer_1" xmlns="http://www.w3.org/2000/svg" xmlns:xlink="http://www.w3.org/1999/xlink" x="0px" y="0px"
	 viewBox="0 0 40 80" style="enable-background:new 0 0 40 80;" xml:space="preserve">
<title>Expertise-Ethnography</title>
<path d="M37.2,23.4c0-1.1-0.3-1.7-1-2.3c-0.7-0.7-1.7-1-2.7-1.1h-0.3v-0.7c0-0.9-0.4-1.9-1.1-2.5s-1.7-1-2.7-1L6.8,15.7
	c-2.1,0-3.7,1.6-3.8,3.4L2.7,56.6c0,2,1.7,3.5,3.8,3.5h0.3v0.6c0,2,1.7,3.5,3.8,3.5l22.6,0.1c2.1,0,4-1.5,4-3.4
	C37.3,60.9,37.2,24.5,37.2,23.4z M33.5,21.9c0.5,0,0.9,0.2,1.3,0.5c0.4,0.3,0.5,0.7,0.5,1.2l-0.1,7c-0.7-0.3-1.4-0.4-2.1-0.4l0-8.2
	H33.5z M7.8,58.3H6.5c-1,0-1.8-0.7-1.8-1.7L5,19.2c0-0.9,0.8-1.7,1.8-1.7l22.5,0.1c0.5,0,0.9,0.2,1.3,0.5s0.5,0.7,0.5,1.2v1.5V30
	h-3.2c-0.4-2.2-2.5-3.9-5-3.9c-2.8,0-5.1,2.1-5.1,4.7s2.3,4.7,5.1,4.7c2.4,0,4.5-1.6,5-3.7h3.2L31,45.1h-3.1c-0.4-2.2-2.5-3.9-5-3.9
	c-2.8,0-5.1,2.1-5.1,4.7s2.3,4.7,5.1,4.7c2.4,0,4.5-1.6,5-3.7H31v9.8c0,1.2-1.3,1.6-1.8,1.6h-8.7H7.8z M23.5,31.8h2.3
	c-0.4,1.1-1.6,1.9-2.9,1.9c-1.7,0-3.1-1.3-3.1-2.9s1.4-2.9,3.1-2.9c1.4,0,2.5,0.8,2.9,2h-2.3c-0.6,0-1,0.4-1,0.9
	C22.5,31.4,23,31.8,23.5,31.8z M23.6,47h2.3c-0.4,1.1-1.6,1.9-2.9,1.9c-1.7,0-3.1-1.3-3.1-2.9c0-1.6,1.4-2.9,3.1-2.9
	c1.4,0,2.5,0.8,2.9,2h-2.3c-0.6,0-1,0.4-1,0.9C22.6,46.6,23,47,23.6,47z M35.1,60.7c0,0.9-0.9,1.9-1.9,1.9l-22.6-0.1
	c-1,0-1.8-0.7-1.8-1.7v-0.6c0,0,19.4,0.1,20.3,0.1c3.2,0,3.9-2.2,3.9-3.4l0.1-9.6c0.8,0,1.3,0.2,1.5,0.4c0.3,0.3,0.5,1,0.5,2
	C35.1,52.4,35.1,60.7,35.1,60.7z M35.2,45.7c-0.7-0.3-1.4-0.4-2.1-0.4l0.1-13.2c0.8,0,1.3,0.2,1.5,0.4c0.3,0.3,0.5,1,0.5,2
	C35.2,37.2,35.2,45.7,35.2,45.7z"/>
</svg>
