<?xml version="1.0" encoding="utf-8"?>
<!-- Generator: Adobe Illustrator 23.1.0, SVG Export Plug-In . SVG Version: 6.00 Build 0)  -->
<svg version="1.1" id="Layer_1" xmlns="http://www.w3.org/2000/svg" xmlns:xlink="http://www.w3.org/1999/xlink" x="0px" y="0px"
	 viewBox="0 0 40 80" style="enable-background:new 0 0 40 80;" xml:space="preserve">
<style type="text/css">
	.st0{fill:#010101;}
</style>
<title>Expertise-Usability</title>
<path class="st0" d="M29.9,14.3C29.9,14.3,29.9,14.3,29.9,14.3H10.1c-1.8,0.1-3.2,1.6-3.1,3.3c-0.1,1.8,1.3,3.3,3.1,3.4H12v20.3
	c-0.3,0-0.6,0.2-0.8,0.5C10.8,42.5,7,49.5,7,52.2c-0.1,2.9,2.1,5.3,5,5.5v2.4c0,4.8,3.6,8.6,8,8.6s8-3.9,8-8.6V20.9l2,0
	c1.8-0.1,3.1-1.6,3-3.3C33.1,15.9,31.7,14.3,29.9,14.3z M9,52.2c0-1.3,1.6-5,3.1-7.8c0,0,0,0,0,0c0,0,0,0,0,0c1.9,3.7,3,6.6,3,7.8
	c0,0.1,0,0.1,0,0.2c0,0.1,0,0.3,0,0.4c0,0.1,0,0.1,0,0.1c0,0.1,0,0.3-0.1,0.4c0,0,0,0,0,0.1c-0.1,0.2-0.1,0.3-0.2,0.4c0,0,0,0,0,0
	c-0.3,0.7-0.9,1.2-1.5,1.5c-0.2,0.1-0.3,0.1-0.5,0.2c0,0,0,0,0,0c-0.2,0.1-0.5,0.1-0.6,0.1C10.3,55.6,8.9,54.1,9,52.2z M20,66.7
	c-3.3,0-6-3-6-6.6v-2.9c0,0,0,0,0.1,0c0.1,0,0.2-0.1,0.3-0.1c0.2-0.1,0.3-0.2,0.5-0.3c0.1-0.1,0.2-0.1,0.3-0.2
	c0.1-0.1,0.3-0.2,0.4-0.3c0.1-0.1,0.1-0.2,0.2-0.2c0.1-0.1,0.2-0.3,0.3-0.4c0.1-0.1,0.1-0.2,0.2-0.3c0.1-0.1,0.2-0.3,0.3-0.5
	c0-0.1,0.1-0.2,0.1-0.3c0.1-0.2,0.1-0.3,0.2-0.5c0-0.1,0.1-0.2,0.1-0.3c0.1-0.2,0.1-0.4,0.1-0.6c0-0.1,0-0.2,0-0.2
	c0-0.3,0-0.5,0-0.8c0,0,0,0,0-0.1c0,0,0,0,0,0c0,0,0,0,0,0c0-1.5-1.1-4.3-3.1-8.4v-9.3h12v2.4h-6.9c-0.6,0-1,0.4-1,1s0.4,1,1,1H26
	v3.4h-6.9c-0.6,0-1,0.4-1,1s0.4,1,1,1H26v3.4h-3.3c-0.6,0-1,0.4-1,1s0.4,1,1,1H26v4.2h-3.3c-0.6,0-1,0.4-1,1s0.4,1,1,1H26v4h-5.1
	c-0.6,0-1,0.4-1,1s0.4,1,1,1h4.9C25.1,64.7,22.8,66.7,20,66.7z M29.9,18.9H27c-0.6,0-1,0.4-1,1v12.5H14V19.9c0-0.6-0.4-1-1-1l-2.8,0
	c-0.7,0-1.2-0.6-1.2-1.4c0-0.7,0.5-1.3,1.2-1.3h19.7c0.7,0,1.2,0.6,1.2,1.4C31,18.3,30.5,18.9,29.9,18.9z"/>
</svg>
