<?xml version="1.0" encoding="utf-8"?>
<!-- Generator: Adobe Illustrator 25.2.3, SVG Export Plug-In . SVG Version: 6.00 Build 0)  -->
<svg version="1.1" id="Layer_1" xmlns="http://www.w3.org/2000/svg" xmlns:xlink="http://www.w3.org/1999/xlink" x="0px" y="0px"
	 viewBox="0 0 40 80" style="enable-background:new 0 0 40 80;" xml:space="preserve">
<path d="M26.6,24.4c-5.3,0-9.5,4.6-9.5,10.3c0,3.5,1.7,6.1,2.6,7.5c0.7,1.3,1,1.9,1,3.2v3.9c0,1.2,1.4,1.5,1.7,2.7
	c0.5,2,1.7,3.2,3.4,3.6c-0.1,0.4-1.6,7.4-11.3,7l0,0l-3.1-1.8l-0.9-1.6l1.4-3.5c0.3-0.7-0.1-1.5-0.8-1.8l-1.2-0.5l0.6-0.5
	c0.9-0.6,0.8-1.9-0.2-2.3L8.9,50l1.4-1.8c0.3-0.4,0.4-1,0.1-1.4c-0.2-0.5-0.7-0.7-1.2-0.8H6.6L6,45.1l5.2-8.6
	c0.1-0.2,0.2-0.5,0.2-0.7v-7.4c0-0.1,0-0.2,0.1-0.3c0.1-0.5,2.2-12.6,17-10.4c0.5,0.1,1.1-0.3,1.1-0.8c0.1-0.5-0.3-1.1-0.8-1.1
	C12,13.3,9.5,27.8,9.5,27.9c-0.2-0.2-0.1,7.6-0.1,7.8l-5.3,8.8c-0.3,0.4-0.3,1,0,1.5l1,1.5c0.5,0.7,2.1,0.4,2.8,0.5l-1.1,1.4
	c-0.6,0.7-0.2,1.8,0.6,2.1L8.5,52l-0.7,0.5c-0.8,0.6-0.8,2,0.3,2.4l1.6,0.7l-1.2,3.2c-0.1,0.4-0.1,0.8,0.1,1.2l1.1,2
	c0.1,0.2,0.3,0.4,0.5,0.5l3.3,2c0.3,0.1,0.5,0.2,0.8,0.2c4,0.2,7.8-0.9,10.3-3.3c2.7-2.5,3.2-5.2,3.2-5.8c1.6-0.4,2.7-1.6,3.2-3.5
	c1-0.5,1.6-1.5,1.6-2.7v-3.9c0-1.3,0.3-1.9,1-3.2c1.9-2.9,2.7-5.2,2.6-7.5C36.1,29,31.8,24.4,26.6,24.4z M30.6,47.6h-7.9v-2.1h7.9
	V47.6z M26.8,53.6c-0.4,0-1.7,0-2.3-2c-0.5-1.5-1.5-1.7-1.6-2c0.2,0,7.8,0,7.8,0c-0.2,0.6-1.2,0.8-1.6,2
	C28.7,52.9,27.9,53.6,26.8,53.6z M31.9,40.9c-0.5,0.8-1.2,2.6-1.2,2.6h-8.3c-0.7-0.8-1.2-2.5-1.2-2.5S19,37.6,19,34.7
	c0-4.6,3.4-8.3,7.5-8.3C33.3,26.5,36.5,35.3,31.9,40.9z"/>
</svg>
