<?xml version="1.0" encoding="utf-8"?>
<!-- Generator: Adobe Illustrator 25.2.3, SVG Export Plug-In . SVG Version: 6.00 Build 0)  -->
<svg version="1.1" id="Layer_1" xmlns="http://www.w3.org/2000/svg" xmlns:xlink="http://www.w3.org/1999/xlink" x="0px" y="0px"
	 viewBox="0 0 40 80" style="enable-background:new 0 0 40 80;" xml:space="preserve">
<style type="text/css">
	.st0{fill:#010101;}
</style>
<path class="st0" d="M30.3,61.8c0.7-1,2.4-2.5,1.7-4.3c0.1-0.5-5.4-29.2-4.9-29.6l0,0c-0.1-2.8,0.9-8.6-3.5-8.5c0,0-0.6,0-0.6,0
	c-0.2-2.5,1.1-8.1-3-8c-4-0.1-2.8,5.5-3,8c-5.2-0.6-4.3,6.3-3.9,9.5c0,0-4.8,28.6-4.8,28.6c-0.8,1.9,0.9,3.4,1.6,4.4
	c0.2,0.9-2.4,6.6-0.4,6.8c1.8,0.5,2-5.7,2.4-6.6c1.6-0.2,3-1.4,3.2-3.1l5.1-22.5l5,22.3c0.2,1.7,1.6,3,3.2,3.2
	c0.4,0.9,0.6,7.1,2.4,6.6C32.8,68.4,30.2,62.7,30.3,61.8z M26,27.9L25.1,28v-0.1H26z M19,14.4c-0.1-1.3,2.1-1.3,2,0c0,0,0,5,0,5h-2
	V14.4z M15,22.9c-0.2-2.6,7.2-1,8.5-1.4c2.5-0.2,1.2,5.2,1.5,6.5c0,0-5.2,3.4-5.1,3.3c-5.3-3.8-5.2-1.7-5-8.4H15z M13.1,58.6
	c-0.3,2.3-3.5,1.6-2.9-0.7c0,0,4.8-27.5,4.8-27.5l3.9,2.6L13.1,58.6z M27.1,58.5l-5.8-25.7l3.9-2.5L30,57.9
	C30.5,60.1,27.4,60.8,27.1,58.5z"/>
</svg>
