<?xml version="1.0" encoding="utf-8"?>
<!-- Generator: Adobe Illustrator 25.2.3, SVG Export Plug-In . SVG Version: 6.00 Build 0)  -->
<svg version="1.1" id="Layer_1" xmlns="http://www.w3.org/2000/svg" xmlns:xlink="http://www.w3.org/1999/xlink" x="0px" y="0px"
	 viewBox="0 0 40 80" style="enable-background:new 0 0 40 80;" xml:space="preserve">
<path d="M37.2,23.4c0.1-2.2-2-3.4-4-3.4c0,0,0-0.7,0-0.7c0-2-1.8-3.5-3.8-3.5c0,0-22.6-0.1-22.6-0.1c-2.1,0-3.7,1.6-3.8,3.4
	L2.7,56.6c0,2.1,1.9,3.6,4.1,3.5c0,0,0,0.6,0,0.6c0,2,1.7,3.5,3.8,3.5c0,0,22.6,0.1,22.6,0.1c2.1,0,4-1.5,4-3.4
	C37.3,60.9,37.2,24.5,37.2,23.4z M33.5,21.9c0.9,0,1.9,0.7,1.8,1.7c0,0-0.1,7-0.1,7c-0.7-0.3-1.4-0.4-2.1-0.4V22
	C33.2,22,33.6,22.1,33.5,21.9z M7.8,58.3c-1.3,0.1-3.1,0-3.1-1.7c0,0,0.3-37.4,0.3-37.4c0-0.9,0.8-1.7,1.8-1.7l22.5,0.1
	c1.9,0.1,1.9,1.7,1.8,3.2c0,0,0,9.2,0,9.2h-3.2c-1-5.5-10.1-4.9-10.1,0.8c0,2.6,2.3,4.7,5.1,4.7c2.4,0,4.5-1.6,5-3.7h3.2L31,45.1
	h-3.1c-1-5.5-10.1-4.9-10.1,0.8c0,5.6,8.9,6.3,10.1,1c0,0,3.1,0,3.1,0v9.8c0,1.2-1.3,1.6-1.8,1.6C24.1,58.3,12.9,58.3,7.8,58.3z
	 M23.5,31.8h2.3c-1,2.9-6.1,2.2-6-1c0-1.6,1.4-2.9,3.1-2.9c1.4,0,2.5,0.8,2.9,2h-2.3C22.1,29.9,22.3,31.8,23.5,31.8z M23.6,47h2.3
	c-1,2.9-6.1,2.2-6-1c0-1.6,1.4-2.9,3.1-2.9c1.4,0,2.5,0.8,2.9,2h-2.3C22.2,45.1,22.3,47.1,23.6,47z M35.1,60.7
	c0,0.9-0.9,1.9-1.9,1.9l-22.6-0.1c-1.3,0-2-1.1-1.8-2.3c0,0,19.4,0.1,20.3,0.1c3.2,0,3.9-2.2,3.9-3.4l0.1-9.6c1.8,0.1,1.9,0.6,2,2.4
	C35.1,52.4,35.1,60.7,35.1,60.7z M35.2,45.7c-0.7-0.3-1.4-0.4-2.1-0.4l0.1-13.2c1.8,0.1,1.9,0.6,2,2.4
	C35.2,37.2,35.2,45.7,35.2,45.7z"/>
</svg>
