<?xml version="1.0" encoding="utf-8"?>
<!-- Generator: Adobe Illustrator 26.0.2, SVG Export Plug-In . SVG Version: 6.00 Build 0)  -->
<svg version="1.1" id="Layer_1" xmlns="http://www.w3.org/2000/svg" xmlns:xlink="http://www.w3.org/1999/xlink" x="0px" y="0px"
	 viewBox="0 0 40 80" style="enable-background:new 0 0 40 80;" xml:space="preserve">
<path d="M35.2,23.4c0.1-2.2-2-3.4-4-3.4v-0.7c0-2-1.8-3.5-3.8-3.5L8.8,15.7c-2.1,0-3.7,1.6-3.8,3.4L4.7,56.6c0,2.1,1.9,3.6,4.1,3.5
	v0.6c0,2,1.7,3.5,3.8,3.5l18.6,0.1c2.1,0,4-1.5,4-3.4C35.3,60.9,35.2,24.5,35.2,23.4z M31.5,21.9c0.9,0,1.9,0.7,1.8,1.7l-0.1,7
	c-0.7-0.3-1.4-0.4-2.1-0.4V22C31.2,22,31.6,22.1,31.5,21.9z M9.8,58.3c-1.3,0.1-3.1,0-3.1-1.7L7,19.2c0-0.9,0.8-1.7,1.8-1.7
	l18.5,0.1c1.9,0.1,1.9,1.7,1.8,3.2V30h-3.2c-1-5.5-10.1-4.9-10.1,0.8c0,2.6,2.3,4.7,5.1,4.7c2.4,0,4.5-1.6,5-3.7h3.2L29,45.1h-3.1
	c-1-5.5-10.1-4.9-10.1,0.8c0,5.6,8.9,6.3,10.1,1H29v9.8c0,1.2-1.3,1.6-1.8,1.6C22.1,58.3,14.9,58.3,9.8,58.3z M21.5,31.8h2.3
	c-1,2.9-6.1,2.2-6-1c0-1.6,1.4-2.9,3.1-2.9c1.4,0,2.5,0.8,2.9,2h-2.3C20.1,29.9,20.3,31.8,21.5,31.8z M21.6,47h2.3
	c-1,2.9-6.1,2.2-6-1c0-1.6,1.4-2.9,3.1-2.9c1.4,0,2.5,0.8,2.9,2h-2.3C20.2,45.1,20.3,47.1,21.6,47z M33.1,60.7
	c0,0.9-0.9,1.9-1.9,1.9l-18.6-0.1c-1.3,0-2-1.1-1.8-2.3c0,0,15.4,0.1,16.3,0.1c3.2,0,3.9-2.2,3.9-3.4l0.1-9.6c1.8,0.1,1.9,0.6,2,2.4
	C33.1,52.4,33.1,60.7,33.1,60.7z M33.2,45.7c-0.7-0.3-1.4-0.4-2.1-0.4l0.1-13.2c1.8,0.1,1.9,0.6,2,2.4
	C33.2,37.2,33.2,45.7,33.2,45.7z"/>
</svg>
