<svg xmlns="http://www.w3.org/2000/svg" viewBox="0 0 36 36"><title>DP-preview</title><path d="M27.08,17.11H24.16V15.27A3.32,3.32,0,0,0,20.8,12H15.2a3.32,3.32,0,0,0-3.36,3.27v1.84H8.92A.92.92,0,0,0,8,18a.89.89,0,0,0,.27.63,1,1,0,0,0,.65.27h2.92v1.83A3.32,3.32,0,0,0,15.2,24h5.6a3.32,3.32,0,0,0,3.36-3.27V18.9h2.92a1,1,0,0,0,.65-.27A.89.89,0,0,0,28,18,.91.91,0,0,0,27.08,17.11Zm-4.52,3.62a1.73,1.73,0,0,1-1.76,1.7H15.2a1.73,1.73,0,0,1-1.76-1.7V15.27a1.73,1.73,0,0,1,1.76-1.7h5.6a1.73,1.73,0,0,1,1.76,1.7Z"/><path d="M19.58,17.11H16.42a.93.93,0,0,0-.92.9.89.89,0,0,0,.27.63,1,1,0,0,0,.65.27h3.16a1,1,0,0,0,.65-.27A.93.93,0,0,0,20.5,18,.92.92,0,0,0,19.58,17.11Z"/></svg>