<svg xmlns="http://www.w3.org/2000/svg" viewBox="0 0 36 36"><title>ES-intercation</title><path d="M15,19.3V8a.89.89,0,0,1,1.78,0v9.84a.55.55,0,0,0,1.1,0V14.28a.89.89,0,0,1,1.78,0v4.3a.55.55,0,0,0,1.09,0V15.07a.89.89,0,0,1,1.78,0V19.5a.55.55,0,0,0,1.09,0c0-1.19,0-2.39,0-3.59a.89.89,0,0,1,1.78,0c0,3.07.2,6.85-1.94,9.25H16.08c-2.12-1.7-4.53-5.75-5.41-8-.44-1.15,1-1.63,1.54-.67L14,19.57a.55.55,0,0,0,1-.27Zm-.52,5.89h-.24a.56.56,0,0,0-.56.56h0v3.7a.55.55,0,0,0,.55.55h0a.55.55,0,0,0,.55-.55V26.29h9.86v3.16a.54.54,0,0,0,.54.55h0a.54.54,0,0,0,.55-.55v-3.7a.56.56,0,0,0-.56-.56h-.28a0,0,0,0,1,0,0c1.84-2.63,1.62-5.95,1.62-9.23a2,2,0,0,0-3-1.68h0a2,2,0,0,0-2.89-.84h0a2,2,0,0,0-2.64-.9h0V8a2,2,0,0,0-4,0v9.26s0,0,0,0L13.15,16a1.92,1.92,0,0,0-3.49,1.61,26.66,26.66,0,0,0,4.82,7.63Z"/></svg>