<svg xmlns="http://www.w3.org/2000/svg" viewBox="0 0 36 36"><title>ES-persona</title><path d="M28.84,7.83H7.16A1.16,1.16,0,0,0,6,9V24.67a1.16,1.16,0,0,0,1.16,1.16h9l1.12,1.89a.93.93,0,0,0,.8.45h0a.93.93,0,0,0,.8-.47l1-1.87h8.94A1.16,1.16,0,0,0,30,24.67V9A1.16,1.16,0,0,0,28.84,7.83Zm-9.52,17L18,27.1l-1.35-2.27H12.5a5.5,5.5,0,0,1,11,0ZM29,24.67a.16.16,0,0,1-.16.16H24.5a6.5,6.5,0,0,0-13,0H7.16A.16.16,0,0,1,7,24.67V9a.16.16,0,0,1,.16-.16H28.84A.16.16,0,0,1,29,9Z"/><path d="M21.5,14.83a3.5,3.5,0,1,0-3.5,3.5A3.5,3.5,0,0,0,21.5,14.83ZM18,17.33a2.5,2.5,0,1,1,2.5-2.5A2.5,2.5,0,0,1,18,17.33Z"/></svg>