<svg xmlns="http://www.w3.org/2000/svg" viewBox="0 0 36 36"><title>heart</title><path d="M18,28.39a1.7,1.7,0,0,1-.7-.1c-.8-.4-8.8-4.1-10.3-11.1-1-4.6,1.5-8,4.3-9.1A6.13,6.13,0,0,1,18,9.39a6.36,6.36,0,0,1,6.7-1.3h0c2.8,1.1,5.3,4.5,4.3,9.1-1.5,7-9.4,10.7-10.3,11.1A1.48,1.48,0,0,1,18,28.39Zm-.1-1.9Zm.3,0ZM13.7,9.59a4.53,4.53,0,0,0-1.6.3c-2.2.9-3.9,3.4-3.1,6.9,1.3,5.8,7.9,9.1,9.1,9.6,1.3-.6,7.8-3.8,9.1-9.6A5.93,5.93,0,0,0,24,9.89a4.2,4.2,0,0,0-5.1,1.5.91.91,0,0,1-.8.4h0a1.23,1.23,0,0,1-.8-.4A4.86,4.86,0,0,0,13.7,9.59Z"/></svg>