<?xml version="1.0" encoding="utf-8"?>
<!-- Generator: Adobe Illustrator 25.4.0, SVG Export Plug-In . SVG Version: 6.00 Build 0)  -->
<svg version="1.1" id="Layer_1" xmlns="http://www.w3.org/2000/svg" xmlns:xlink="http://www.w3.org/1999/xlink" x="0px" y="0px"
	 viewBox="0 0 30 30" style="enable-background:new 0 0 30 30;" xml:space="preserve">
<path d="M26.5,5.4C21.2-0.9,11.7-1.8,5.4,3.5s-7.1,14.8-1.8,21.1s14.8,7.1,21.1,1.8S31.8,11.7,26.5,5.4z M4.7,23.6
	C-0.2,17.9,0.6,9.6,6.4,4.7s14.1-4.1,18.9,1.7s4.1,14.1-1.7,18.9S9.6,29.4,4.7,23.6z"/>
<path d="M19.6,8.4l-4,2.1c-0.9,0.5-1.3,1.6-0.8,2.5l0.5,0.9l-1.7,0.9l-0.5-0.9c-0.5-0.9-1.6-1.3-2.5-0.8l-3.7,2
	C5.2,16,4.5,18.2,5.5,20c0.9,1.7,3.1,2.4,4.9,1.5l3.7-2c0.9-0.5,1.3-1.6,0.8-2.5l-0.4-0.8l1.7-0.9l0.4,0.8c0.5,0.9,1.6,1.3,2.5,0.8
	l4-2.1c1.7-0.9,2.4-3.1,1.5-4.9C23.5,8.1,21.3,7.5,19.6,8.4z M13.5,17.7c0.1,0.2,0,0.4-0.2,0.5l-3.7,2c-1,0.5-2.3,0.2-2.8-0.9
	c-0.5-1-0.2-2.3,0.9-2.8l3.7-2c0.2-0.1,0.4,0,0.5,0.2l0.5,0.9l-3.8,2c-0.4,0.2-0.5,0.6-0.3,1c0.2,0.4,0.6,0.5,1,0.3l3.8-2L13.5,17.7
	z M22.3,13.4l-4,2.1c-0.2,0.1-0.4,0-0.5-0.2l-0.4-0.8l4.2-2.2c0.4-0.2,0.5-0.6,0.3-1c-0.2-0.4-0.6-0.5-1-0.3l-4.2,2.2l-0.5-0.9
	c-0.1-0.2,0-0.4,0.2-0.5l4-2.1c1-0.5,2.3-0.2,2.8,0.9C23.7,11.6,23.3,12.9,22.3,13.4z"/>
</svg>
