<?xml version="1.0" encoding="utf-8"?>
<!-- Generator: Adobe Illustrator 25.2.3, SVG Export Plug-In . SVG Version: 6.00 Build 0)  -->
<svg version="1.1" id="Layer_1" xmlns="http://www.w3.org/2000/svg" xmlns:xlink="http://www.w3.org/1999/xlink" x="0px" y="0px"
	 viewBox="0 0 36 36" style="enable-background:new 0 0 36 36;" xml:space="preserve">
<path d="M28,3H7.8c-1,0-1.9,0.8-1.9,1.9v26.2c0,1,0.8,1.9,1.9,1.9H28c1,0,1.9-0.8,1.9-1.9v-9.5h0.9c0.3,0,0.5-0.2,0.5-0.5v-6.3
	c0-0.3-0.2-0.5-0.5-0.5h-0.9V4.9C29.9,3.8,29,3,28,3z M10.8,32h-3c-0.5,0-1-0.4-1-1V4.9c0-0.5,0.4-1,1-1h3V32z M28.9,31.1
	c0,0.5-0.4,1-1,1H12V3.9h16c0.5,0,1,0.4,1,1v9.5H17.7c-0.2,0-0.3,0.1-0.4,0.3c-0.1,0.1,0,0.4,0,0.5l2.2,2.9L17.3,21
	c-0.1,0.1-0.1,0.3,0,0.5c0.1,0.1,0.2,0.3,0.4,0.3h11.2L28.9,31.1L28.9,31.1z M30.3,15.3v5.4H18.6l1.9-2.4c0.1-0.2,0.1-0.4,0-0.6
	l-1.9-2.4h10.7l0,0l0,0C29.3,15.3,30.3,15.3,30.3,15.3z M11.8,3.9"/>
</svg>
