<svg xmlns="http://www.w3.org/2000/svg" viewBox="0 0 36 36"><title>NAV-resume</title><path d="M28,4H8A1.91,1.91,0,0,0,6,5.79V30.35A1.93,1.93,0,0,0,8,32H28a1.93,1.93,0,0,0,2-1.79V5.79A1.91,1.91,0,0,0,28,4Zm1,5.84H21a.47.47,0,1,0,0,.93h8v2.81H21a.47.47,0,1,0,0,.93h8v4.6H9.82a.5.5,0,0,0-.53.47.52.52,0,0,0,.53.47H29v2.8H9.82a.5.5,0,0,0-.53.47.52.52,0,0,0,.53.47H29v2.8H9.82a.5.5,0,0,0-.53.47.52.52,0,0,0,.53.47H29v2.68a.91.91,0,0,1-1,.85l0,0H8a.91.91,0,0,1-1-.85V5.79a.91.91,0,0,1,1-.85H28a.91.91,0,0,1,1,.85Z"/><path d="M16.64,7.75h-6a.5.5,0,0,0-.5.5v7a.5.5,0,0,0,.5.5h6a.5.5,0,0,0,.5-.5v-7A.5.5,0,0,0,16.64,7.75Zm-.5,7h-5v-6h5Z"/></svg>