<svg xmlns="http://www.w3.org/2000/svg" viewBox="0 0 36 36"><title>NAV-portfolio</title><path d="M31.83,16.29a1.67,1.67,0,0,0,1.67-1.67V5.17A1.67,1.67,0,0,0,31.83,3.5H4.17A1.67,1.67,0,0,0,2.5,5.17v9.45a1.67,1.67,0,0,0,1.67,1.67h4v3.42h-4A1.67,1.67,0,0,0,2.5,21.38v9.45A1.67,1.67,0,0,0,4.17,32.5H31.83a1.67,1.67,0,0,0,1.67-1.67V21.38a1.67,1.67,0,0,0-1.67-1.67h-4V16.29ZM29.59,4.5a4.46,4.46,0,0,1-8.9,0ZM3.5,14.62V5.17a.67.67,0,0,1,.67-.67h15.5a5.48,5.48,0,0,0,11,0h1.21a.67.67,0,0,1,.67.67v9.45a.67.67,0,0,1-.67.67H4.17A.67.67,0,0,1,3.5,14.62ZM6.41,31.5a4.55,4.55,0,0,1,4.45-4.16,4.56,4.56,0,0,1,4.45,4.16ZM32.5,21.38v9.45a.67.67,0,0,1-.67.67H16.33a5.56,5.56,0,0,0-5.47-5.16A5.57,5.57,0,0,0,5.38,31.5H4.17a.67.67,0,0,1-.67-.67V21.38a.67.67,0,0,1,.67-.67H31.83A.67.67,0,0,1,32.5,21.38Zm-5.71-1.67H9.21V16.29H26.79Z"/></svg>