<svg xmlns="http://www.w3.org/2000/svg" viewBox="0 0 36 36"><title>NAV-contact</title><path d="M33.3,12.69V10.32A2.82,2.82,0,0,0,30.48,7.5h-25a2.82,2.82,0,0,0-2.82,2.82V25.68A2.82,2.82,0,0,0,5.45,28.5h25a2.82,2.82,0,0,0,2.82-2.82V12.85l.07,0Zm-29.67,13V13L13,18.25,4,26.71A1.85,1.85,0,0,1,3.63,25.68ZM30.48,27.5h-25a1.89,1.89,0,0,1-.72-.15l9.19-8.59,2.8,1.57a2.52,2.52,0,0,0,1.3.34,2.45,2.45,0,0,0,1.27-.33l3.12-1.67,9.11,8.5A1.76,1.76,0,0,1,30.48,27.5Zm1.82-1.82a1.92,1.92,0,0,1-.14.72l-8.81-8.23,8.95-4.78Zm0-13.43L18.8,19.47a1.67,1.67,0,0,1-1.58,0L3.71,11.91,3.63,12V10.32A1.83,1.83,0,0,1,5.45,8.5h25a1.82,1.82,0,0,1,1.82,1.82Z"/></svg>