<?xml version="1.0" encoding="utf-8"?>
<!-- Generator: Adobe Illustrator 25.2.3, SVG Export Plug-In . SVG Version: 6.00 Build 0)  -->
<svg version="1.1" id="Layer_1" xmlns="http://www.w3.org/2000/svg" xmlns:xlink="http://www.w3.org/1999/xlink" x="0px" y="0px"
	 viewBox="0 0 36 36" style="enable-background:new 0 0 36 36;" xml:space="preserve">
<path d="M27.9,11.3h-8.3V7.6c0-1.6-1.3-2.9-2.9-2.9H8C6.4,4.7,5.1,6,5.2,7.6v21c0,1.6,1.3,2.9,2.9,2.9h8.7c1.6,0,2.9-1.3,2.9-2.9
	v-4.2h0.6l7,3.7c0.7,0.5,1.5-0.4,1.2-1.1l-1.2-2.7h0.6c1.5,0.1,2.7-1.1,2.8-2.5v-8C30.6,12.4,29.4,11.2,27.9,11.3z M18.1,28.5
	c0,0.8-0.6,1.4-1.4,1.4H8c-0.8,0-1.4-0.6-1.4-1.4V7.6c0-1.5,1.7-1.5,2.8-1.4c-0.1,0.7,0.3,1.2,1,1.2h4c0.6,0,1.1-0.6,1-1.2
	c1.1,0,2.8-0.1,2.8,1.4v3.7H14c-1.5-0.1-2.7,1-2.8,2.5v8c0.1,1.4,1.3,2.6,2.8,2.5h4.1V28.5z M29.2,21.8c-0.2,1.3-1.9,1-2.8,1
	c-1.7,0.2-0.3,2.2,0,3l-5.5-2.9c-10.8-0.5-7.6,1.8-8.1-9.1c0.1-0.6,0.7-1.1,1.3-1h13.8c0.7-0.1,1.2,0.4,1.3,1V21.8z"/>
</svg>
