<svg id="Layer_1" data-name="Layer 1" xmlns="http://www.w3.org/2000/svg" viewBox="0 0 36 36"><defs><style>.cls-1{fill:#231f20;}</style></defs><path class="cls-1" d="M29.19,10.37h-5V8.88a3,3,0,0,0-3-3H14.81a3,3,0,0,0-3,3v1.49h-5a3,3,0,0,0-3,3V27.12a3,3,0,0,0,3,3H29.19a3,3,0,0,0,3-3V13.33A3,3,0,0,0,29.19,10.37ZM13.35,8.88a1.46,1.46,0,0,1,1.46-1.46h6.38a1.46,1.46,0,0,1,1.46,1.46v1.49h-9.3Zm15.84,19.7H6.81a1.46,1.46,0,0,1-1.46-1.46V20.86A3.24,3.24,0,0,0,7,21.38h3.14v1.48a.75.75,0,0,0,1.5,0V21.38H24.32v1.48a.75.75,0,0,0,1.5,0V21.38H29a3.22,3.22,0,0,0,1.66-.52v6.26A1.46,1.46,0,0,1,29.19,28.58ZM30.65,18.1A1.73,1.73,0,0,1,29,19.88H25.82v-1a.75.75,0,0,0-1.5,0v1H11.68v-1a.75.75,0,0,0-1.5,0v1H7.05a1.74,1.74,0,0,1-1.7-1.78V13.33a1.46,1.46,0,0,1,1.46-1.46H29.19a1.46,1.46,0,0,1,1.46,1.46V18.1Z"/></svg>