<svg id="Layer_1" data-name="Layer 1" xmlns="http://www.w3.org/2000/svg" viewBox="0 0 36 36"><defs><style>.cls-1{fill:#231f20;}</style></defs><path class="cls-1" d="M27.86,4.71H19.12A2.9,2.9,0,0,0,16.2,7.6v3.65H8a2.66,2.66,0,0,0-2.76,2.54v8A2.66,2.66,0,0,0,8,24.29h.61L7.39,27a.89.89,0,0,0,.18.95.85.85,0,0,0,1,.13l7-3.74h.61v4.16a2.91,2.91,0,0,0,2.92,2.9h8.74a2.91,2.91,0,0,0,2.92-2.9V7.6A2.9,2.9,0,0,0,27.86,4.71ZM15.43,22.79a1,1,0,0,0-.4.1L9.55,25.8,10.38,24a.8.8,0,0,0-.06-.79.92.92,0,0,0-.71-.38H8a1.17,1.17,0,0,1-1.26-1v-8a1.16,1.16,0,0,1,1.26-1h13.8a1.16,1.16,0,0,1,1.26,1v8a1.17,1.17,0,0,1-1.26,1Zm13.85,5.66a1.41,1.41,0,0,1-1.42,1.4H19.12a1.41,1.41,0,0,1-1.42-1.4V24.29h4.08a2.66,2.66,0,0,0,2.76-2.54v-8a2.66,2.66,0,0,0-2.76-2.54H17.7V7.6a1.4,1.4,0,0,1,1.42-1.39h8.74A1.4,1.4,0,0,1,29.28,7.6Z"/></svg>