<?xml version="1.0" encoding="utf-8"?>
<!-- Generator: Adobe Illustrator 25.2.3, SVG Export Plug-In . SVG Version: 6.00 Build 0)  -->
<svg version="1.1" id="Layer_1" xmlns="http://www.w3.org/2000/svg" xmlns:xlink="http://www.w3.org/1999/xlink" x="0px" y="0px"
	 viewBox="0 0 36 36" style="enable-background:new 0 0 36 36;" xml:space="preserve">
<path d="M31,5.5H5C3.6,5.5,2.5,6.6,2.5,8v15.4c0,1.4,1.1,2.5,2.5,2.5h12.5v3.6H9.4c-0.3,0-0.5,0.2-0.5,0.5s0.2,0.5,0.5,0.5h17.1
	c0.3,0,0.5-0.2,0.5-0.5s-0.2-0.5-0.5-0.5h-8.1v-3.6h12.5c1.4,0,2.5-1.1,2.5-2.5V8C33.5,6.6,32.4,5.5,31,5.5z M32.5,23.4
	c0,0.8-0.7,1.5-1.5,1.5H5c-0.8,0-1.5-0.7-1.5-1.5V22h29V23.4z M32.5,21h-29V10.4h29V21z M32.5,9.4h-29V8c0-0.8,0.7-1.5,1.5-1.5h26
	c0.8,0,1.5,0.7,1.5,1.5V9.4z"/>
</svg>
