<svg id="Layer_1" data-name="Layer 1" xmlns="http://www.w3.org/2000/svg" viewBox="0 0 36 36"><defs><style>.cls-1{fill:#231f20;}</style></defs><path class="cls-1" d="M28.71,15.74h-.46V12.49A2.49,2.49,0,0,0,26.11,10L24.2,9.77V8.71a2.46,2.46,0,0,0-2.15-2.42L10.17,4.71a3.5,3.5,0,0,0-2.79.84A3.43,3.43,0,0,0,6.2,8.14V26A2.42,2.42,0,0,0,7,27.78a2.48,2.48,0,0,0,2,.59l1.27-.17v.64a2.48,2.48,0,0,0,2.88,2.45l13-2.12a2.48,2.48,0,0,0,2.12-2.46v-4h.46a1.09,1.09,0,0,0,1.09-1.09V16.83A1.09,1.09,0,0,0,28.71,15.74Zm-18.44-5V26.69l-1.47.2A1,1,0,0,1,8,26.65.91.91,0,0,1,7.7,26V8.14a1.9,1.9,0,0,1,.67-1.46A2,2,0,0,1,10,6.19L21.86,7.77a1,1,0,0,1,.84.94v.87L13.14,8.32a2.58,2.58,0,0,0-2,.58A2.51,2.51,0,0,0,10.27,10.78ZM26.75,26.71a1,1,0,0,1-.86,1l-13,2.13a1,1,0,0,1-.81-.23,1,1,0,0,1-.34-.74V10.78a1,1,0,0,1,.34-.74,1,1,0,0,1,.82-.23l13,1.7a1,1,0,0,1,.85,1v3.25H19.93a1.09,1.09,0,0,0-.72,1.9L21,19.22l-1.79,1.59a1.09,1.09,0,0,0,.72,1.9h6.82Zm1.55-5.5H21L22.34,20a1.1,1.1,0,0,0,0-1.63L21,17.24H28.3Z"/></svg>