<svg xmlns="http://www.w3.org/2000/svg" viewBox="0 0 36 36"><title>NAV-extertise</title><path d="M27.05,3H9A4,4,0,0,0,5,7V29A4,4,0,0,0,9,33h18.1A4,4,0,0,0,31,29V7A4,4,0,0,0,27.05,3Zm-6,20a2.91,2.91,0,0,0-2.29,2.33H6.11V18.9h6.63a2.92,2.92,0,0,0,5.69,0H29.89v6.42l-.08,0H24.48A2.91,2.91,0,0,0,21.08,23Zm2.34,2.89h0a1.82,1.82,0,0,1-1.75,1.89h0a1.83,1.83,0,0,1-1.79-1.85v0a1.79,1.79,0,1,1,3.58,0ZM22.11,13.73a2.92,2.92,0,0,0,2.37-2.4h5.33l.08,0v6.48H18.47a2.91,2.91,0,0,0-5.78,0H6.11V11.33H18.78A2.9,2.9,0,0,0,22.11,13.73Zm-2.27-2.85v-.12a1.77,1.77,0,0,1,1.71-1.82h.08a1.76,1.76,0,0,1,1.79,1.74v.08a1.79,1.79,0,1,1-3.58.12Zm-2.43,7.43a1.83,1.83,0,0,1-3.65,0v-.12a1.83,1.83,0,1,1,3.65-.06v.15ZM9,4.13h18.1A2.86,2.86,0,0,1,29.89,7v3.21l-.08,0H24.48a2.89,2.89,0,0,0-5.69,0H6.11V7A2.86,2.86,0,0,1,9,4.13Zm18.1,27.74H9A2.86,2.86,0,0,1,6.11,29V26.42H18.78a2.88,2.88,0,0,0,5.7,0h5.33l.08,0V29A2.86,2.86,0,0,1,27.05,31.87Z"/></svg>