<svg xmlns="http://www.w3.org/2000/svg" viewBox="0 0 36 36"><title>NAV-work</title><path d="M31.23,9.64H24V7.94a2.7,2.7,0,0,0-2.9-2.44H15a2.7,2.7,0,0,0-2.9,2.44v1.7H4.77A2.27,2.27,0,0,0,2.5,11.91V28.23A2.27,2.27,0,0,0,4.77,30.5H31.23a2.27,2.27,0,0,0,2.27-2.27V11.91A2.27,2.27,0,0,0,31.23,9.64ZM13.05,7.94A1.72,1.72,0,0,1,15,6.5h6.1A1.72,1.72,0,0,1,23,7.94v1.7h-9.9Zm-9.55,4a1.27,1.27,0,0,1,1.27-1.27H31.23a1.27,1.27,0,0,1,1.27,1.27v3.8a2.5,2.5,0,0,1-2.44,2.55H5.94A2.5,2.5,0,0,1,3.5,15.71Zm29,16.32a1.27,1.27,0,0,1-1.27,1.27H4.77A1.27,1.27,0,0,1,3.5,28.23v-10a3.37,3.37,0,0,0,2.44,1.05H30.06a3.37,3.37,0,0,0,2.44-1.05Z"/></svg>