<svg xmlns="http://www.w3.org/2000/svg" viewBox="0 0 36 36"><title>SI-instagram</title><path d="M21.82,8.42H14.29a5.7,5.7,0,0,0-5.7,5.71v7.52a5.69,5.69,0,0,0,5.7,5.7h7.53a5.69,5.69,0,0,0,5.7-5.7V14.13A5.7,5.7,0,0,0,21.82,8.42Zm3.93,13.23a3.94,3.94,0,0,1-3.93,3.93H14.29a3.94,3.94,0,0,1-3.93-3.93V14.13a3.94,3.94,0,0,1,3.93-3.93h7.53a3.94,3.94,0,0,1,3.93,3.93Z"/><circle cx="23.04" cy="13.02" r="1.11"/><path d="M18.11,13.35A4.65,4.65,0,1,0,22.76,18,4.67,4.67,0,0,0,18.11,13.35Zm0,7.64a3,3,0,1,1,3-3A3,3,0,0,1,18.11,21Z"/></svg>