<svg xmlns="http://www.w3.org/2000/svg" viewBox="0 0 36 36"><title>SI-twitter</title><path d="M26.63,12.51a6.67,6.67,0,0,1-1.76.49c.27-.05.71-.55.88-.77a3,3,0,0,0,.6-1v-.11h-.11a9.87,9.87,0,0,1-2.09.82.2.2,0,0,1-.16-.05l-.17-.17a3.37,3.37,0,0,0-1-.6,3.84,3.84,0,0,0-1.54-.28,3.72,3.72,0,0,0-1.49.44,3.44,3.44,0,0,0-1.21,1,3.5,3.5,0,0,0-.71,1.43,4.33,4.33,0,0,0-.05,1.48c0,.11,0,.11-.06.11a11.32,11.32,0,0,1-7.2-3.68c-.11-.11-.11-.11-.22,0A3.75,3.75,0,0,0,11,15.91c.16.11.27.28.44.39A3.69,3.69,0,0,1,10,15.91c-.11-.05-.11,0-.11.06v.44a3.82,3.82,0,0,0,2.26,3,4.1,4.1,0,0,1,.44.17,4.49,4.49,0,0,1-1.38.05c-.11,0-.16.06-.11.11A3.88,3.88,0,0,0,14,22.12a.84.84,0,0,1,.38.06h0a4.36,4.36,0,0,1-2,1,6.83,6.83,0,0,1-3,.38H9.21c-.06,0,0,.06,0,.11.22.11.39.28.61.39a10.11,10.11,0,0,0,2,.77,10.52,10.52,0,0,0,10.27-2.42A10.89,10.89,0,0,0,25,14.59c0-.11.11-.16.22-.22A5.6,5.6,0,0,0,26.57,13a.36.36,0,0,0,.11-.28h0C26.68,12.51,26.68,12.51,26.63,12.51Z"/></svg>