<svg xmlns="http://www.w3.org/2000/svg" viewBox="0 0 36 36"><defs><style>.a{fill-rule:evenodd;}</style></defs><title>SI-whatsapp</title><path class="a" d="M18.71,8.22a9.07,9.07,0,0,0-9.06,9.07,8.91,8.91,0,0,0,1.43,4.89l-1.38,3a.78.78,0,0,0,.72,1.1.32.32,0,0,0,.22-.06l3.79-1a9,9,0,1,0,4.28-17Zm0,16.54A6.81,6.81,0,0,1,15,23.71a1.15,1.15,0,0,0-.39-.11.32.32,0,0,0-.22.06l-2.47.66.88-1.92a.78.78,0,0,0,0-.77,7.33,7.33,0,0,1-1.43-4.34,7.47,7.47,0,1,1,14.94,0A7.55,7.55,0,0,1,18.71,24.76Z"/><path class="a" d="M22.18,18.66c-.39-.22-.88-.5-1.32-.28s-.55.66-.77.94a.36.36,0,0,1-.44.11,6.12,6.12,0,0,1-3-2.53.34.34,0,0,1,.06-.49,2.24,2.24,0,0,0,.55-.88,2.48,2.48,0,0,0-.22-1,2.47,2.47,0,0,0-.77-1.15,1,1,0,0,0-1.16.16,2.36,2.36,0,0,0-.82,1.82,2.43,2.43,0,0,0,0,.6,5.31,5.31,0,0,0,.55,1.27,5,5,0,0,0,.61.87,9.46,9.46,0,0,0,2.52,2.37,8.72,8.72,0,0,0,1.6.77,2.9,2.9,0,0,0,1.81.27,2.06,2.06,0,0,0,1.65-1.26,1.35,1.35,0,0,0,.05-.66C23.11,19.1,22.51,18.88,22.18,18.66Z"/></svg>