<?xml version="1.0" encoding="utf-8"?>
<!-- Generator: Adobe Illustrator 25.4.0, SVG Export Plug-In . SVG Version: 6.00 Build 0)  -->
<svg version="1.1" id="Layer_1" xmlns="http://www.w3.org/2000/svg" xmlns:xlink="http://www.w3.org/1999/xlink" x="0px" y="0px"
	 viewBox="0 0 36 36" style="enable-background:new 0 0 36 36;" xml:space="preserve">
<style type="text/css">
	.st0{fill:#010101;}
</style>
<path class="st0" d="M31.1,14.7c-0.6-2.9-5.1-2.7-8.4-2.6c-0.5,0-0.9,0-1.3,0c0.6-2.2,0.3-5-0.9-6.7c-0.8-1-1.8-1.5-3-1.2
	c-1.9,0.6-2,2.3-2.2,3.7c-0.2,1.7-0.3,3.3-2.6,4.4c-1.2-1-3.3-1.1-4.8-0.6c-1.4,0.5-2.2,1.6-2.2,2.9l0,11.1
	c-0.1,1.7,1.2,3.1,3.2,3.4c1.5,0.2,3.3-0.2,4.1-1.8c3.5,1,7.3,2,10.3,2c1.7,0,3.2-0.3,4.1-1.1c0.6-0.4,1.2-1.2,1.2-2.6
	c1.1-1,1.6-2.7,1.2-4c0.5-0.5,0.9-1.2,1-1.9c0.1-0.7,0.1-1.5-0.2-2.1C31.2,16.9,31.4,15.8,31.1,14.7z M9.2,27.7
	c-1-0.2-2-0.8-1.9-1.9l0-11.1c0-0.8,0.6-1.2,1.2-1.4c1.2-0.4,2.7-0.3,3.4,0.3v12.8C11.5,27.5,10.3,27.9,9.2,27.7z M13.4,25.9V13.8
	c3.1-1.4,3.3-3.8,3.5-5.6C17,6.6,17.1,6,17.9,5.7c0.2,0,0.8-0.2,1.4,0.7c1.1,1.5,1.3,4.5,0.4,6.2c-0.1,0.2-0.1,0.5,0,0.7
	c0.1,0.2,0.3,0.4,0.6,0.4c0.6,0.1,1.5,0,2.6,0c2.4-0.1,6.5-0.3,6.8,1.4c0,0,0,0.1,0,0.1c0.2,0.6,0,1.3-0.2,1.9h-3.5
	c-0.4,0-0.8,0.3-0.8,0.8s0.3,0.8,0.8,0.8h3.5c0.1,0.3,0.1,0.6,0,1c-0.1,0.5-0.4,1-0.7,1.2h-2.9c-0.4,0-0.8,0.3-0.8,0.8
	s0.3,0.8,0.8,0.8h2.7c0.2,0.8-0.2,1.8-0.8,2.4h-2.2c-0.4,0-0.8,0.3-0.8,0.8s0.3,0.8,0.8,0.8h1.7c-0.1,0.4-0.3,0.8-0.6,1
	C24.2,29,16.3,26.8,13.4,25.9z"/>
</svg>
