<?xml version="1.0" encoding="utf-8"?>
<!-- Generator: Adobe Illustrator 25.2.3, SVG Export Plug-In . SVG Version: 6.00 Build 0)  -->
<svg version="1.1" id="Layer_1" xmlns="http://www.w3.org/2000/svg" xmlns:xlink="http://www.w3.org/1999/xlink" x="0px" y="0px"
	 viewBox="0 0 36 36" style="enable-background:new 0 0 36 36;" xml:space="preserve">
<path d="M20.8,13.5h-9.2l4.6-3.9c0.4-0.4,0.5-1,0.1-1.4c-0.4-0.4-1-0.5-1.4-0.1l-6.5,5.5c-0.3,0.2-0.5,0.5-0.5,0.9l0,0l0,0
	c0,0.1,0,0.2,0.1,0.3v0.1c0.1,0.2,0.2,0.3,0.3,0.4l6.7,5.1c0.2,0.1,0.4,0.2,0.6,0.2c0.3,0,0.6-0.1,0.8-0.4c0.3-0.4,0.2-1.1-0.2-1.4
	l-4.4-3.3h9.1c2.9,0,5.3,2.4,5.3,5.3s-2.4,5.3-5.3,5.3h-3c-0.6,0-1,0.4-1,1s0.4,1,1,1h3c4,0,7.3-3.3,7.3-7.3S24.8,13.5,20.8,13.5z"
	/>
</svg>
