<?xml version="1.0" encoding="utf-8"?>
<!-- Generator: Adobe Illustrator 23.1.0, SVG Export Plug-In . SVG Version: 6.00 Build 0)  -->
<svg version="1.1" id="Layer_1" xmlns="http://www.w3.org/2000/svg" xmlns:xlink="http://www.w3.org/1999/xlink" x="0px" y="0px"
	 viewBox="0 0 36 36" style="enable-background:new 0 0 36 36;" xml:space="preserve">
<title>DP-detail</title>
<path d="M21.7,13.3h-6.2c-0.6,0-1,0.4-1,1s0.4,1,1,1h3.8l-5.1,5.1c-0.4,0.4-0.4,1,0,1.4c0.2,0.2,0.5,0.3,0.7,0.3s0.5-0.1,0.7-0.3
	l5.1-5.1v3.7c0,0.6,0.4,1,1,1s1-0.4,1-1v-6.1C22.7,13.8,22.2,13.3,21.7,13.3z"/>
<g>
	<path d="M24.4,27H11.6C10.2,27,9,25.8,9,24.4V11.6C9,10.2,10.2,9,11.6,9h12.8c1.4,0,2.6,1.2,2.6,2.6v12.8C27,25.8,25.8,27,24.4,27z
		 M11.6,11c-0.3,0-0.6,0.3-0.6,0.6v12.8c0,0.3,0.3,0.6,0.6,0.6h12.8c0.3,0,0.6-0.3,0.6-0.6V11.6c0-0.3-0.3-0.6-0.6-0.6H11.6z"/>
</g>
</svg>
