<?xml version="1.0" encoding="utf-8"?>
<!-- Generator: Adobe Illustrator 25.2.3, SVG Export Plug-In . SVG Version: 6.00 Build 0)  -->
<svg version="1.1" id="Layer_1" xmlns="http://www.w3.org/2000/svg" xmlns:xlink="http://www.w3.org/1999/xlink" x="0px" y="0px"
	 viewBox="0 0 36 36" style="enable-background:new 0 0 36 36;" xml:space="preserve">
<g>
	<path d="M26.2,6H9.8C7.7,6,6,7.7,6,9.8v16.5C6,28.3,7.7,30,9.8,30h16.5c2.1,0,3.8-1.7,3.8-3.8V9.8C30,7.7,28.3,6,26.2,6z M28,26.2
		c0,1-0.8,1.8-1.8,1.8H9.8c-1,0-1.8-0.8-1.8-1.8V9.8C8,8.8,8.8,8,9.8,8h16.5c1,0,1.8,0.8,1.8,1.8V26.2z"/>
	<path d="M17.5,21.2c-1,1.6-4.1,2.5-4-0.1c-0.2-1.5,2.7-2.4,1.5-3.8c-1.6-1.2-3.5,2.3-3.5,3.6c-0.4,3.8,4.5,5.1,6.7,2.4
		C19.8,22.4,19.3,20.2,17.5,21.2z"/>
	<path d="M18.3,12.7c-2.2,1.6-0.1,3.7,1.4,1.4c3-2.6,4.6,1.4,1.8,3.2c-0.9,0.9,0.5,2.3,1.4,1.4C27.8,15,23,8.3,18.3,12.7z"/>
	<path d="M18.9,15.9l-2.8,2.9c-0.9,0.9,0.5,2.3,1.4,1.4l2.8-2.9C21.3,16.4,19.8,15,18.9,15.9z"/>
</g>
</svg>
