<?xml version="1.0" encoding="utf-8"?>
<!-- Generator: Adobe Illustrator 25.4.0, SVG Export Plug-In . SVG Version: 6.00 Build 0)  -->
<svg version="1.1" id="Layer_1" xmlns="http://www.w3.org/2000/svg" xmlns:xlink="http://www.w3.org/1999/xlink" x="0px" y="0px"
	 viewBox="0 0 36 36" style="enable-background:new 0 0 36 36;" xml:space="preserve">
<path d="M17.9,31.8c-0.2,0-0.5-0.1-0.7-0.3l-5.3-5.3c-0.5-0.5-0.5-1,0-1.4c0.2-0.2,0.5-0.3,0.7-0.3c0.2,0,0.5,0.1,0.7,0.3l3.5,3.5
	v-9.4h-6.7c-2.2,0-4-1.8-4-4V8.2c0-2.2,1.8-4,4-4h15.6c2.1,0,4,1.8,4.1,4v6.7c0,2.2-1.8,4-4,4h-6.7v9.3l3.5-3.5
	c0.2-0.2,0.4-0.3,0.7-0.3c0.3,0,0.5,0.1,0.7,0.3c0.5,0.5,0.5,1,0,1.4l-5.4,5.4C18.4,31.7,18.2,31.8,17.9,31.8z M10.2,6.4
	c-1,0-1.7,0.8-1.7,1.7v6.7c0,1,0.8,1.7,1.7,1.7h15.6c0.9,0,1.7-0.7,1.7-1.6l0.1-0.1V8.2c0-1-0.8-1.7-1.7-1.7H10.2z"/>
</svg>
