<?xml version="1.0" encoding="utf-8"?>
<!-- Generator: Adobe Illustrator 25.2.3, SVG Export Plug-In . SVG Version: 6.00 Build 0)  -->
<svg version="1.1" id="Layer_1" xmlns="http://www.w3.org/2000/svg" xmlns:xlink="http://www.w3.org/1999/xlink" x="0px" y="0px"
	 viewBox="0 0 36 36" style="enable-background:new 0 0 36 36;" xml:space="preserve">
<g>
	<path d="M26.2,6H9.8C7.7,6,6,7.7,6,9.8v16.5C6,28.3,7.7,30,9.8,30h16.5c2.1,0,3.8-1.7,3.8-3.8V9.8C30,7.7,28.3,6,26.2,6z M28,26.2
		c0,1-0.8,1.8-1.8,1.8H9.8c-1,0-1.8-0.8-1.8-1.8V9.8C8,8.8,8.8,8,9.8,8h16.5c1,0,1.8,0.8,1.8,1.8V26.2z"/>
	<path d="M23.3,17c-0.6,0-1,0.4-1,1v3l-6.8-7.2H19c0.6,0,1-0.4,1-1c0-0.6-0.4-1-1-1h-4.9c-1.1,0-2,0.9-2,2v4.3c0,0.6,0.4,1,1,1
		c0.6,0,1-0.4,1-1v-2.8l6.6,6.9h-3.3c-0.6,0-1,0.4-1,1c0,0.6,0.4,1,1,1h4.9c1.1,0,2-0.9,2-2V18C24.3,17.4,23.9,17,23.3,17z"/>
</g>
</svg>
