<?xml version="1.0" encoding="utf-8"?>
<!-- Generator: Adobe Illustrator 25.4.0, SVG Export Plug-In . SVG Version: 6.00 Build 0)  -->
<svg version="1.1" id="Layer_1" xmlns="http://www.w3.org/2000/svg" xmlns:xlink="http://www.w3.org/1999/xlink" x="0px" y="0px"
	 viewBox="0 0 36 36" style="enable-background:new 0 0 36 36;" xml:space="preserve">
<path d="M29.3,15.1l-8.1-7.8c0,0-0.3-0.4-0.9-0.4H9.1c-1.6,0-2.9,1.3-2.9,2.9v16.4c0,1.6,1.3,2.9,2.9,2.9h17.7
	c1.6,0,2.9-1.3,2.9-2.9V15.8C29.7,15.8,29.8,15.4,29.3,15.1z M21.2,10.2l4.9,4.7h-4c-0.5,0-0.9-0.4-0.9-0.9V10.2z M26.6,27H9.1
	c-0.5,0-0.9-0.4-0.9-0.9V9.7c0-0.5,0.4-0.9,0.9-0.9h10.2v5.1c0,1.6,1.3,2.9,2.9,2.9h5.5V26C27.6,26.6,27.1,27,26.6,27z"/>
</svg>
