<?xml version="1.0" encoding="utf-8"?>
<!-- Generator: Adobe Illustrator 25.4.0, SVG Export Plug-In . SVG Version: 6.00 Build 0)  -->
<svg version="1.1" id="Layer_1" xmlns="http://www.w3.org/2000/svg" xmlns:xlink="http://www.w3.org/1999/xlink" x="0px" y="0px"
	 viewBox="0 0 36 36" style="enable-background:new 0 0 36 36;" xml:space="preserve">
<path d="M28.2,10.8h-2.5V9c0-1.4-1.1-2.5-2.5-2.5H8C6.6,6.5,5.5,7.6,5.5,9v13.7c0,1.4,1.1,2.5,2.5,2.5h2.2v2c0,1.3,1,2.3,2.3,2.3
	h14.6c1.9,0,3.4-1.5,3.4-3.4v-13C30.5,11.8,29.5,10.8,28.2,10.8z M6.9,22.7v-2.3c0.1,0,0.2,0,0.2,0h4.5c0.4,0,0.7-0.3,0.7-0.7
	c0-0.4-0.3-0.7-0.7-0.7H7.2c-0.1,0-0.2,0-0.2,0V17c0,0,0,0,0,0h8.9c0.4,0,0.7-0.3,0.7-0.7c0-0.4-0.3-0.7-0.7-0.7H6.9c0,0,0,0,0,0V13
	h11.5c0.4,0,0.7-0.3,0.7-0.7s-0.3-0.7-0.7-0.7H6.9V9c0-0.6,0.5-1.1,1.1-1.1h15.2c0.6,0,1.1,0.5,1.1,1.1v13.7c0,0.6-0.5,1.1-1.1,1.1
	H8C7.4,23.8,6.9,23.3,6.9,22.7z M29.1,26.1c0,1.1-0.9,2-2,2H12.5c-0.5,0-0.9-0.4-0.9-0.9v-2h11.6c1.4,0,2.5-1.1,2.5-2.5V12.2h2.5
	c0.5,0,0.9,0.4,0.9,0.9V26.1z"/>
</svg>
