<?xml version="1.0" encoding="utf-8"?>
<!-- Generator: Adobe Illustrator 25.2.3, SVG Export Plug-In . SVG Version: 6.00 Build 0)  -->
<svg version="1.1" id="Layer_1" xmlns="http://www.w3.org/2000/svg" xmlns:xlink="http://www.w3.org/1999/xlink" x="0px" y="0px"
	 viewBox="0 0 36 36" style="enable-background:new 0 0 36 36;" xml:space="preserve">
<g>
	<path d="M27.7,11.9H8.3c-0.6,0-1.1-0.5-1.1-1.1v0c0-0.6,0.5-1.1,1.1-1.1h19.4c0.6,0,1.1,0.5,1.1,1.1v0
		C28.8,11.4,28.3,11.9,27.7,11.9z"/>
	<path d="M27.7,19.1H8.3c-0.6,0-1.1-0.5-1.1-1.1v0c0-0.6,0.5-1.1,1.1-1.1h19.4c0.6,0,1.1,0.5,1.1,1.1v0
		C28.8,18.6,28.3,19.1,27.7,19.1z"/>
	<path d="M27.7,26.3H8.3c-0.6,0-1.1-0.5-1.1-1.1v0c0-0.6,0.5-1.1,1.1-1.1h19.4c0.6,0,1.1,0.5,1.1,1.1v0
		C28.8,25.8,28.3,26.3,27.7,26.3z"/>
</g>
</svg>
