<?xml version="1.0" encoding="utf-8"?>
<!-- Generator: Adobe Illustrator 25.2.3, SVG Export Plug-In . SVG Version: 6.00 Build 0)  -->
<svg version="1.1" id="Layer_1" xmlns="http://www.w3.org/2000/svg" xmlns:xlink="http://www.w3.org/1999/xlink" x="0px" y="0px"
	 viewBox="0 0 36 36" style="enable-background:new 0 0 36 36;" xml:space="preserve">
<path d="M32.3,15.7c-0.4-1.4-1.6-2.3-3.2-2.4H22c0.6-1.6,0.7-3.1,0.1-4.9c-0.9-3.2-2.9-4.7-4.5-4.7c-0.1,0-0.3,0-0.4,0
	c-0.6,0.1-2.4,0.8-1.9,4.5c0.2,2.6-2.2,4.4-4.3,5.5c-0.7-0.9-2.1-1.3-3.4-1.3c-0.5,0-1,0.1-1.4,0.2c-1.6,0.4-2.5,1.5-2.5,2.8v13.4
	c0,1.7,1.1,2.9,3,3.3c0.3,0.1,0.7,0.1,1,0.1c1.4,0,2.8-0.5,3.5-1.6c3.3,1.3,7,1.7,10.6,1.7c1.3,0,2.5,0,3.8-0.1
	c2.1-0.1,3.1-1.1,3.4-1.7c0.4-0.7,0.5-1.5,0.3-2.3c0.7-0.5,1.2-1.2,1.4-2.2c0.2-0.9,0.2-1.8-0.2-2.5c0.7-0.5,1.2-1.3,1.4-2.2
	c0.2-0.9,0-1.7-0.4-2.4C32.3,18.2,32.6,16.9,32.3,15.7z M9.5,29.5c-0.3,0.4-1,0.7-1.8,0.7c-0.2,0-0.4,0-0.6-0.1
	c-1.4-0.3-1.4-1-1.4-1.3V15.4c0-0.5,0.6-0.8,1-0.9c0.3-0.1,0.6-0.1,0.9-0.1c0.9,0,1.6,0.3,1.8,0.5c0.1,0.2,0.3,0.3,0.5,0.4v13.7
	C9.8,29.2,9.6,29.3,9.5,29.5z M30.2,17.4c-0.7,0.6-0.9,1.7-0.4,2.5c0.3,0.4,0.2,0.7,0.2,1c-0.1,0.4-0.3,0.8-0.6,1
	c-0.8,0.6-1.1,1.7-0.6,2.6c0.1,0.1,0.1,0.4,0,1.1c-0.1,0.4-0.3,0.7-0.6,1c-0.7,0.5-1,1.3-0.8,2.1c0.1,0.3,0,0.6-0.1,0.8
	c0,0,0,0,0,0.1c-0.1,0.2-0.6,0.6-1.7,0.6c0,0,0,0-0.1,0c-1.2,0.1-2.3,0.1-3.6,0.1c-4,0-7.2-0.5-9.9-1.6V15.5
	c4.7-2.5,5.5-5.4,5.4-7.4c0,0,0-0.1,0-0.1c-0.2-1.7,0.2-2.2,0.3-2.3c0,0,0,0,0,0c0.5,0,1.9,0.8,2.6,3.3c0,0,0,0.1,0,0.1
	c0.4,1.3,0.4,2.3-0.1,3.6c-0.2,0.6-0.1,1.3,0.2,1.8c0.4,0.5,1,0.9,1.6,0.9h7c0.5,0,1.1,0.2,1.3,0.9C30.5,16.8,30.3,17.3,30.2,17.4z"
	/>
</svg>
