<?xml version="1.0" encoding="utf-8"?>
<!-- Generator: Adobe Illustrator 25.2.3, SVG Export Plug-In . SVG Version: 6.00 Build 0)  -->
<svg version="1.1" id="Layer_1" xmlns="http://www.w3.org/2000/svg" xmlns:xlink="http://www.w3.org/1999/xlink" x="0px" y="0px"
	 viewBox="0 0 36 36" style="enable-background:new 0 0 36 36;" xml:space="preserve">
<style type="text/css">
	.st0{stroke:#000000;stroke-width:0.5;stroke-miterlimit:10;}
</style>
<path class="st0" d="M30.5,15.9c-0.6-3.3-6.9-1.8-9-2.1c1.6-3-1.2-9-4.2-8.4c-3.4,1.1,0.4,6.6-5.4,8.8c-1.5-1.9-6.5-1.3-6.4,1.5
	v11.8c-0.2,3.2,5,4,6.6,1.6c3.7,1.1,16.3,4.2,15.9-2.1c1.2-0.8,1.8-2.9,1.1-4.1c1.2-0.8,1.7-2.8,0.9-4
	C30.5,18.1,30.8,16.9,30.5,15.9z M10.5,28c-0.5,1.1-3.7,0.5-3.3-0.6V15.6c0.4-1.5,3.1-0.8,3.7-0.1v12C10.7,27.7,10.6,27.8,10.5,28z
	 M28.7,17.4c-1.5,1.1,0.7,2.9-0.7,4c-1.3,1-0.4,1.8-0.5,3.3c-0.3,1-1.7,1.5-1.2,2.7c0.1,0.3,0,0.5-0.1,0.7c0,0.3-0.5,0.6-1.5,0.6
	c-3.9,0.3-9,0-11.9-1.3V15.7c5.5-2.7,4.3-5.8,5-8.6l0,0c1.3-0.2,3.3,4.3,2.2,6.1c-0.2,0.5-0.1,1.1,0.2,1.6
	C21.1,17.1,29.8,13.6,28.7,17.4z"/>
</svg>
