<?xml version="1.0" encoding="utf-8"?>
<!-- Generator: Adobe Illustrator 25.4.0, SVG Export Plug-In . SVG Version: 6.00 Build 0)  -->
<svg version="1.1" id="Layer_1" xmlns="http://www.w3.org/2000/svg" xmlns:xlink="http://www.w3.org/1999/xlink" x="0px" y="0px"
	 viewBox="0 0 36 36" style="enable-background:new 0 0 36 36;" xml:space="preserve">
<path d="M30.9,14.2C30.9,14.1,30.9,14.1,30.9,14.2c-0.1-0.1-0.1-0.1-0.1-0.2c0,0,0,0,0,0L19.4,5.6c0,0,0,0,0,0
	c-0.1-0.1-0.2-0.1-0.3-0.1h-7.3c-1.2,0-2.1,1-2.1,2.1v1.6H7.1C6,9.2,5,10.2,5,11.3v17c0,1.2,1,2.1,2.1,2.1h17c1.2,0,2.1-1,2.1-2.1
	v-1.6h2.5c1.2,0,2.1-1,2.1-2.1V14.4C31,14.3,31,14.2,30.9,14.2z M19.6,7l9.3,6.9h-8.2c-0.6,0-1.1-0.5-1.1-1.1V7z M25.3,28.4
	c0,0.6-0.5,1.1-1.1,1.1h-17C6.5,29.5,6,29,6,28.4v-17c0-0.6,0.5-1.1,1.1-1.1h2.5v14.4c0,1.2,1,2.1,2.1,2.1h13.5V28.4z M28.9,25.8
	h-17c-0.6,0-1.1-0.5-1.1-1.1v-17c0-0.6,0.5-1.1,1.1-1.1h6.8v6.2c0,1.2,1,2.1,2.1,2.1H30v9.8C30,25.3,29.5,25.8,28.9,25.8z"/>
</svg>
