<?xml version="1.0" encoding="utf-8"?>
<!-- Generator: Adobe Illustrator 26.0.2, SVG Export Plug-In . SVG Version: 6.00 Build 0)  -->
<svg version="1.1" id="Layer_1" xmlns="http://www.w3.org/2000/svg" xmlns:xlink="http://www.w3.org/1999/xlink" x="0px" y="0px"
	 viewBox="0 0 36 36" style="enable-background:new 0 0 36 36;" xml:space="preserve">
<g>
	<g>
		<path d="M27.8,29.9H8.2c-1.7,0-3.1-1.4-3.1-3.1V14.7c0-1.7,1.4-3.1,3.1-3.1h10.2l-1-4.3c-0.1-0.4,0.1-0.9,0.5-1.1
			c0.4-0.2,0.9-0.2,1.2,0.2l4.9,4.9c0.2,0.2,0.5,0.4,0.9,0.4h2.9c1.7,0,3.1,1.4,3.1,3.1v12.1C30.9,28.5,29.5,29.9,27.8,29.9z
			 M8.2,12.6c-1.1,0-2.1,0.9-2.1,2.1v12.1c0,1.1,0.9,2.1,2.1,2.1h19.6c1.1,0,2.1-0.9,2.1-2.1V14.7c0-1.1-0.9-2.1-2.1-2.1h-2.9
			c-0.6,0-1.1-0.2-1.6-0.6l-4.9-4.9l1,4.3c0.1,0.3,0,0.6-0.2,0.8c-0.2,0.2-0.5,0.4-0.8,0.4H8.2z"/>
	</g>
	<g>
		<path d="M25.5,21.8H14.7c-0.3,0-0.5-0.2-0.5-0.5s0.2-0.5,0.5-0.5h10.8c0.3,0,0.5,0.2,0.5,0.5S25.8,21.8,25.5,21.8z"/>
	</g>
	<g>
		<path d="M25.5,25.5H10.5c-0.3,0-0.5-0.2-0.5-0.5s0.2-0.5,0.5-0.5h15.1c0.3,0,0.5,0.2,0.5,0.5S25.8,25.5,25.5,25.5z"/>
	</g>
	<g>
		<path d="M25.5,18.1h-6.2c-0.3,0-0.5-0.2-0.5-0.5s0.2-0.5,0.5-0.5h6.2c0.3,0,0.5,0.2,0.5,0.5S25.8,18.1,25.5,18.1z"/>
	</g>
</g>
</svg>
