<?xml version="1.0" encoding="utf-8"?>
<!-- Generator: Adobe Illustrator 25.2.3, SVG Export Plug-In . SVG Version: 6.00 Build 0)  -->
<svg version="1.1" id="Layer_1" xmlns="http://www.w3.org/2000/svg" xmlns:xlink="http://www.w3.org/1999/xlink" x="0px" y="0px"
	 viewBox="0 0 36 36" style="enable-background:new 0 0 36 36;" xml:space="preserve">
<path d="M26.7,10.4c-0.3-0.3-0.8-0.4-1.2-0.2l0,0L9.7,17c-0.5,0.2-0.8,0.9-0.6,1.4c0,0,0,0,0,0c0.1,0.2,0.3,0.4,0.5,0.5l4.2,2V25
	c0,0.5,0.3,0.9,0.8,1c0.1,0,0.2,0,0.4,0c0.4,0,0.7-0.2,0.9-0.5l2-2.7l2,1c0.2,0.1,0.5,0.2,0.7,0.2c0.2,0,0.4,0,0.5-0.1
	c0.4-0.1,0.7-0.4,0.9-0.8l5-11.5C27.1,11.2,27,10.7,26.7,10.4z M10,18C10,17.9,10,17.9,10,18l14.7-6.4l-10.5,8.5l-4.1-2
	C10,18,10,18,10,18z M15,25.1c0,0-0.1,0-0.1,0c0,0,0,0,0-0.1v-3.6l2.1,1L15,25.1z M21,22.7c-0.1,0.3-0.4,0.4-0.7,0.3l0,0l-5-2.4
	l10.3-8.5L21,22.7z"/>
</svg>
