<?xml version="1.0" encoding="utf-8"?>
<!-- Generator: Adobe Illustrator 25.2.3, SVG Export Plug-In . SVG Version: 6.00 Build 0)  -->
<svg version="1.1" id="Layer_1" xmlns="http://www.w3.org/2000/svg" xmlns:xlink="http://www.w3.org/1999/xlink" x="0px" y="0px"
	 viewBox="0 0 36 36" style="enable-background:new 0 0 36 36;" xml:space="preserve">
<path d="M9.8,24.9h11.7c1.3,0,1.3-2,0-2H9.8C8.5,23,8.5,24.9,9.8,24.9z"/>
<path d="M32.6,15.8c0-0.3-0.1-0.6-0.3-0.7L32.2,15l-8-7.7h-0.1c-0.2-0.3-0.5-0.4-0.8-0.4H7.1c-1.6,0-2.9,1.3-2.9,2.9v16.4
	c0,1.6,1.3,2.9,2.9,2.9h22.7c1.6,0,2.9-1.3,2.9-2.9V15.8H32.6L32.6,15.8z M24.2,10.2l4.9,4.7h-4c-0.5,0-0.9-0.4-0.9-0.9V10.2z
	 M29.6,27H7.1c-0.5,0-0.9-0.4-0.9-0.9V9.7c0-0.5,0.4-0.9,0.9-0.9h15.2v5.1c0,1.6,1.3,2.9,2.9,2.9h5.5V26C30.6,26.6,30.1,27,29.6,27z
	"/>
<path d="M9.8,16.7h6.7c1.3,0,1.3-2,0-2H9.8C8.5,14.8,8.5,16.7,9.8,16.7z"/>
<path d="M9.8,20.8h9.7c1.3,0,1.3-2,0-2H9.8C8.5,18.9,8.5,20.8,9.8,20.8z"/>
</svg>
