<?xml version="1.0" encoding="utf-8"?>
<!-- Generator: Adobe Illustrator 25.2.3, SVG Export Plug-In . SVG Version: 6.00 Build 0)  -->
<svg version="1.1" id="Layer_1" xmlns="http://www.w3.org/2000/svg" xmlns:xlink="http://www.w3.org/1999/xlink" x="0px" y="0px"
	 viewBox="0 0 36 36" style="enable-background:new 0 0 36 36;" xml:space="preserve">
<g>
	<path d="M26.2,6H9.8C7.7,6,6,7.7,6,9.8v16.5c0,2,1.7,3.7,3.8,3.7h16.5c2.1,0,3.8-1.7,3.8-3.8V9.8C30,7.7,28.2,6,26.2,6z M28,26.2
		c0,1-0.8,1.8-1.8,1.8H9.8c-1,0-1.8-0.8-1.8-1.8V9.8C8,8.8,8.8,8,9.8,8h16.5c1,0,1.8,0.8,1.8,1.8L28,26.2L28,26.2z"/>
</g>
<g>
	<path d="M11.9,18.9h8.8c1.1,0,1.1-1.7,0-1.7h-8.8C10.8,17.3,10.8,18.9,11.9,18.9z"/>
</g>
<g>
	<path d="M11.9,22.8h12.3c1.1,0,1.1-1.8,0-1.8H11.9C10.7,21.1,10.7,22.8,11.9,22.8z"/>
</g>
<g>
	<path d="M11.9,15.1h5.8c1.1,0,1.1-1.7,0-1.7h-5.8C10.8,13.5,10.8,15.1,11.9,15.1z"/>
</g>
</svg>
