<?xml version="1.0" encoding="utf-8"?>
<!-- Generator: Adobe Illustrator 26.0.2, SVG Export Plug-In . SVG Version: 6.00 Build 0)  -->
<svg version="1.1" id="Layer_1" xmlns="http://www.w3.org/2000/svg" xmlns:xlink="http://www.w3.org/1999/xlink" x="0px" y="0px"
	 viewBox="0 0 36 36" style="enable-background:new 0 0 36 36;" xml:space="preserve">
<g>
	<g>
		<path d="M26.2,6H9.8C7.7,6,6,7.7,6,9.8v16.5c0,2,1.7,3.7,3.8,3.7h16.5c2.1,0,3.8-1.7,3.8-3.8V9.8C30,7.7,28.2,6,26.2,6z M28,26.2
			c0,1-0.8,1.8-1.8,1.8H9.8c-1,0-1.8-0.8-1.8-1.8V9.8C8,8.8,8.8,8,9.8,8h16.5c1,0,1.8,0.8,1.8,1.8L28,26.2L28,26.2z"/>
	</g>
	<g>
		<path d="M13,19.2c-0.5,0-0.8-0.3-0.8-0.8v-5.5c0-0.5,0.3-0.8,0.8-0.8h5.4c0.5,0,0.8,0.3,0.8,0.8s-0.3,0.8-0.8,0.8h-4.6v4.7
			C13.8,18.9,13.4,19.2,13,19.2z"/>
	</g>
	<g>
		<path d="M23.2,23.8h-5.4c-0.5,0-0.8-0.3-0.8-0.8s0.3-0.8,0.8-0.8h4.6v-4.6c0-0.5,0.3-0.8,0.8-0.8s0.8,0.3,0.8,0.8V23
			C24.1,23.5,23.8,23.8,23.2,23.8z"/>
	</g>
</g>
</svg>
