<?xml version="1.0" encoding="utf-8"?>
<!-- Generator: Adobe Illustrator 25.2.3, SVG Export Plug-In . SVG Version: 6.00 Build 0)  -->
<svg version="1.1" id="Layer_1" xmlns="http://www.w3.org/2000/svg" xmlns:xlink="http://www.w3.org/1999/xlink" x="0px" y="0px"
	 viewBox="0 0 36 36" style="enable-background:new 0 0 36 36;" xml:space="preserve">
<path d="M32.3,15.7c-0.7-3.7-7.8-2.1-10.3-2.4c1.8-3.4-1.4-10.3-4.8-9.6c-3.9,1.2,0.5,7.5-6.2,10c-1.7-2.2-7.4-1.5-7.3,1.7
	c0,0,0,13.4,0,13.4c-0.2,3.6,5.7,4.6,7.5,1.8c4.2,1.2,18.5,4.8,18.1-2.4c1.4-0.9,2-3.3,1.2-4.7c1.4-0.9,1.9-3.2,1-4.6
	C32.3,18.2,32.6,16.9,32.3,15.7z M9.5,29.5c-0.6,1.2-4.2,0.6-3.8-0.7c0,0,0-13.4,0-13.4c0.5-1.7,3.5-0.9,4.2-0.1V29
	C9.8,29.2,9.6,29.3,9.5,29.5z M30.2,17.4c-1.7,1.2,0.8,3.3-0.8,4.5C27.9,23,29,24,28.8,25.6c-0.3,1.1-1.9,1.7-1.4,3.1
	c0.1,0.3,0,0.6-0.1,0.8c0,0.3-0.6,0.7-1.7,0.7c-4.4,0.3-10.2,0-13.6-1.5V15.5c6.3-3.1,4.9-6.6,5.7-9.8l0,0c1.5-0.2,3.8,4.9,2.5,7
	c-0.2,0.6-0.1,1.3,0.2,1.8C21.6,17.1,31.5,13.1,30.2,17.4z"/>
</svg>
