<?xml version="1.0" encoding="utf-8"?>
<!-- Generator: Adobe Illustrator 25.2.3, SVG Export Plug-In . SVG Version: 6.00 Build 0)  -->
<svg version="1.1" id="Layer_1" xmlns="http://www.w3.org/2000/svg" xmlns:xlink="http://www.w3.org/1999/xlink" x="0px" y="0px"
	 viewBox="0 0 36 36" style="enable-background:new 0 0 36 36;" xml:space="preserve">
<g>
	<path d="M12.1,18.4h5.7c1.3,0,1.3-2,0-2h-5.7C10.8,16.5,10.8,18.4,12.1,18.4z"/>
	<path d="M20.7,24.8h-8.4c-1.3,0-1.3,2,0,2h8.4C22,26.8,22,24.8,20.7,24.8z"/>
	<path d="M12.1,22.6h7.3c1.3,0,1.3-2,0-2h-7.3C10.8,20.6,10.8,22.6,12.1,22.6z"/>
	<path d="M28.8,13.4c0-0.3-0.1-0.6-0.3-0.7l-0.1-0.1l-8-7.7h-0.1c-0.2-0.3-0.5-0.4-0.8-0.4h-9.2c-1.6,0-2.9,1.3-2.9,2.9v21.4
		c0,1.6,1.3,2.9,2.9,2.9H26c1.6,0,2.9-1.3,2.9-2.9V13.4H28.8L28.8,13.4z M20.4,7.8l4.9,4.7h-4c-0.5,0-0.9-0.4-0.9-0.9V7.8z
		 M25.8,29.6H10.2c-0.5,0-0.9-0.4-0.9-0.9V7.3c0-0.5,0.4-0.9,0.9-0.9h8.2v5.1c0,1.6,1.3,2.9,2.9,2.9h5.5v14.2
		C26.8,29.2,26.3,29.6,25.8,29.6z"/>
</g>
</svg>
