<?xml version="1.0" encoding="utf-8"?>
<!-- Generator: Adobe Illustrator 25.2.3, SVG Export Plug-In . SVG Version: 6.00 Build 0)  -->
<svg version="1.1" id="Layer_1" xmlns="http://www.w3.org/2000/svg" xmlns:xlink="http://www.w3.org/1999/xlink" x="0px" y="0px"
	 viewBox="0 0 36 36" style="enable-background:new 0 0 36 36;" xml:space="preserve">
<g>
	<path d="M18,6C11.4,6,6,11.4,6,18s5.4,12,12,12s12-5.4,12-12S24.6,6,18,6z M18,28c-5.5,0-10-4.5-10-10S12.5,8,18,8s10,4.5,10,10
		S23.5,28,18,28z"/>
	<path d="M17.5,21.2c-1,1.6-4.1,2.5-4-0.1c-0.2-1.5,2.7-2.4,1.5-3.8c-1.6-1.2-3.5,2.3-3.5,3.6c-0.4,3.8,4.5,5.1,6.7,2.4
		C19.8,22.4,19.3,20.2,17.5,21.2z"/>
	<path d="M18.3,12.7c-2.2,1.6-0.1,3.7,1.4,1.4c3-2.6,4.6,1.4,1.8,3.2c-0.9,0.9,0.5,2.3,1.4,1.4C27.8,15,23,8.3,18.3,12.7z"/>
	<path d="M18.9,15.9l-2.8,2.9c-0.9,0.9,0.5,2.3,1.4,1.4l2.8-2.9C21.3,16.4,19.8,15,18.9,15.9z"/>
</g>
</svg>
