<?xml version="1.0" encoding="utf-8"?>
<!-- Generator: Adobe Illustrator 23.1.0, SVG Export Plug-In . SVG Version: 6.00 Build 0)  -->
<svg version="1.1" id="Layer_1" xmlns="http://www.w3.org/2000/svg" xmlns:xlink="http://www.w3.org/1999/xlink" x="0px" y="0px"
	 viewBox="0 0 36 36" style="enable-background:new 0 0 36 36;" xml:space="preserve">
<title>DP-preview</title>
<g>
	<path d="M30.1,16.8h-3v-5.2c0-1.5-1.2-2.8-2.8-2.8H11.6c-1.5,0-2.8,1.2-2.8,2.8V17h-3c-0.6,0-1,0.4-1,1s0.4,1,1,1h3v5.4
		c0,1.5,1.2,2.8,2.8,2.8h12.7c1.5,0,2.8-1.2,2.8-2.8v-5.5h3c0.6,0,1-0.4,1-1S30.7,16.8,30.1,16.8z M25.1,24.4c0,0.4-0.3,0.8-0.8,0.8
		H11.6c-0.4,0-0.8-0.3-0.8-0.8V11.6c0-0.4,0.3-0.8,0.8-0.8h12.7c0.4,0,0.8,0.3,0.8,0.8C25.1,11.6,25.1,24.4,25.1,24.4z"/>
	<path d="M18,14.7c-2.7,0-5.7,2.9-5.7,3.3s3,3.3,5.7,3.3s5.7-2.9,5.7-3.3S20.7,14.7,18,14.7z M14.7,18c0.7-0.6,2-1.4,3.3-1.4
		s2.5,0.8,3.3,1.4c-0.7,0.6-2,1.4-3.3,1.4S15.5,18.6,14.7,18z"/>
</g>
</svg>
