<?xml version="1.0" encoding="utf-8"?>
<!-- Generator: Adobe Illustrator 25.2.3, SVG Export Plug-In . SVG Version: 6.00 Build 0)  -->
<svg version="1.1" id="Layer_1" xmlns="http://www.w3.org/2000/svg" xmlns:xlink="http://www.w3.org/1999/xlink" x="0px" y="0px"
	 viewBox="0 0 36 36" style="enable-background:new 0 0 36 36;" xml:space="preserve">
<g>
	<path d="M18,31.5c-7.4,0-13.5-6.1-13.5-13.5S10.6,4.5,18,4.5S31.5,10.6,31.5,18S25.4,31.5,18,31.5z M18,5.9
		C11.2,5.9,5.9,11.2,5.9,18S11.2,30.1,18,30.1S30.1,24.8,30.1,18S24.8,5.9,18,5.9z"/>
</g>
<g>
	<g>
		<path d="M22.2,19.6c-0.3,0-0.5-0.1-0.7-0.4c-0.2-0.4-0.1-0.8,0.3-1l3.2-1.9c0.5-0.3,0.8-0.7,1-1.3s0.1-1.1-0.2-1.6
			c-0.3-0.5-0.7-0.8-1.3-1c-0.5-0.1-1.1-0.1-1.6,0.2l-3.2,1.9c-0.4,0.2-0.8,0.1-1-0.3c-0.2-0.4-0.1-0.8,0.3-1l3.2-1.9
			c0.8-0.5,1.8-0.6,2.8-0.4c0.9,0.3,1.7,0.9,2.2,1.7s0.6,1.8,0.4,2.8c-0.3,0.9-0.9,1.7-1.7,2.2l-3.2,1.9
			C22.5,19.6,22.3,19.6,22.2,19.6z"/>
	</g>
	<g>
		<path d="M12,25.1c-1.3,0-2.5-0.7-3.2-1.8c-1-1.7-0.4-4,1.3-5l3.2-1.9c0.4-0.2,0.8-0.1,1,0.3s0.1,0.8-0.3,1l-3.2,1.9
			c-0.5,0.3-0.8,0.7-1,1.3C9.7,21.5,9.7,22,10,22.5c0.6,1,1.9,1.4,2.9,0.8l3.2-1.9c0.4-0.2,0.8-0.1,1,0.3s0.1,0.8-0.3,1l-3.2,1.9
			C13.3,24.9,12.6,25.1,12,25.1z"/>
	</g>
	<g>
		<path d="M12.4,22c-0.3,0-0.5-0.1-0.6-0.4c-0.2-0.4-0.1-0.8,0.3-1L23.5,14c0.4-0.2,0.8-0.1,1,0.3c0.2,0.4,0.1,0.8-0.3,1l-11.5,6.6
			C12.6,22,12.5,22,12.4,22z"/>
	</g>
</g>
</svg>
