<?xml version="1.0" encoding="utf-8"?>
<!-- Generator: Adobe Illustrator 25.2.3, SVG Export Plug-In . SVG Version: 6.00 Build 0)  -->
<svg version="1.1" id="Layer_1" xmlns="http://www.w3.org/2000/svg" xmlns:xlink="http://www.w3.org/1999/xlink" x="0px" y="0px"
	 viewBox="0 0 36 36" style="enable-background:new 0 0 36 36;" xml:space="preserve">
<path d="M29.6,7.9L29.6,7.9c-0.5-0.5-1.3-0.6-2-0.4L7.1,16.6c-0.4,0.3-0.6,0.6-0.9,1.1c-0.2,0.4-0.3,0.9,0,1.3
	c0.2,0.3,0.5,0.5,0.7,0.6l5.3,2.5v5c0,0.7,0.5,1.4,1.3,1.6h0.5c0.6,0,1.1-0.3,1.4-0.7l2.5-3.2l2.3,1.2c0.3,0.2,0.7,0.3,1.1,0.3
	c0.4,0,0.5,0,0.7-0.2c0.5-0.2,1.1-0.5,1.3-1.2l6.5-15C30.2,9.1,29.9,8.6,29.6,7.9z M16.1,24l-2,2.6v-3.5L16.1,24z M27.1,11.6
	l-5.5,12.6l0,0c-0.2,0.3-0.4,0.3-0.5,0.3l-6-2.9L27.1,11.6z M24.6,11.1L13,20.5l-4.6-2.3L24.6,11.1z"/>
</svg>
