<?xml version="1.0" encoding="utf-8"?>
<!-- Generator: Adobe Illustrator 26.0.2, SVG Export Plug-In . SVG Version: 6.00 Build 0)  -->
<svg version="1.1" id="Layer_1" xmlns="http://www.w3.org/2000/svg" xmlns:xlink="http://www.w3.org/1999/xlink" x="0px" y="0px"
	 viewBox="0 0 36 36" style="enable-background:new 0 0 36 36;" xml:space="preserve">
<g>
	<g>
		<g>
			<path d="M26.2,6H9.8C7.7,6,6,7.7,6,9.8v16.5c0,2,1.7,3.7,3.8,3.7h16.5c2.1,0,3.8-1.7,3.8-3.8V9.8C30,7.7,28.2,6,26.2,6z M28,26.2
				c0,1-0.8,1.8-1.8,1.8H9.8c-1,0-1.8-0.8-1.8-1.8V9.8C8,8.8,8.8,8,9.8,8h16.5c1,0,1.8,0.8,1.8,1.8L28,26.2L28,26.2z"/>
		</g>
	</g>
</g>
<g>
	<g>
		<path d="M23.2,17.2c-0.2,0-0.4-0.1-0.6-0.2c0,0-2.1-2-4.6-2s-4.6,2-4.6,2c-0.3,0.3-0.8,0.2-1.1-0.1c-0.3-0.3-0.2-0.8,0.1-1.1
			c0.1-0.1,2.5-2.4,5.6-2.4s5.6,2.3,5.7,2.4c0.3,0.3,0.3,0.8,0.1,1.1C23.6,17.2,23.4,17.2,23.2,17.2z"/>
	</g>
	<g>
		<path d="M18.1,22.6c-3.1,0-5.6-2.3-5.7-2.4c-0.3-0.3-0.3-0.8-0.1-1.1c0.3-0.3,0.8-0.3,1.1-0.1l0,0c0,0,2.1,2,4.6,2s4.6-2,4.6-2
			c0.3-0.3,0.8-0.2,1.1,0.1c0.3,0.3,0.2,0.8-0.1,1.1C23.6,20.2,21.1,22.6,18.1,22.6z"/>
	</g>
</g>
</svg>
