<?xml version="1.0" encoding="utf-8"?>
<!-- Generator: Adobe Illustrator 25.4.0, SVG Export Plug-In . SVG Version: 6.00 Build 0)  -->
<svg version="1.1" id="Layer_1" xmlns="http://www.w3.org/2000/svg" xmlns:xlink="http://www.w3.org/1999/xlink" x="0px" y="0px"
	 viewBox="0 0 36 36" style="enable-background:new 0 0 36 36;" xml:space="preserve">
<path d="M30.2,20.4C30.2,20.4,30.2,20.4,30.2,20.4c0.4-0.3,0.9-0.9,0.8-2.5c-0.1-1.9-2.1-2.7-3.3-2.8l-3.9,0c-0.1,0-0.2,0-0.2-0.1
	c-0.1-0.2,0.4-0.9,0.6-1.2l0.1-0.1c0.1-0.1,0.2-0.2,0.3-0.4c0.5-0.6,1.2-1.5,1.3-3.5c0.2-2.6-1.2-4.2-2.2-4.3
	c-1.4-0.1-2.4,0.9-2.6,2.5c-0.2,1.9-1.8,3.3-2.8,4c-1,0.7-2.3,2.8-3.3,4.5c-0.7,1.2-1.4,1.3-1.6,1.3l-0.5,0
	c-0.2-0.6-0.7-0.9-1.3-0.9H6.4c-0.8,0-1.4,0.6-1.4,1.4v10.8c0,0.8,0.6,1.4,1.4,1.4h5.1c0.6,0,1.1-0.4,1.3-0.9c0.4,0,0.5,0.1,0.5,0.1
	c0.3,0.6,0.9,0.8,1.3,0.8h11c1.8,0,3-0.4,3.5-1.2c0.5-0.8,0.2-1.7,0-2.1c0.6-0.4,1-0.9,1.1-1.5c0.1-0.6-0.2-1.2-0.4-1.5
	c0.4-0.2,1-0.7,1.1-1.9C30.9,21.2,30.6,20.7,30.2,20.4z M11.5,29.5H6.4c-0.2,0-0.4-0.2-0.4-0.4V18.3c0-0.2,0.2-0.4,0.4-0.4h5.1
	c0.2,0,0.4,0.2,0.4,0.4v0v10.7C11.9,29.3,11.7,29.5,11.5,29.5z M29.6,21.2c0.2,0.1,0.3,0.3,0.2,1c-0.1,1-0.6,1.2-0.6,1.2l-0.5,0.1
	c-0.2,0-0.3,0.2-0.4,0.4c0,0.2,0,0.4,0.1,0.5l0.3,0.3c0.1,0.2,0.4,0.6,0.4,0.9c0,0.4-0.4,0.7-0.8,0.9l-0.2,0.1
	c-0.2,0.1-0.3,0.4-0.2,0.7l0.1,0.2c0,0,0.4,0.8,0.1,1.3c-0.3,0.5-1.2,0.8-2.6,0.8h-11c-0.1,0-0.3-0.1-0.4-0.2
	c-0.2-0.6-0.9-0.7-1.3-0.7v-9.8l0.3,0c0.3,0,1.6,0.1,2.7-1.8c0.5-0.9,2.1-3.5,3-4.2c1.1-0.8,3-2.4,3.2-4.8c0.1-0.6,0.3-1.6,1.4-1.6
	l0.1,0c0.3,0,1.4,1.1,1.3,3.2c-0.1,1.7-0.6,2.4-1.1,3c-0.1,0.1-0.2,0.3-0.3,0.4l-0.1,0.1c-0.5,0.7-1,1.5-0.7,2.3
	c0.1,0.2,0.4,0.6,1.2,0.6c0,0,0,0,0,0l3.8,0c0.1,0,2.2,0.3,2.3,1.9c0.1,1.3-0.3,1.5-0.4,1.6c-0.1,0.1-0.5,0.3-0.5,0.8
	C29.1,20.8,29.4,21.1,29.6,21.2z"/>
</svg>
