<?xml version="1.0" encoding="utf-8"?>
<!-- Generator: Adobe Illustrator 25.2.3, SVG Export Plug-In . SVG Version: 6.00 Build 0)  -->
<svg version="1.1" id="Layer_1" xmlns="http://www.w3.org/2000/svg" xmlns:xlink="http://www.w3.org/1999/xlink" x="0px" y="0px"
	 viewBox="0 0 36 36" style="enable-background:new 0 0 36 36;" xml:space="preserve">
<path d="M25.9,8.8h-7.1c-0.6,0-1,0.4-1,1c0,0.6,0.4,1,1,1h4.3c0.3,0,0.9,0.2,0.3,0.7c-1.4,1.3-3.4,3.2-5.3,5l-5.2-5.2
	c-0.6-0.6-1.3-0.9-2.1-0.9h0c-1.7,0-3,1.4-3,3v12.2c0,1.7,1.4,3,3,3h12.2c1.2,0,2.3-0.7,2.8-1.9c0.5-1.1,0.2-2.4-0.7-3.3l-5.6-5.6
	c2.1-1.9,4.1-3.9,5.4-5.2c0.2-0.2,0.6-0.4,0.6,0.5v4.3c0,0.6,0.4,1,1,1s1-0.4,1-1v-7.1C27.5,9.5,26.7,8.8,25.9,8.8z M23.6,24.9
	c0.7,0.7,0.2,1.8-0.7,1.8H10.7c-0.6,0-1-0.5-1-1V13.4c0-0.6,0.5-1,1-1c0.3,0,0.5,0.1,0.7,0.3l5.2,5.2l1.4,1.4L23.6,24.9z"/>
</svg>
