<svg xmlns="http://www.w3.org/2000/svg" viewBox="0 0 36 36"><title>WA-project</title><path d="M34.34,19.13l-2.5-1.08a3.52,3.52,0,0,1-2.17-2.54L29.72,1a1.1,1.1,0,0,0-.4-.74,1.11,1.11,0,0,0-.77-.25L10.87,0A3.79,3.79,0,0,0,6.79,3.32L5.17,3.4A3.79,3.79,0,0,0,1.09,6.71L1,32.69A3.73,3.73,0,0,0,5,36l20.18,0a4,4,0,0,0,4.08-3.31V32.6h1.62A3.74,3.74,0,0,0,35,29.29V27l0-7A1,1,0,0,0,34.34,19.13ZM7.67,5.49H17v15L12.94,16.9a.89.89,0,0,0-1.18,0L7.67,20.52ZM26.93,32.61a1.51,1.51,0,0,1-1.69,1.29L5,33.86a1.5,1.5,0,0,1-1.63-1.24L3.42,6.77A1.53,1.53,0,0,1,5.08,5.48h.8V20.6a2.47,2.47,0,0,0,.28,1.27,1.5,1.5,0,0,0,1,.72,3.76,3.76,0,0,0,1.14-.21l.14-.1,4-3.51,4,3.51a.46.46,0,0,0,.14.1,1.55,1.55,0,0,0,1.16.18,1.51,1.51,0,0,0,.92-.71,2.44,2.44,0,0,0,.27-1.25V5.51h2.85l0,13.45a5.57,5.57,0,0,0,3.5,4.36l1.83.78Zm5.7-3.39a1.52,1.52,0,0,1-1.69,1.29H29.27l0-7.08a1,1,0,0,0-.67-.92l-2.49-1.07A3.51,3.51,0,0,1,24,18.89L24,4.42a1.12,1.12,0,0,0-1.17-1l-13.72,0v0A1.54,1.54,0,0,1,10.81,2.1l16.56,0,0,13.44a5.55,5.55,0,0,0,3.5,4.36l1.83.79Z"/></svg>