<svg xmlns="http://www.w3.org/2000/svg" viewBox="0 0 36 36"><title>WA-smile</title><path d="M25.28,2.5a8.23,8.23,0,0,1,8.22,8.22V25.28a8.23,8.23,0,0,1-8.22,8.22H10.72A8.23,8.23,0,0,1,2.5,25.28V10.72A8.23,8.23,0,0,1,10.72,2.5H25.28m0-2.5H10.72A10.72,10.72,0,0,0,0,10.72V25.28A10.72,10.72,0,0,0,10.72,36H25.28A10.72,10.72,0,0,0,36,25.28V10.72A10.72,10.72,0,0,0,25.28,0Z"/><circle cx="12.16" cy="13.76" r="2.31"/><circle cx="23.84" cy="13.76" r="2.31"/><path d="M23.42,20.43H12.58a1.79,1.79,0,0,0-1.44.68,1.92,1.92,0,0,0-.42,1.48,7.38,7.38,0,0,0,14.56,0,1.94,1.94,0,0,0-.42-1.48A1.82,1.82,0,0,0,23.42,20.43ZM12.58,22.28l10.88,0a5.13,5.13,0,0,1-.5,1.52,38.8,38.8,0,0,1-4.92.3,39.08,39.08,0,0,1-4.93-.3,4.23,4.23,0,0,1-.53-1.48Z"/></svg>