<?xml version="1.0" encoding="utf-8"?>
<!-- Generator: Adobe Illustrator 25.2.3, SVG Export Plug-In . SVG Version: 6.00 Build 0)  -->
<svg version="1.1" id="Layer_1" xmlns="http://www.w3.org/2000/svg" xmlns:xlink="http://www.w3.org/1999/xlink" x="0px" y="0px"
	 viewBox="0 0 40 80" style="enable-background:new 0 0 40 80;" xml:space="preserve">
<style type="text/css">
	.st0{fill:#010101;}
</style>
<path class="st0" d="M33.8,53.2v-6.1c0-0.1,0.1-2.6-1.5-4.3c-1-1-2.3-1.5-4-1.5l0,0v-3.1h1.4c2.3,0,4.1-1.8,4.1-4.1V18.9
	c4.2-1.2,3.3-7.9-1.2-7.8c-4.7-0.1-5.4,7.2-0.8,7.9v15c0,1.2-0.9,2.1-2.1,2.1h-1.4v-2.3c0-1.5-1.2-2.7-2.7-2.7h-5v-2.9
	c0.6-3.3-3.4-6.1-5.2-5.5h-4c-0.9-4.4-8-3.6-7.9,1c-0.1,4.6,6.8,5.4,7.9,1h4.1c1.1-0.4,3.6,1.4,3.2,3.5v2.9h-5.3
	c-1.5,0-2.7,1.2-2.7,2.7v5h-0.3c-5.1,0-5.8,2.7-5.9,5.7v7.3c0,2,0.6,3.6,1.7,4.6c1.7,1.6,4,1.4,5.1,1.3c0.1,0,0.2,0,0.3,0l9.7-0.1
	c1.1,0,2.2,0.4,2.8,1.1c0.5,0.5,0.8,1.2,0.8,2v0.2c-0.1,0.9-0.5,1.6-1.1,2.2c-0.7,0.6-1.5,0.8-2.4,0.8h-8c-0.4-4.8-8.1-4.4-8,0.5
	c-0.1,4.3,6.3,5.5,7.7,1.5h8.2c1.4,0.1,2.7-0.3,3.8-1.3c1.1-0.9,1.7-2.2,1.8-3.6c0-1.4-0.3-2.8-1.3-3.8c-1-1.1-2.6-1.7-4.3-1.7
	l-9.7,0.1c-0.1,0-0.2,0-0.4,0c-0.8,0.1-2.5,0.2-3.6-0.8c-0.7-0.6-1-1.7-1-3.1v-7.2c0.1-2.5,0.5-3.7,3.9-3.7h0.3v5.3
	c0,1.5,1.2,2.7,2.7,2.7h12.3c1.5,0,2.7-1.2,2.7-2.7v-2.9l0,0c1.1,0,2,0.3,2.5,0.9c1,1.1,1,2.8,1,2.9v6c-9,3.6,3.2,13.4,4.8,3.9
	C36.6,55.2,35.4,53.7,33.8,53.2z M30.5,15.1c0-2.6,4-2.6,4,0C34.5,17.7,30.5,17.7,30.5,15.1z M7.4,25.7c-2.6,0-2.6-4,0-4
	C10,21.7,10,25.7,7.4,25.7z M9.2,66.3c-2.6,0-2.6-4,0-4C11.8,62.3,11.8,66.3,9.2,66.3z M26.2,46.1c0,0.4-0.3,0.7-0.7,0.7H13.2
	c-0.4,0-0.7-0.3-0.7-0.7V33.8c0-0.4,0.3-0.7,0.7-0.7h12.3c0.4,0,0.7,0.3,0.7,0.7V46.1z M32.6,59c-2.6,0-2.6-4,0-4
	C35.2,55,35.2,59,32.6,59z"/>
</svg>
