<?xml version="1.0" encoding="utf-8"?>
<!-- Generator: Adobe Illustrator 26.0.2, SVG Export Plug-In . SVG Version: 6.00 Build 0)  -->
<svg version="1.1" id="Layer_1" xmlns="http://www.w3.org/2000/svg" xmlns:xlink="http://www.w3.org/1999/xlink" x="0px" y="0px"
	 viewBox="0 0 40 80" style="enable-background:new 0 0 40 80;" xml:space="preserve">
<path d="M32.6,18.1H11.2c-1.9,0-3.3,1.5-3.3,3.3v0.4H7.3c-1.9,0-3.3,1.5-3.3,3.3v32.3c0,2.6,2.1,4.7,4.7,4.7h20.1
	c1.9,0,3.3-1.5,3.3-3.3v-0.4h0.7c1.9,0,3.3-1.5,3.3-3.3V21.3C35.9,19.4,34.5,18.1,32.6,18.1z M7.9,33.3H7.4c-0.5,0-0.9,0.1-1.3,0.2
	V25c0-0.7,0.5-1.3,1.3-1.3h0.7L7.9,33.3z M17.2,36.9L17.2,36.9c-0.4,0.4-0.7,1.1-0.7,1.8c0,0.8,0.2,1.2,0.7,1.8l1.8,1.8H7.4
	c-0.5,0-0.9,0.1-1.3,0.2v-5.7c0-0.7,0.5-1.3,1.3-1.3H19L17.2,36.9z M5.9,45.3C6.1,44.6,6.7,44,7.4,44h0.7v11c0,1.9,1.5,3.3,3.3,3.3
	h19v0.3c0,0.7-0.5,1.3-1.3,1.3H8.7c-1.5,0-2.8-1.3-2.8-2.8C5.9,57.1,5.9,45.3,5.9,45.3z M10.4,56c-0.2-0.2-0.4-0.5-0.4-0.9V44h11.4
	c0.4,0,0.8-0.2,0.9-0.7V43c0-0.1,0-0.2-0.1-0.3v-0.1c0-0.1-0.1-0.2-0.1-0.2v-0.1l-3.4-3.5c-0.1-0.1-0.1-0.1-0.1-0.3c0,0,0-0.1,0-0.2
	c0-0.1,0-0.1,0.1-0.2l3.4-3.4c0.1-0.1,0.1-0.1,0.1-0.2c0,0,0-0.1,0.1-0.1l0,0c0.1-0.2,0.1-0.5,0-0.8c-0.1-0.2-0.3-0.4-0.7-0.7h-0.1
	h-0.1c-0.1,0-0.1-0.1-0.2-0.1H9.9V22c0-0.7,0.5-1.3,1.3-1.3h21.5c0.7,0,1.3,0.5,1.3,1.3v32.8c0,0.7-0.5,1.3-1.3,1.3H11.2l0,0
	C10.9,56.2,10.6,56.2,10.4,56z"/>
</svg>
