<?xml version="1.0" encoding="utf-8"?>
<!-- Generator: Adobe Illustrator 26.0.2, SVG Export Plug-In . SVG Version: 6.00 Build 0)  -->
<svg version="1.1" id="Layer_1" xmlns="http://www.w3.org/2000/svg" xmlns:xlink="http://www.w3.org/1999/xlink" x="0px" y="0px"
	 viewBox="0 0 40 80" style="enable-background:new 0 0 40 80;" xml:space="preserve">
<g>
	<path d="M7.8,41.3h8.4c0.2,0,0.3-0.1,0.3-0.3v-3.5c0-0.2-0.1-0.4-0.3-0.4h-3.5v-3h3.5c0.2,0,0.3-0.1,0.3-0.4v-3.5
		c0-0.2-0.1-0.4-0.3-0.4h-3.4c0.2-1.5,1.2-4,2.8-4.4v1c0,0.2,0.1,0.4,0.4,0.4h8.3c0.2,0,0.3-0.1,0.3-0.4v-1c1.5,0.3,2.5,2.6,2.8,4.4
		h-3.4c-0.2,0-0.4,0.1-0.4,0.4v3.5c0,0.2,0.1,0.4,0.4,0.4h3.4v3h-3.4c-0.2,0-0.4,0.1-0.4,0.4V41c0,0.2,0.1,0.3,0.4,0.3h8.3
		c0.2,0,0.3-0.1,0.3-0.3v-3.5c0-0.2-0.1-0.4-0.3-0.4h-3.5v-3h3.5c0.2,0,0.3-0.1,0.3-0.4v-3.5c0-0.2-0.1-0.3-0.2-0.4
		c-0.1,0-0.2,0-0.3,0h-3.4c-0.2-1.5-1-5.4-4.2-5.8V23c0-0.2-0.1-0.3-0.4-0.3h-8.3c-0.2,0-0.3,0.1-0.3,0.3v1.1
		c-3.2,0.4-4,4.2-4.2,5.8H7.8c-0.2,0-0.3,0.1-0.3,0.4v3.5c0,0.2,0.1,0.4,0.3,0.4h3.5v3H7.8c-0.2,0-0.3,0.1-0.3,0.4V41
		C7.5,41.1,7.6,41.3,7.8,41.3z M8.9,32.7v-1.5h6.3v1.5H8.9z M15.1,38.5V40H8.9v-1.5H15.1z M16.9,25.5V24h6.3v1.5H16.9z M24.8,32.7
		v-1.5h6.3v1.5H24.8z M24.8,40v-1.5h6.3V40H24.8z"/>
	<path d="M36.2,47V20c0-1.5-1.2-2.8-2.8-2.8h-27c-1.5,0-2.8,1.2-2.8,2.8v27c0,1.5,1.2,2.8,2.8,2.8h3.9L3.9,64.2
		c-0.2,0.5,0.1,0.8,0.3,1c0,0,0.1,0,0.1,0.1c0.5,0.2,0.8-0.1,1-0.3c0,0,0,0,0.1-0.1l6.8-15.1h7.2v18c0,0.4,0.3,0.8,0.8,0.8
		s0.8-0.3,0.8-0.8v-18h7.2l6.8,15.1c0.1,0.3,0.4,0.4,0.7,0.4h0.2c0,0,0.1,0,0.1,0c0.2-0.1,0.4-0.2,0.4-0.4c0.1-0.2,0-0.4-0.1-0.6
		l-6.5-14.4h3.9C35,49.8,36.2,48.5,36.2,47z M6.5,18.8h27c0.7,0,1.2,0.6,1.2,1.2v27c0,0.7-0.6,1.2-1.2,1.2h-27
		c-0.6,0-1.2-0.4-1.2-1.2V20C5.2,19.3,5.8,18.8,6.5,18.8z"/>
</g>
</svg>
