<?xml version="1.0" encoding="utf-8"?>
<!-- Generator: Adobe Illustrator 26.0.2, SVG Export Plug-In . SVG Version: 6.00 Build 0)  -->
<svg version="1.1" id="Layer_1" xmlns="http://www.w3.org/2000/svg" xmlns:xlink="http://www.w3.org/1999/xlink" x="0px" y="0px"
	 viewBox="0 0 40 80" style="enable-background:new 0 0 40 80;" xml:space="preserve">
<g>
	<path d="M20,22.4c0.6,0,1.1-0.5,1.1-1.1c0-0.6-0.5-1.2-1.1-1.2c-0.6,0-1.1,0.5-1.1,1.1C18.9,21.9,19.4,22.4,20,22.4z"/>
	<path d="M29.8,32.2H18.2c-0.4,0-0.8,0.4-0.8,0.8s0.4,0.8,0.8,0.8h11.6c0.4,0,0.8-0.4,0.8-0.8S30.3,32.2,29.8,32.2z"/>
	<path d="M11.2,31.3c-1.9,0-3.4,1.5-3.4,3.4s1.5,3.4,3.4,3.4s3.4-1.5,3.4-3.4S13.1,31.3,11.2,31.3z M11.2,36.5c-1,0-1.8-0.8-1.8-1.8
		c0-0.4,0.1-0.8,0.4-1.2c0.4-0.4,0.9-0.6,1.4-0.6c1,0,1.8,0.8,1.8,1.8S12.2,36.5,11.2,36.5z"/>
	<path d="M29.2,22.8h-6v-1.5c0-1.7-1.4-3.2-3.2-3.2s-3.2,1.4-3.2,3.2v1.6h-6c-3.3,0-6.1,2.7-6.1,6v26.9c0,3.3,2.7,6.1,6.1,6.1h18.4
		c3.3,0,6.1-2.7,6.1-6.1V28.8C35.2,25.5,32.5,22.8,29.2,22.8z M29.4,60.4H10.8c-2.5,0-4.5-2-4.5-4.5v-27c0-2.4,2.1-4.4,4.5-4.4h1.4
		v1.5c0,1.7,1.4,3.2,3.2,3.2h9.4c1.7,0,3.2-1.4,3.2-3.2v-1.5h1.4c2.5,0,4.5,2,4.5,4.5v26.9C33.9,58.3,31.9,60.4,29.4,60.4z M20,19.7
		c0.8,0,1.5,0.7,1.5,1.5v2.3c0,0.4,0.4,0.8,0.8,0.8h3.9v1.5c0,0.8-0.7,1.5-1.5,1.5h-9.4c-0.8,0-1.5-0.7-1.5-1.5v-1.5h3.9
		c0.4,0,0.8-0.4,0.8-0.8v-2.3C18.5,20.4,19.2,19.7,20,19.7z"/>
	<path d="M11.2,50.1c-1.9,0-3.4,1.5-3.4,3.4s1.5,3.4,3.4,3.4s3.4-1.5,3.4-3.4S13.1,50.1,11.2,50.1z M11.2,55.2c-1,0-1.8-0.8-1.8-1.8
		c0-0.4,0.1-0.8,0.4-1.2c0.4-0.4,0.9-0.6,1.4-0.6c1,0,1.8,0.8,1.8,1.8S12.2,55.2,11.2,55.2z"/>
	<path d="M11.2,40.7c-1.9,0-3.4,1.5-3.4,3.4s1.5,3.4,3.4,3.4s3.4-1.5,3.4-3.4S13.1,40.7,11.2,40.7z M11.2,45.9c-1,0-1.8-0.8-1.8-1.8
		c0-0.4,0.1-0.8,0.4-1.2c0.4-0.4,0.9-0.6,1.4-0.6c1,0,1.8,0.8,1.8,1.8S12.2,45.9,11.2,45.9z"/>
	<path d="M18.2,37.3h4.6c0.4,0,0.8-0.4,0.8-0.8s-0.4-0.8-0.8-0.8h-4.6c-0.4,0-0.8,0.4-0.8,0.8S17.8,37.3,18.2,37.3z"/>
	<path d="M29.8,41.6H18.2c-0.4,0-0.8,0.4-0.8,0.8s0.4,0.8,0.8,0.8h11.6c0.4,0,0.8-0.4,0.8-0.8S30.3,41.6,29.8,41.6z"/>
	<path d="M18.2,46.7h4.6c0.4,0,0.8-0.4,0.8-0.8s-0.4-0.8-0.8-0.8h-4.6c-0.4,0-0.8,0.4-0.8,0.8S17.8,46.7,18.2,46.7z"/>
	<path d="M22.8,54.5h-4.6c-0.4,0-0.8,0.4-0.8,0.8s0.4,0.8,0.8,0.8h4.6c0.4,0,0.8-0.4,0.8-0.8S23.2,54.5,22.8,54.5z"/>
	<path d="M29.8,50.9H18.2c-0.4,0-0.8,0.4-0.8,0.8s0.4,0.8,0.8,0.8h11.6c0.4,0,0.8-0.4,0.8-0.8S30.3,50.9,29.8,50.9z"/>
</g>
</svg>
