<?xml version="1.0" encoding="utf-8"?>
<!-- Generator: Adobe Illustrator 25.2.3, SVG Export Plug-In . SVG Version: 6.00 Build 0)  -->
<svg version="1.1" id="Layer_1" xmlns="http://www.w3.org/2000/svg" xmlns:xlink="http://www.w3.org/1999/xlink" x="0px" y="0px"
	 viewBox="0 0 26 24" style="enable-background:new 0 0 26 24;" xml:space="preserve">
<path d="M13,22.7c-1.6,0-3.2,0-4.8,0c-0.9,0-1.6-0.4-2-1.2c-1.6-2.8-3.2-5.6-4.8-8.4c-0.4-0.8-0.4-1.6,0-2.3C2.9,8,4.5,5.3,6.1,2.5
	c0.4-0.8,1.1-1.2,2-1.1c3.3,0,6.5,0,9.8,0c0.9,0,1.5,0.4,2,1.1c1.6,2.8,3.2,5.6,4.8,8.4c0.4,0.8,0.4,1.5,0,2.3
	c-1.6,2.8-3.2,5.6-4.8,8.4c-0.4,0.8-1.1,1.1-2,1.1C16.2,22.7,14.6,22.7,13,22.7z M11.3,17.6c0-2-1.8-3.3-3.4-2.5
	c-0.7,0.3-1.3,0.7-1.9,1c-0.3,0.2-0.4,0.5-0.2,0.8C6.4,18,7,19.1,7.7,20.2c0.1,0.2,0.4,0.5,0.7,0.3C9.5,19.9,11.4,19.1,11.3,17.6z
	 M18.8,5.9c0-1.8-1.7-3-3.4-2.3c-0.7,0.3-1.3,0.7-1.9,1.1c-0.3,0.2-0.4,0.5-0.2,0.8c0.6,1.1,1.2,2.2,1.9,3.2C15.4,9.1,15.7,9.2,16,9
	c0.7-0.4,1.3-0.7,2-1.2C18.6,7.4,18.9,6.7,18.8,5.9z M5.8,14.5c1.2,0,2.1-0.8,3.1-1.4c0.3-0.2,0.1-0.5,0-0.7c-0.6-1-1.2-2-1.8-3.1
	C6.8,8.9,6.5,8.8,6.1,9c-0.6,0.4-1.2,0.7-1.8,1.1C2.4,11.5,3.3,14.5,5.8,14.5z M12.8,8.2c-0.1-0.8-0.2-3-1.5-2.2c-1,0.6-2,1.2-3,1.7
	C7.9,8,7.8,8.3,8.1,8.7c0.6,1,1.2,2,1.7,3c0.3,0.5,0.6,0.6,1.1,0.2C12.1,11,12.8,9.8,12.8,8.2z M18.7,9.5c-0.7,0-1.3,0.1-1.9,0.4
	c-0.7,0.3-0.7,0.5-0.4,1.1c0.5,1,1.1,1.9,1.7,2.8c0.4,0.6,0.5,0.7,1.2,0.3c1-0.5,1.9-1.1,2.9-1.6c0.6-0.3,0.6-0.6,0.2-1.2
	C21.5,10.1,20.2,9.5,18.7,9.5L18.7,9.5z M13.4,12.5c-0.7,0.1-3.1,0.3-2.3,1.4c0.6,1,1.1,2,1.7,3c0.3,0.5,0.6,0.6,1.1,0.3
	c1-0.6,2-1.1,3-1.7c0.6-0.4,0.6-0.5,0.2-1.1C16.2,13.2,14.9,12.6,13.4,12.5z"/>
</svg>
