<svg xmlns="http://www.w3.org/2000/svg" viewBox="0 0 36 36"><title>CD-email</title><path d="M26.67,10.31a1.13,1.13,0,0,0-1.23-.22h0L9.65,16.9a1.08,1.08,0,0,0-.55,1.44,1.12,1.12,0,0,0,.51.52l4.15,2v4.06a1.06,1.06,0,0,0,.77,1,1.34,1.34,0,0,0,.35.05,1.09,1.09,0,0,0,.89-.46l2-2.73,2,1a1.62,1.62,0,0,0,.69.15,1.58,1.58,0,0,0,.52-.09,1.54,1.54,0,0,0,.88-.8L26.91,11.5A1,1,0,0,0,26.67,10.31ZM10,17.89a.11.11,0,0,1,.06-.09l14.61-6.31L14.19,20l-4.13-2A.1.1,0,0,1,10,17.89ZM15,25a.11.11,0,0,1-.14,0s0,0-.05-.07V21.36l2.09,1Zm5.94-2.34a.53.53,0,0,1-.67.27l0,0-5-2.42L25.58,12Z"/></svg>