<svg xmlns="http://www.w3.org/2000/svg" viewBox="0 0 36 36"><title>DP-detail</title><path d="M12.42,15.61a1.33,1.33,0,0,1,0-1.9l1.29-1.29a1.33,1.33,0,0,1,1.9,0l2.83,2.82a.73.73,0,0,0,.54.23h0a.75.75,0,0,0,.76-.76.76.76,0,0,0-.22-.54l-2.83-2.83a2.87,2.87,0,0,0-4.06,0l-1.29,1.29a2.86,2.86,0,0,0,0,4l2.83,2.83a.77.77,0,0,0,1.3-.53.76.76,0,0,0-.22-.54Z"/><path d="M14.65,14.65a.79.79,0,0,0-.22.54.77.77,0,0,0,.22.54l5.62,5.62a.77.77,0,0,0,.54.22.79.79,0,0,0,.54-.22.78.78,0,0,0,0-1.08l-5.62-5.62A.78.78,0,0,0,14.65,14.65Z"/><path d="M24.66,19.31l-2.83-2.83a.76.76,0,0,0-.54-.22h0a.75.75,0,0,0-.53.22.76.76,0,0,0-.23.54.73.73,0,0,0,.23.54l2.83,2.83a1.35,1.35,0,0,1,0,1.9l-1.3,1.29a1.31,1.31,0,0,1-.95.4,1.32,1.32,0,0,1-.95-.4l-2.83-2.83a.76.76,0,0,0-.54-.22h0a.75.75,0,0,0-.76.76.77.77,0,0,0,.22.54l2.83,2.83a2.89,2.89,0,0,0,2,.84,2.85,2.85,0,0,0,2-.84l1.29-1.29A2.87,2.87,0,0,0,24.66,19.31Z"/></svg>