<svg xmlns="http://www.w3.org/2000/svg" viewBox="0 0 36 36"><title>DP-entitle</title><path d="M20.64,12.92a2.2,2.2,0,0,0-2.2,2.19,2.2,2.2,0,1,0,4.39,0A2.2,2.2,0,0,0,20.64,12.92Zm.89,2.22a.9.9,0,1,1-.89-.89A.89.89,0,0,1,21.53,15.14Z"/><path d="M24.49,11.25h0A2.21,2.21,0,0,0,23,10.67l-4.21.14a3.09,3.09,0,0,0-1.94.88l-6.06,6.06a2.41,2.41,0,0,0-.7,1.69,2.38,2.38,0,0,0,.7,1.69L14.62,25a2.4,2.4,0,0,0,1.69.7A2.52,2.52,0,0,0,18,25l6-6a2.92,2.92,0,0,0,.88-2l.16-4.19A2,2,0,0,0,24.49,11.25Zm-.69,1.5-.16,4.14A1.69,1.69,0,0,1,23.11,18l-6,6a1.09,1.09,0,0,1-1.52,0l-3.84-3.84a1.06,1.06,0,0,1,0-1.52l6-6a1.83,1.83,0,0,1,1.11-.52L23,12a.7.7,0,0,1,.55.23A.81.81,0,0,1,23.8,12.75Z"/></svg>