<svg xmlns="http://www.w3.org/2000/svg" viewBox="0 0 36 36"><title>ES-prototype</title><path d="M27,17.63H26l0-8.36a2.5,2.5,0,0,0-2.45-2.52l-13.07,0C8.73,6.64,9,10.11,9,10.11a.45.45,0,0,0,.43.46H10v7H9a.36.36,0,0,0-.37.37.37.37,0,0,0,.37.38h1v8.35a2.5,2.5,0,0,0,2.45,2.52l13.07.05c1.74.06,1.45-3.41,1.45-3.41a.45.45,0,0,0-.43-.46H26V19.48h0v-1.1h1a.38.38,0,0,0,.38-.38A.37.37,0,0,0,27,17.63Zm-17.07-8c-.11-.11,0-2,.52-2l12,0a3.37,3.37,0,0,0-.29,2Zm1,.93,11.67,0c1.07-.25-.48-2.17.9-2.94a1.56,1.56,0,0,1,1.54,1.58l0,8.37H11Zm15.1,15.77c.11.11,0,2-.52,2l-12-.05a3.37,3.37,0,0,0,.29-2Zm-1-.93-11.67,0c-1.07.25.48,2.17-.9,2.94a1.56,1.56,0,0,1-1.54-1.58l0-8.36h14.1Z"/></svg>