<svg xmlns="http://www.w3.org/2000/svg" viewBox="0 0 36 36"><title>ES-research</title><path d="M24.05,22,22,18.38V10.06h.56a1.58,1.58,0,0,0,1.6-1.59,1.6,1.6,0,0,0-1.6-1.6H13.13a1.6,1.6,0,0,0,0,3.19h.56V25a4.13,4.13,0,0,0,7.91,1.68,3,3,0,0,0,2.47-1.59A3.08,3.08,0,0,0,24.05,22Zm-1,2.51a1.92,1.92,0,0,1-1.68.95,1.89,1.89,0,0,1-1.67-.95,1.93,1.93,0,0,1,0-1.93l1.68-2.89L23,22.6A1.9,1.9,0,0,1,23,24.53Zm-8.15-7.18h5.93v1L18.7,22a3.1,3.1,0,0,0,1.71,4.49A3.1,3.1,0,0,1,17.8,28,3,3,0,0,1,14.86,25Zm-.59-8.46H13.13a.41.41,0,0,1-.43-.42A.43.43,0,0,1,13.13,8h9.39a.41.41,0,0,1,.43.43.43.43,0,0,1-.43.42H21.38a.56.56,0,0,0-.59.59v6.7H14.86V9.48A.56.56,0,0,0,14.27,8.89Z"/></svg>