<svg xmlns="http://www.w3.org/2000/svg" viewBox="0 0 36 36"><title>ES-typography</title><path d="M10.25,9.77h15.5a.5.5,0,0,0,.5-.5.5.5,0,0,0-.5-.5H20.56a2.57,2.57,0,0,0-5.12,0H10.25a.5.5,0,0,0-.5.5A.5.5,0,0,0,10.25,9.77ZM18,7.39a1.55,1.55,0,0,1,1.53,1.3s0,0,0,0l0,0h-3l0,0a.06.06,0,0,1,0,0A1.55,1.55,0,0,1,18,7.39Z"/><path d="M25.75,10.81H10.25a.5.5,0,0,0-.5.5.5.5,0,0,0,.5.5h5.24l-.07,14.47a.15.15,0,0,0,0,.11l2.31,3.14a.16.16,0,0,0,.14.08.21.21,0,0,0,.15-.07l2.41-3.12a.21.21,0,0,0,0-.11l.07-14.5h5.17a.5.5,0,0,0,.5-.5A.5.5,0,0,0,25.75,10.81Zm-6.85,16L18,28a.06.06,0,0,1-.09,0L17,26.79a.09.09,0,0,1,0-.07.06.06,0,0,1,.06,0h1.85a0,0,0,0,1,0,0A.06.06,0,0,1,18.9,26.79Zm.61-1.16s0,.05-.06.05h-.93a.06.06,0,0,1-.05-.06l.06-13.8h1Zm-2-13.81-.06,13.8a.06.06,0,0,1-.06.05h-.93a.06.06,0,0,1-.06-.06l.07-13.8h1Z"/></svg>