<svg xmlns="http://www.w3.org/2000/svg" viewBox="0 0 36 36"><title>ES-thinking</title><path d="M24.82,16.09H23.17V14.17a.63.63,0,0,0-.63-.63h-14a.63.63,0,0,0-.63.63v12a3.56,3.56,0,0,0,3.56,3.55h8.13a3.56,3.56,0,0,0,3.56-3.55V24.94h1.65a3.27,3.27,0,0,0,3.26-3.26V19.34A3.27,3.27,0,0,0,24.82,16.09Zm-5.2,12.4H11.48a2.3,2.3,0,0,1-2.3-2.29V14.79H21.91V26.2A2.3,2.3,0,0,1,19.62,28.49Zm7.2-6.81a2,2,0,0,1-2,2H23.17V17.33h1.65a2,2,0,0,1,2,2Z"/><path d="M15.55,11.38a.63.63,0,0,0,.62-.63V6.88a.63.63,0,1,0-1.25,0v3.87A.63.63,0,0,0,15.55,11.38Z"/><path d="M12,11.38a.63.63,0,0,0,.63-.63V6.88a.63.63,0,1,0-1.25,0v3.87A.63.63,0,0,0,12,11.38Z"/><path d="M19.06,11.38a.63.63,0,0,0,.63-.63V6.88a.63.63,0,0,0-.63-.63.63.63,0,0,0-.63.63v3.87A.63.63,0,0,0,19.06,11.38Z"/></svg>