<svg xmlns="http://www.w3.org/2000/svg" viewBox="0 0 36 36"><title>ES-usability</title><path d="M24.8,25.8,22,15.54a2,2,0,0,0-.4-.77V11.42a1.49,1.49,0,0,0-1.49-1.49h-.35V6.81a1.5,1.5,0,0,0-1.49-1.5A1.5,1.5,0,0,0,16.81,6.8V9.93h-.36a1.48,1.48,0,0,0-1,.44A1.45,1.45,0,0,0,15,11.42v3.36a2,2,0,0,0-.4.75L11.82,25.79A2,2,0,0,0,12.68,28l-.24.87a.59.59,0,0,0,.37.72l.18,0a.57.57,0,0,0,.25-.06.51.51,0,0,0,.28-.33l0-.05.23-.88a1.94,1.94,0,0,0,1.82-1.44l2.61-9.74a.74.74,0,0,0,.21,0L21,26.8a2,2,0,0,0,1.82,1.45l.24.88a.57.57,0,0,0,.7.4.6.6,0,0,0,.34-.27.54.54,0,0,0,.06-.43L23.94,28A1.94,1.94,0,0,0,24.8,25.8ZM18,6.55a.39.39,0,0,1,.25-.1.35.35,0,0,1,.36.36V9.93h-.72V6.8A.39.39,0,0,1,18,6.55Zm4.08,20-2.67-10,1.49-.74h0L23.7,26.09a.81.81,0,0,1-.53,1l-.09,0A.8.8,0,0,1,22.12,26.51ZM20.5,14.77l-2.2,1.1-2.2-1.1V11.42a.34.34,0,0,1,.35-.35h3.7a.34.34,0,0,1,.35.35v3.35ZM13.56,27.1l-.1,0a.8.8,0,0,1-.54-1l2.74-10.26h0l1.49.75L14.5,26.51A.82.82,0,0,1,13.56,27.1Z"/></svg>