<svg xmlns="http://www.w3.org/2000/svg" viewBox="0 0 36 36"><title>ES-wireframe</title><path d="M27.1,21.25a2.91,2.91,0,0,0-2.33-2.45V10.53a2.88,2.88,0,0,0-.95-5.68A2.84,2.84,0,0,0,21.93,6a2.88,2.88,0,0,0,1.78,4.55V18.8a2.91,2.91,0,0,0-1.78,1.12,2.87,2.87,0,0,0,1.72,4.53,1.82,1.82,0,0,1-1.53,1.35,2.88,2.88,0,0,0-2.29-2.28V18a2.89,2.89,0,0,0-2.78-3H17a2.88,2.88,0,0,0-2.88,2.79,1.83,1.83,0,0,1-3.66,0V12.24a2.89,2.89,0,1,0-1.05,0v5.54a2.89,2.89,0,0,0,2.78,3,2.86,2.86,0,0,0,3-2.78A1.81,1.81,0,0,1,17,16.14h0A1.83,1.83,0,0,1,18.78,18v5.55A2.88,2.88,0,0,0,17,24.62a2.84,2.84,0,0,0-.55,2.14,2.89,2.89,0,0,0,2.85,2.47l.41,0a2.9,2.9,0,0,0,2.43-2.34,2.88,2.88,0,0,0,2.59-2.38,2.88,2.88,0,0,0,2.38-3.23ZM24.24,19.8a1.83,1.83,0,1,1-1.83,1.83A1.84,1.84,0,0,1,24.24,19.8ZM22.41,7.7a1.83,1.83,0,1,1,1.83,1.83A1.83,1.83,0,0,1,22.41,7.7ZM21.12,26.35a1.83,1.83,0,1,1-1.83-1.83A1.83,1.83,0,0,1,21.12,26.35ZM11.69,9.41A1.83,1.83,0,1,1,9.87,7.58,1.83,1.83,0,0,1,11.69,9.41Z"/></svg>