<svg xmlns="http://www.w3.org/2000/svg" viewBox="0 0 36 36"><title>SI-linkedin</title><path d="M26.55,19.16v5.62a.26.26,0,0,1-.28.28H23.35a.26.26,0,0,1-.28-.28V19.54c0-1.37-.49-2.31-1.71-2.31a1.93,1.93,0,0,0-1.87,2.09v5.46a.26.26,0,0,1-.28.28H16.29a.26.26,0,0,1-.28-.28c0-1.38.06-8.1,0-9.7a.26.26,0,0,1,.28-.28h2.87a.26.26,0,0,1,.27.28v1.27h0v-.06a3.35,3.35,0,0,1,3.09-1.71c2.32-.05,4,1.43,4,4.58ZM11.11,25H14a.27.27,0,0,0,.28-.27V15a.27.27,0,0,0-.28-.27H11.11a.26.26,0,0,0-.28.27v9.71C10.89,24.89,11,25,11.11,25Z"/><circle cx="12.49" cy="11.66" r="1.82"/></svg>