<svg xmlns="http://www.w3.org/2000/svg" viewBox="0 0 36 36"><title>WA-awards</title><path d="M26.72,0A1.26,1.26,0,0,1,28,1.2V2.41A7.08,7.08,0,0,1,35,9.2c0,3.69-3.2,6.69-7.19,6.8h0l-.06.22a9.43,9.43,0,0,1-5.37,6.07v5.3A7.7,7.7,0,0,1,28,34.84,1.26,1.26,0,0,1,26.72,36H9.28A1.26,1.26,0,0,1,8,34.84a7.7,7.7,0,0,1,5.67-7.25v-5.3a9.43,9.43,0,0,1-5.37-6.07L8.21,16h0C4.2,15.89,1,12.89,1,9.2A7.08,7.08,0,0,1,8,2.41V1.2A1.26,1.26,0,0,1,9.28,0Zm-7,29.6H16.26a5.6,5.6,0,0,0-5.52,4H25.26A5.6,5.6,0,0,0,19.74,29.6Zm0-6H16.26v3.2h3.48ZM25.41,2.4H10.59V13.79a7.13,7.13,0,0,0,6.31,6.94c4.58.6,8.51-2.64,8.51-6.73ZM8,4.82A4.56,4.56,0,0,0,3.62,9.2,4.56,4.56,0,0,0,8,13.58ZM28,4.82v8.76A4.56,4.56,0,0,0,32.38,9.2,4.56,4.56,0,0,0,28,4.82Z"/><polygon points="17.89 6.4 19.36 8.91 22.45 9.23 20.3 11.29 20.94 14.09 18.13 12.85 15.43 14.26 15.85 11.43 13.54 9.51 16.61 9 17.89 6.4"/></svg>