<?xml version="1.0" encoding="utf-8"?>
<!-- Generator: Adobe Illustrator 23.1.0, SVG Export Plug-In . SVG Version: 6.00 Build 0)  -->
<svg version="1.1" xmlns="http://www.w3.org/2000/svg" xmlns:xlink="http://www.w3.org/1999/xlink" x="0px" y="0px"
	 viewBox="0 0 36 36" style="enable-background:new 0 0 36 36;" xml:space="preserve">
<style type="text/css">
	.st0{fill-rule:evenodd;clip-rule:evenodd;}
</style>
<g id="Layer_1">
</g>
<g id="Layer_2">
	<path d="M-298.7-51.5c4.5,0,8.2,3.7,8.2,8.2v14.6c0,4.5-3.7,8.2-8.2,8.2h-14.6c-4.5,0-8.2-3.7-8.2-8.2v-14.6c0-4.5,3.7-8.2,8.2-8.2
		H-298.7 M-298.7-54h-14.6c-5.9,0-10.7,4.8-10.7,10.7v14.6c0,5.9,4.8,10.7,10.7,10.7h14.6c5.9,0,10.7-4.8,10.7-10.7v-14.6
		C-288-49.2-292.8-54-298.7-54L-298.7-54z"/>
	<g>
		<g>
			<path d="M-81.4-149.5c-0.5,0.3-1.2,0.4-1.8,0.5c0.3-0.1,0.7-0.5,0.9-0.8c0.3-0.3,0.5-0.7,0.6-1c0-0.1,0-0.1,0-0.1
				c-0.1,0-0.1,0-0.1,0c-0.7,0.4-1.4,0.6-2.1,0.8c-0.1,0-0.1,0-0.2-0.1s-0.1-0.1-0.2-0.2c-0.3-0.3-0.7-0.5-1-0.6
				c-0.5-0.2-1-0.3-1.5-0.3c-0.5,0.1-1,0.2-1.5,0.4c-0.4,0.2-0.9,0.5-1.2,1c-0.3,0.4-0.6,0.9-0.7,1.4c-0.1,0.5-0.1,1-0.1,1.5
				c0,0.1,0,0.1-0.1,0.1c-2.9-0.4-5.3-1.5-7.2-3.7c-0.1-0.1-0.1-0.1-0.2,0c-0.8,1.3-0.4,3.3,0.6,4.3c0.2,0.1,0.3,0.3,0.4,0.4
				c-0.1,0-0.8-0.1-1.4-0.4c-0.1-0.1-0.1,0-0.1,0.1c0,0.1,0,0.3,0,0.4c0.2,1.3,1,2.5,2.3,3c0.2,0.1,0.3,0.1,0.4,0.2
				c-0.3,0.1-0.5,0.1-1.4,0.1c-0.1,0-0.2,0.1-0.1,0.1c0.6,1.6,1.9,2.1,2.9,2.4c0.1,0,0.3,0,0.4,0.1l0,0c-0.3,0.5-1.4,0.9-2,1
				c-0.9,0.3-2,0.5-3,0.4c-0.2,0-0.2,0-0.2,0c-0.1,0,0,0.1,0.1,0.1c0.2,0.1,0.4,0.3,0.6,0.4c0.7,0.3,1.3,0.6,2,0.8
				c3.6,1,7.6,0.3,10.3-2.4c2.1-2.1,2.9-5,2.9-7.9c0-0.1,0.1-0.2,0.2-0.2c0.5-0.4,1-0.9,1.4-1.4c0.1-0.1,0.1-0.2,0.1-0.3l0,0
				C-81.3-149.5-81.3-149.5-81.4-149.5z"/>
		</g>
		<g>
			<path class="st0" d="M-93.6-136.9C-92.1-136.9-93.5-136.9-93.6-136.9C-93.4-136.9-93.6-136.9-93.6-136.9z"/>
		</g>
		<g>
			<path class="st0" d="M-93.6-136.9C-93.6-136.9-93.9-136.9-93.6-136.9L-93.6-136.9z"/>
		</g>
		<g>
			<path class="st0" d="M-93-136.9C-93-136.9-92.7-136.9-93-136.9C-93-136.9-93-136.9-93-136.9z"/>
		</g>
		<g>
			<path class="st0" d="M-86.8-151.2L-86.8-151.2C-86.9-151.2-86.9-151.2-86.8-151.2z"/>
		</g>
	</g>
	<g>
		<path class="st0" d="M-254.4-143.9v8.7c0,0.1,0.1,0.2,0.2,0.2h3.2c0.1,0,0.2-0.1,0.2-0.2v-8.8h2.4c0.1,0,0.2-0.1,0.2-0.2l0.2-2.6
			c0-0.1-0.1-0.2-0.2-0.2h-2.6v-1.9c0-0.4,0.4-0.8,0.8-0.8h1.8c0.1,0,0.2-0.1,0.2-0.2v-2.6c0-0.1-0.1-0.2-0.2-0.2h-3
			c-1.8,0-3.2,1.4-3.2,3.2v2.6h-1.6c-0.1,0-0.2,0.1-0.2,0.2v2.6c0,0.1,0.1,0.2,0.2,0.2L-254.4-143.9L-254.4-143.9L-254.4-143.9z"/>
	</g>
	<g>
		<g>
			<path class="st0" d="M-197.3-153.8c-5,0-9.1,4.1-9.1,9.1c0,1.8,0.5,3.5,1.4,4.9l-1.4,3c-0.1,0.3-0.1,0.6,0.1,0.8
				c0.2,0.2,0.4,0.3,0.6,0.3c0.1,0,0.2,0,0.2-0.1l3.8-1c1.3,0.7,2.8,1,4.3,1c5,0,9.1-4.1,9.1-9.1
				C-188.3-149.7-192.3-153.8-197.3-153.8z M-197.3-137.2c-1.3,0-2.6-0.3-3.7-1c-0.1-0.1-0.3-0.1-0.4-0.1c-0.1,0-0.2,0-0.2,0.1
				l-2.5,0.7l0.9-1.9c0.1-0.3,0.1-0.5-0.1-0.8c-0.9-1.3-1.4-2.8-1.4-4.3c0-4.1,3.4-7.5,7.5-7.5s7.5,3.4,7.5,7.5
				C-189.8-140.6-193.2-137.2-197.3-137.2z"/>
		</g>
		<g>
			<path class="st0" d="M-193.8-143.3c-0.4-0.2-0.9-0.5-1.3-0.3c-0.3,0.2-0.5,0.7-0.8,0.9c-0.1,0.2-0.3,0.2-0.4,0.1
				c-1.3-0.5-2.3-1.4-3-2.5c-0.1-0.2-0.1-0.3,0.1-0.5c0.2-0.3,0.5-0.5,0.5-0.9s-0.1-0.7-0.2-1c-0.2-0.4-0.4-0.9-0.8-1.2
				c-0.3-0.2-0.8-0.1-1.2,0.2c-0.5,0.4-0.8,1.2-0.8,1.8c0,0.2,0,0.4,0.1,0.6c0.1,0.4,0.3,0.9,0.5,1.3c0.2,0.3,0.4,0.6,0.6,0.9
				c0.7,0.9,1.5,1.8,2.5,2.4c0.5,0.3,1,0.5,1.6,0.8c0.6,0.2,1.2,0.4,1.8,0.3c0.7-0.1,1.4-0.5,1.6-1.3c0.1-0.2,0.1-0.4,0.1-0.7
				C-192.9-142.9-193.5-143.1-193.8-143.3z"/>
		</g>
	</g>
	<g>
		<path d="M-140.2-153.6h-7.5c-3.2,0-5.7,2.5-5.7,5.7v7.5c0,3.2,2.5,5.7,5.7,5.7h7.5c3.2,0,5.7-2.5,5.7-5.7v-7.5
			C-134.5-151-137-153.6-140.2-153.6z M-136.3-140.3c0,2.2-1.8,3.9-3.9,3.9h-7.5c-2.2,0-3.9-1.8-3.9-3.9v-7.5c0-2.2,1.8-3.9,3.9-3.9
			h7.5c2.2,0,3.9,1.8,3.9,3.9V-140.3z"/>
		<circle cx="-139" cy="-149" r="1.1"/>
		<path d="M-143.9-148.6c-2.5,0-4.6,2.1-4.6,4.6c0,2.5,2.1,4.6,4.6,4.6c2.5,0,4.6-2.1,4.6-4.6C-139.2-146.5-141.3-148.6-143.9-148.6
			z M-143.9-141c-1.7,0-3-1.3-3-3s1.3-3,3-3s3,1.3,3,3S-142.2-141-143.9-141z"/>
	</g>
	<g>
		<g>
			<path d="M-297.5-142.8v5.6c0,0.2-0.1,0.3-0.3,0.3h-2.9c-0.2,0-0.3-0.1-0.3-0.3v-5.2c0-1.4-0.5-2.3-1.7-2.3
				c-0.9,0-1.5,0.6-1.8,1.3c-0.1,0.2-0.1,0.5-0.1,0.8v5.5c0,0.2-0.1,0.3-0.3,0.3h-2.9c-0.2,0-0.3-0.1-0.3-0.3c0-1.4,0.1-8.1,0-9.7
				c0-0.2,0.1-0.3,0.3-0.3h2.9c0.2,0,0.3,0.1,0.3,0.3v1.2c0,0,0,0,0,0.1l0,0v-0.1c0.4-0.7,1.3-1.7,3.1-1.7
				C-299.2-147.5-297.5-146-297.5-142.8L-297.5-142.8z M-312.9-137h2.9c0.2,0,0.3-0.1,0.3-0.3v-9.7c0-0.2-0.1-0.3-0.3-0.3h-2.9
				c-0.2,0-0.3,0.1-0.3,0.3v9.7C-313.1-137.1-313-137-312.9-137z"/>
		</g>
	</g>
	<g>
		<circle cx="-311.5" cy="-150.3" r="1.8"/>
	</g>
	<g>
		<path d="M-149.6,15.6c-0.5-0.5-0.5-1.4,0-1.9l1.3-1.3c0.5-0.5,1.4-0.5,1.9,0l2.8,2.8c0.1,0.1,0.3,0.2,0.5,0.2c0,0,0,0,0,0
			c0.2,0,0.4-0.1,0.5-0.2c0.1-0.1,0.2-0.3,0.2-0.5s-0.1-0.4-0.2-0.5l-2.8-2.8c-1.1-1.1-2.9-1.1-4.1,0l-1.3,1.3
			c-1.1,1.1-1.1,2.9,0,4.1l2.8,2.8c0.1,0.1,0.3,0.2,0.5,0.2s0.4-0.1,0.5-0.2c0.1-0.1,0.2-0.3,0.2-0.5c0-0.2-0.1-0.4-0.2-0.5
			L-149.6,15.6z"/>
		<path d="M-147.3,14.7c-0.1,0.1-0.2,0.3-0.2,0.5s0.1,0.4,0.2,0.5l5.6,5.6c0.1,0.1,0.3,0.2,0.5,0.2c0.2,0,0.4-0.1,0.5-0.2
			c0.3-0.3,0.3-0.8,0-1.1l-5.6-5.6C-146.6,14.4-147,14.4-147.3,14.7z"/>
		<path d="M-137.3,19.3l-2.8-2.8c-0.1-0.1-0.3-0.2-0.5-0.2c0,0,0,0,0,0c-0.2,0-0.4,0.1-0.5,0.2c-0.1,0.1-0.2,0.3-0.2,0.5
			c0,0.2,0.1,0.4,0.2,0.5l2.8,2.8c0.3,0.3,0.4,0.6,0.4,1s-0.1,0.7-0.4,1l-1.3,1.3c-0.3,0.3-0.6,0.4-0.9,0.4c-0.4,0-0.7-0.1-1-0.4
			l-2.8-2.8c-0.1-0.1-0.3-0.2-0.5-0.2c0,0,0,0,0,0c-0.2,0-0.4,0.1-0.5,0.2c-0.1,0.1-0.2,0.3-0.2,0.5c0,0.2,0.1,0.4,0.2,0.5l2.8,2.8
			c0.5,0.5,1.3,0.8,2,0.8c0.8,0,1.5-0.3,2-0.8l1.3-1.3C-136.2,22.3-136.2,20.4-137.3,19.3z"/>
	</g>
	<g>
		<path d="M-249.4,12.9c-1.2,0-2.2,1-2.2,2.2c0,1.2,1,2.2,2.2,2.2c1.2,0,2.2-1,2.2-2.2C-247.2,13.9-248.2,12.9-249.4,12.9z
			 M-248.5,15.1c0,0.5-0.4,0.9-0.9,0.9c-0.5,0-0.9-0.4-0.9-0.9c0-0.5,0.4-0.9,0.9-0.9C-248.9,14.2-248.5,14.6-248.5,15.1z"/>
		<path d="M-245.5,11.3L-245.5,11.3c-0.4-0.4-0.9-0.6-1.5-0.6l-4.2,0.1c-0.7,0.1-1.4,0.4-1.9,0.9l-6.1,6.1c-0.5,0.5-0.7,1.1-0.7,1.7
			c0,0.6,0.2,1.2,0.7,1.7l3.8,3.8c0.4,0.4,1.1,0.7,1.7,0.7c0.6,0,1.2-0.2,1.7-0.7l6-6c0.5-0.5,0.9-1.2,0.9-2l0.2-4.2
			C-244.9,12.2-245.1,11.7-245.5,11.3z M-246.2,12.8l-0.2,4.1c0,0.4-0.2,0.8-0.5,1.1l-6,6c-0.4,0.4-1.1,0.4-1.5,0l-3.8-3.8
			c-0.2-0.2-0.3-0.5-0.3-0.8s0.1-0.6,0.3-0.8l6-6c0.3-0.3,0.7-0.5,1.1-0.5l4.2-0.1c0.2,0,0.4,0,0.6,0.2
			C-246.3,12.3-246.2,12.5-246.2,12.8z"/>
	</g>
	<circle cx="-311.8" cy="-40.2" r="2.3"/>
	<circle cx="-300.2" cy="-40.2" r="2.3"/>
	<path d="M-300.6-33.6h-10.8c-0.6,0-1.1,0.2-1.4,0.7c-0.3,0.4-0.5,0.9-0.4,1.5c0.6,3.6,3.6,6.2,7.3,6.2s6.7-2.7,7.3-6.2
		c0.1-0.5-0.1-1.1-0.4-1.5S-300-33.6-300.6-33.6z M-311.4-31.7l10.9,0c-0.1,0.5-0.3,1.1-0.5,1.5c-1.5,0.2-3.1,0.3-4.9,0.3
		c-1.8,0-3.4-0.1-4.9-0.3C-311.2-30.7-311.3-31.2-311.4-31.7C-311.5-31.7-311.5-31.7-311.4-31.7z"/>
	<path d="M-29.2,25.8L-32,15.5c-0.1-0.3-0.2-0.5-0.4-0.8l0-3.3c0-0.8-0.7-1.5-1.5-1.5l-0.4,0l0-3.1c0-0.8-0.7-1.5-1.5-1.5
		c-0.4,0-0.8,0.2-1.1,0.4C-37,6-37.2,6.4-37.2,6.8v3.1h-0.4c-0.4,0-0.8,0.2-1.1,0.4c-0.3,0.3-0.4,0.7-0.4,1.1l0,3.4
		c-0.2,0.2-0.3,0.5-0.4,0.8l-2.7,10.3c-0.2,0.8,0.1,1.7,0.9,2.2l-0.2,0.9c0,0.1,0,0.3,0,0.4c0.1,0.1,0.2,0.2,0.3,0.3
		c0.1,0,0.1,0,0.2,0c0.1,0,0.2,0,0.3-0.1c0.1-0.1,0.2-0.2,0.3-0.3c0,0,0,0,0-0.1l0.2-0.9c0.9,0,1.6-0.6,1.8-1.4l2.6-9.7
		c0.1,0,0.1,0,0.2,0l2.6,9.7c0.2,0.8,1,1.4,1.8,1.4l0.2,0.9c0.1,0.3,0.4,0.5,0.7,0.4c0.1,0,0.3-0.1,0.3-0.3c0.1-0.1,0.1-0.3,0.1-0.4
		l-0.2-0.9C-29.3,27.5-29,26.6-29.2,25.8z M-36,6.6c0.1-0.1,0.2-0.1,0.3-0.1c0.2,0,0.4,0.2,0.4,0.4l0,3.1l-0.7,0l0-3.1
		C-36.1,6.7-36,6.6-36,6.6z M-31.9,26.5l-2.7-10l1.5-0.7c0,0,0,0,0,0l2.8,10.3c0.1,0.4-0.1,0.8-0.5,1c0,0-0.1,0-0.1,0
		C-31.4,27.2-31.8,26.9-31.9,26.5z M-33.5,14.8l-2.2,1.1l-2.2-1.1l0-1l0-2.3c0-0.1,0-0.2,0.1-0.3c0.1-0.1,0.2-0.1,0.3-0.1l2.8,0
		l0.9,0c0.2,0,0.4,0.1,0.4,0.4l0,2.3L-33.5,14.8z M-40.4,27.1c0,0-0.1,0-0.1,0c-0.4-0.1-0.7-0.6-0.5-1l2.7-10.3c0,0,0,0,0,0l1.5,0.7
		l-2.7,9.9C-39.6,26.9-40,27.2-40.4,27.1z"/>
	<g>
		<g>
			<path d="M-189.3-54c0.7,0,1.3,0.5,1.3,1.2l0,1.2c3.9,0.2,7,3.2,7,6.8c0,3.7-3.2,6.7-7.2,6.8l0,0l-0.1,0.2
				c-0.7,2.7-2.7,4.9-5.4,6.1l0,5.3c3.3,1,5.7,3.9,5.7,7.3c0,0.6-0.6,1.2-1.3,1.2c-3.5,0-13.9,0-17.4,0c-0.7,0-1.3-0.5-1.3-1.2
				c0-3.4,2.4-6.2,5.7-7.3l0-5.3c-2.6-1.2-4.6-3.4-5.4-6.1l-0.1-0.2l0,0c-4-0.1-7.2-3.1-7.2-6.8c0-3.6,3.1-6.6,7-6.8l0-1.2
				c0-0.7,0.6-1.2,1.3-1.2H-189.3z M-196.3-24.4h-3.5c-2.7,0-4.9,1.7-5.5,4h14.5C-191.3-22.7-193.6-24.4-196.3-24.4z M-196.3-30.4
				h-3.5v3.2h3.5V-30.4z M-190.6-51.6h-14.8v11.4c0,3.4,2.6,6.5,6.3,6.9c4.6,0.6,8.5-2.6,8.5-6.7V-51.6z M-208-49.2
				c-2.4,0.2-4.4,2.1-4.4,4.4s1.9,4.2,4.4,4.4V-49.2z M-188-49.2v8.8c2.4-0.2,4.4-2.1,4.4-4.4S-185.5-49-188-49.2z"/>
		</g>
		<polygon points="-198.1,-47.6 -196.6,-45.1 -193.5,-44.8 -195.7,-42.7 -195.1,-39.9 -197.9,-41.2 -200.6,-39.7 -200.2,-42.6 
			-202.5,-44.5 -199.4,-45 		"/>
	</g>
	<g>
		<path d="M-188.9,17.1l-2.9,0v-1.8c0-1.8-1.5-3.3-3.4-3.3h-5.6c-1.9,0-3.4,1.5-3.4,3.3v1.8l-2.9,0c-0.5,0-0.9,0.4-0.9,0.9
			c0,0.2,0.1,0.5,0.3,0.6c0.2,0.2,0.4,0.3,0.6,0.3l2.9,0v1.8c0,1.8,1.5,3.3,3.4,3.3h5.6c1.9,0,3.4-1.5,3.4-3.3v-1.8l2.9,0
			c0.2,0,0.5-0.1,0.6-0.3c0.2-0.2,0.3-0.4,0.3-0.6C-188,17.5-188.4,17.1-188.9,17.1z M-193.4,20.7c0,0.9-0.8,1.7-1.8,1.7h-5.6
			c-1,0-1.8-0.8-1.8-1.7v-5.5c0-0.9,0.8-1.7,1.8-1.7h5.6c1,0,1.8,0.8,1.8,1.7V20.7z"/>
		<path d="M-196.4,17.1l-3.2,0c-0.5,0-0.9,0.4-0.9,0.9c0,0.2,0.1,0.5,0.3,0.6c0.2,0.2,0.4,0.3,0.6,0.3l3.2,0c0.2,0,0.5-0.1,0.6-0.3
			c0.2-0.2,0.3-0.4,0.3-0.6C-195.5,17.5-195.9,17.1-196.4,17.1z"/>
	</g>
	<g>
		<path d="M-83.2-37.9h-1.6v-1.9c0-0.3-0.3-0.6-0.6-0.6h-14c-0.3,0-0.6,0.3-0.6,0.6v12c0,2,1.6,3.6,3.6,3.6h8.1c2,0,3.6-1.6,3.6-3.6
			v-1.3h1.6c1.8,0,3.3-1.5,3.3-3.3v-2.3C-79.9-36.5-81.4-37.9-83.2-37.9z M-88.4-25.5h-8.1c-1.3,0-2.3-1-2.3-2.3v-11.4h12.7l0,11.4
			C-86.1-26.5-87.1-25.5-88.4-25.5z M-81.2-32.3c0,1.1-0.9,2-2,2h-1.6v-6.4h1.6c1.1,0,2,0.9,2,2V-32.3z"/>
		<path d="M-92.5-42.6c0.3,0,0.6-0.3,0.6-0.6v-3.9c0-0.3-0.3-0.6-0.6-0.6s-0.6,0.3-0.6,0.6v3.9C-93.1-42.9-92.8-42.6-92.5-42.6z"/>
		<path d="M-96-42.6c0.3,0,0.6-0.3,0.6-0.6v-3.9c0-0.3-0.3-0.6-0.6-0.6s-0.6,0.3-0.6,0.6v3.9C-96.6-42.9-96.3-42.6-96-42.6z"/>
		<path d="M-88.9-42.6c0.3,0,0.6-0.3,0.6-0.6v-3.9c0-0.3-0.3-0.6-0.6-0.6s-0.6,0.3-0.6,0.6v3.9C-89.6-42.9-89.3-42.6-88.9-42.6z"/>
	</g>
	<path d="M27.1-32.8C26.9-34,26-35,24.8-35.2v-8.3c1.5-0.3,2.6-1.7,2.3-3.3c-0.2-1.6-1.7-2.7-3.3-2.4c-0.8,0.1-1.4,0.5-1.9,1.1
		c-0.5,0.6-0.7,1.4-0.5,2.1c0.2,1.2,1.1,2.2,2.3,2.4v8.3c-0.7,0.1-1.3,0.5-1.8,1.1c-0.5,0.6-0.6,1.4-0.5,2.1
		c0.2,1.2,1.1,2.2,2.3,2.4c-0.2,0.7-0.8,1.3-1.5,1.3c-0.2-1.2-1.1-2.1-2.3-2.3V-36c0-0.8-0.3-1.5-0.8-2.1c-0.5-0.6-1.2-0.9-2-0.9
		c0,0-0.1,0-0.1,0c-0.7,0-1.4,0.3-2,0.8c-0.6,0.5-0.9,1.2-0.9,2c0,1-0.8,1.8-1.8,1.8s-1.8-0.8-1.8-1.8v-5.5c1.5-0.3,2.6-1.7,2.3-3.3
		c-0.2-1.6-1.7-2.7-3.3-2.4c-1.6,0.2-2.7,1.7-2.4,3.3c0.2,1.2,1.1,2.2,2.3,2.4v5.5c0,0.8,0.3,1.5,0.8,2.1c0.5,0.6,1.2,0.9,2,0.9
		c1.6,0.1,2.9-1.2,3-2.8c0-0.5,0.2-0.9,0.5-1.3c0.3-0.3,0.8-0.5,1.3-0.5c0,0,0,0,0,0c1,0,1.8,0.8,1.8,1.8v5.5
		c-0.7,0.1-1.4,0.5-1.8,1.1c-0.5,0.6-0.7,1.4-0.5,2.1c0.1,0.8,0.5,1.4,1.1,1.9c0.5,0.4,1.1,0.6,1.7,0.6c0.1,0,0.3,0,0.4,0
		c1.2-0.2,2.2-1.1,2.4-2.3c1.3-0.1,2.4-1.1,2.6-2.4c0.7-0.1,1.4-0.5,1.8-1.1C27-31.2,27.2-32,27.1-32.8z M24.2-34.2
		c1,0,1.8,0.8,1.8,1.8c0,1-0.8,1.8-1.8,1.8c-1,0-1.8-0.8-1.8-1.8C22.4-33.4,23.2-34.2,24.2-34.2z M22.4-46.3c0-1,0.8-1.8,1.8-1.8
		s1.8,0.8,1.8,1.8s-0.8,1.8-1.8,1.8C23.2-44.5,22.4-45.3,22.4-46.3z M21.1-27.7c0,1-0.8,1.8-1.8,1.8c-1,0-1.8-0.8-1.8-1.8
		c0-1,0.8-1.8,1.8-1.8C20.3-29.5,21.1-28.7,21.1-27.7z M11.7-44.6c0,1-0.8,1.8-1.8,1.8c-1,0-1.8-0.8-1.8-1.8c0-1,0.8-1.8,1.8-1.8
		C10.9-46.4,11.7-45.6,11.7-44.6z"/>
	<g>
		<g>
			<path d="M-300,21.5c-0.1,0-0.3,0-0.4-0.1l-5.6-5.6l-5.6,5.6c-0.2,0.2-0.5,0.2-0.7,0s-0.2-0.5,0-0.7l6-6c0.2-0.2,0.5-0.2,0.7,0
				l6,6c0.2,0.2,0.2,0.5,0,0.7C-299.7,21.5-299.9,21.5-300,21.5z"/>
		</g>
	</g>
	<g>
		<path d="M-243.2,70.4l-8.4-6.7c-0.2-0.2-0.5-0.2-0.7,0l-8.4,6.7c-0.3,0.2-0.3,0.6-0.1,0.9c0.2,0.3,0.5,0.3,0.8,0.1l1.1-0.9V79
			c0,0.3,0.3,0.6,0.6,0.6h4.5c0.3,0,0.6-0.3,0.6-0.6v-5.8h2.7V79c0,0.3,0.3,0.6,0.6,0.6h4.5c0.3,0,0.6-0.3,0.6-0.6v-8.4l1.1,0.9
			c0.1,0.1,0.2,0.1,0.3,0.1c0.2,0,0.3-0.1,0.5-0.3C-242.9,71-243,70.6-243.2,70.4z M-246.1,78.3h-3.4v-5.8c0-0.3-0.3-0.6-0.6-0.6
			h-3.8c-0.3,0-0.6,0.3-0.6,0.6v5.8h-3.4v-8.7l5.9-4.7l5.9,4.7L-246.1,78.3C-246.1,78.3-246.1,78.3-246.1,78.3z"/>
	</g>
	<g>
		<g>
			<g>
				<path d="M-189.3,63.9c-0.3-0.3-0.8-0.4-1.2-0.2l0,0l-15.8,6.8c-0.6,0.2-0.8,0.9-0.6,1.4c0.1,0.2,0.3,0.4,0.5,0.5l4.1,2v4.1
					c0,0.5,0.3,0.9,0.8,1c0.1,0,0.2,0.1,0.3,0.1c0.4,0,0.7-0.2,0.9-0.5l2-2.7l2,1c0.2,0.1,0.4,0.2,0.7,0.2c0.2,0,0.4,0,0.5-0.1
					c0.4-0.1,0.7-0.4,0.9-0.8l5.1-11.5C-188.9,64.7-189,64.2-189.3,63.9z M-206,71.5C-206,71.4-206,71.4-206,71.5l14.7-6.4
					l-10.5,8.5l-4.1-2C-206,71.6-206,71.5-206,71.5z M-201.1,78.6c0,0-0.1,0.1-0.1,0c0,0,0,0,0-0.1v-3.6l2.1,1L-201.1,78.6z
					 M-195.1,76.2c-0.1,0.3-0.4,0.4-0.7,0.3c0,0,0,0,0,0l-5-2.4l10.4-8.4L-195.1,76.2z"/>
			</g>
		</g>
	</g>
	<path d="M-136.2,74.5L-136.2,74.5l-1.9-1.1c-0.5-0.3-1.1-0.4-1.7-0.3c-0.7,0.2-1.3,0.8-1.6,1.5l0,0l0,0c-0.2,0.5-0.5,0.6-1,0.6
		c-1.9-0.2-5.1-3.4-5.3-5.2c0-0.5,0.1-0.8,0.6-0.9l0,0l0,0c0.7-0.3,1.2-0.7,1.4-1.3c0.2-0.6,0-1.2-0.4-1.7l-1.2-1.7l0,0
		c-0.6-0.7-1.2-1.1-1.9-1.1c-0.9-0.1-1.8,0.4-2.9,1.4c-2.5,2.4-0.4,8,3.3,11.4c2.5,2.4,6.2,4.1,9.1,4.1c1.2,0,2.2-0.3,3-0.9
		c0,0,0.1,0,0.1-0.1c1.1-1,1.5-1.9,1.5-2.7C-135.1,75.6-135.4,75-136.2,74.5z M-137.1,78.2C-137.1,78.3-137.2,78.3-137.1,78.2
		c-2,1.9-7.3,0.4-10.9-3c-3.6-3.4-5.2-8.3-3.2-10.1c0.8-0.8,1.5-1.2,2.1-1.1c0.4,0,0.8,0.3,1.1,0.7l1.2,1.7l0,0
		c0.2,0.3,0.3,0.6,0.2,0.9c-0.1,0.3-0.4,0.6-0.8,0.7l0,0c-0.9,0.3-1.3,1-1.3,1.9c0.2,2.3,3.8,5.8,6.2,6.1c0.1,0,0.2,0,0.3,0
		c0.8,0,1.4-0.4,1.7-1.2l0,0c0.2-0.5,0.5-0.8,0.9-0.9c0.3-0.1,0.5,0,0.8,0.2l0,0l1.8,1.1c0.5,0.3,0.8,0.7,0.8,1.1
		C-135.9,76.8-136.3,77.5-137.1,78.2z"/>
	<g>
		<g>
			<path d="M18-133.6c-0.2,0-0.5,0-0.7-0.1c-0.8-0.4-8.8-4.1-10.3-11.1c-1-4.6,1.5-8,4.3-9.1c2.3-1,5-0.4,6.7,1.3
				c1.8-1.7,4.4-2.2,6.7-1.3l0,0c2.8,1.1,5.3,4.5,4.3,9.1c-1.5,7-9.4,10.7-10.3,11.1C18.5-133.6,18.3-133.6,18-133.6z M17.9-135.5
				L17.9-135.5L17.9-135.5z M18.2-135.5L18.2-135.5L18.2-135.5z M13.7-152.4c-0.5,0-1.1,0.1-1.6,0.3c-2.2,0.9-3.9,3.4-3.1,6.9
				c1.3,5.8,7.9,9.1,9.1,9.6c1.3-0.6,7.8-3.8,9.1-9.6c0.7-3.5-1.1-6-3.2-6.9c-1.9-0.8-4-0.1-5.1,1.5c-0.2,0.3-0.5,0.4-0.8,0.4l0,0
				c-0.3,0-0.6-0.2-0.8-0.4C16.4-151.7,15-152.4,13.7-152.4z"/>
		</g>
	</g>
	<g>
		<g>
			<g>
				<path d="M-26.6-148.9h-18.7c-0.3,0-0.6-0.3-0.6-0.6v-1.7c0-0.3,0.3-0.6,0.6-0.6h18.7c0.3,0,0.6,0.3,0.6,0.6v1.7
					C-26-149.1-26.3-148.9-26.6-148.9z"/>
			</g>
		</g>
		<g>
			<g>
				<path d="M-26.6-142.5h-18.7c-0.3,0-0.6-0.3-0.6-0.6v-1.7c0-0.3,0.3-0.6,0.6-0.6h18.7c0.3,0,0.6,0.3,0.6,0.6v1.7
					C-26-142.8-26.3-142.5-26.6-142.5z"/>
			</g>
		</g>
		<g>
			<g>
				<path d="M-26.6-136.1h-18.7c-0.3,0-0.6-0.3-0.6-0.6v-1.7c0-0.3,0.3-0.6,0.6-0.6h18.7c0.3,0,0.6,0.3,0.6,0.6v1.7
					C-26-136.4-26.3-136.1-26.6-136.1z"/>
			</g>
		</g>
	</g>
	<g>
		<path d="M-300.9-89.6h-10.1c-5.2,0-9.4,4.2-9.4,9.4v5.6c0,0.3,0.2,0.5,0.5,0.5h28c0.3,0,0.5-0.2,0.5-0.5v-5.6
			C-291.5-85.4-295.7-89.6-300.9-89.6z M-292.5-75.2h-27v-5.1c0-4.6,3.8-8.4,8.4-8.4h10.1c4.6,0,8.4,3.8,8.4,8.4V-75.2z"/>
		<path d="M-306-91.7c3.7,0,6.7-3,6.7-6.7s-3-6.7-6.7-6.7s-6.7,3-6.7,6.7S-309.7-91.7-306-91.7z M-306-104.2c3.2,0,5.7,2.6,5.7,5.7
			c0,3.1-2.6,5.7-5.7,5.7s-5.7-2.6-5.7-5.7C-311.7-101.6-309.2-104.2-306-104.2z"/>
	</g>
	<path d="M-238.8-98h-7.3v-1.7c0-1.3-1.3-2.4-2.9-2.4h-6.1c-1.6,0-2.9,1.1-2.9,2.4v1.7h-7.3c-1.2,0-2.3,1-2.3,2.3v16.3
		c0,1.2,1,2.3,2.3,2.3h26.5c1.2,0,2.3-1,2.3-2.3v-16.3C-236.5-97-237.5-98-238.8-98z M-257-99.7c0-0.8,0.9-1.4,1.9-1.4h6.1
		c1.1,0,1.9,0.6,1.9,1.4v1.7h-9.9V-99.7z M-266.5-95.8c0-0.7,0.6-1.3,1.3-1.3h26.5c0.7,0,1.3,0.6,1.3,1.3v3.8c0,1.4-1.1,2.5-2.4,2.5
		h-24.1c-1.3,0-2.4-1.1-2.4-2.5V-95.8z M-237.5-79.4c0,0.7-0.6,1.3-1.3,1.3h-26.5c-0.7,0-1.3-0.6-1.3-1.3v-10
		c0.6,0.6,1.5,1.1,2.4,1.1h24.1c1,0,1.8-0.4,2.4-1.1V-79.4z"/>
	<path d="M-76.2-91.4c0.9,0,1.7-0.7,1.7-1.7v-9.4c0-0.9-0.7-1.7-1.7-1.7h-27.7c-0.9,0-1.7,0.7-1.7,1.7v9.4c0,0.9,0.7,1.7,1.7,1.7h4
		v3.4h-4c-0.9,0-1.7,0.7-1.7,1.7v9.4c0,0.9,0.7,1.7,1.7,1.7h27.7c0.9,0,1.7-0.7,1.7-1.7v-9.4c0-0.9-0.7-1.7-1.7-1.7h-4v-3.4H-76.2z
		 M-78.4-103.2c-0.2,2.3-2.1,4.2-4.5,4.2s-4.2-1.8-4.5-4.2H-78.4z M-104.5-93v-9.4c0-0.4,0.3-0.7,0.7-0.7h15.5
		c0.2,2.9,2.6,5.2,5.5,5.2s5.2-2.3,5.5-5.2h1.2c0.4,0,0.7,0.3,0.7,0.7v9.4c0,0.4-0.3,0.7-0.7,0.7h-27.7
		C-104.2-92.4-104.5-92.7-104.5-93z M-101.6-76.2c0.2-2.3,2.1-4.2,4.5-4.2s4.2,1.8,4.5,4.2H-101.6z M-75.5-86.3v9.4
		c0,0.4-0.3,0.7-0.7,0.7h-15.5c-0.2-2.9-2.6-5.2-5.5-5.2s-5.2,2.3-5.5,5.2h-1.2c-0.4,0-0.7-0.3-0.7-0.7v-9.4c0-0.4,0.3-0.7,0.7-0.7
		h27.7C-75.8-86.9-75.5-86.6-75.5-86.3z M-81.2-87.9h-17.6v-3.4h17.6V-87.9z"/>
	<path d="M33.3-95v-2.4c0-1.6-1.3-2.8-2.8-2.8h-25c-1.6,0-2.8,1.3-2.8,2.8V-82c0,1.6,1.3,2.8,2.8,2.8h25c1.6,0,2.8-1.3,2.8-2.8
		v-12.8l0.1,0L33.3-95z M3.6-82v-12.7l9.4,5.2L4-81C3.8-81.2,3.6-81.6,3.6-82z M30.5-80.2h-25c-0.3,0-0.5-0.1-0.7-0.2l9.2-8.6
		l2.8,1.6c0.4,0.2,0.8,0.3,1.3,0.3c0.5,0,0.9-0.1,1.3-0.3l3.1-1.7l9.1,8.5C31.2-80.3,30.9-80.2,30.5-80.2z M32.3-82
		c0,0.3-0.1,0.5-0.1,0.7l-8.8-8.2l9-4.8V-82z M32.3-95.4l-13.5,7.2c-0.4,0.3-1.1,0.3-1.6,0L3.7-95.8l-0.1,0.1v-1.7
		c0-1,0.8-1.8,1.8-1.8h25c1,0,1.8,0.8,1.8,1.8V-95.4z"/>
	<g>
		<path d="M-25.2-46.2h-21.7c-0.6,0-1.2,0.5-1.2,1.2v15.7c0,0.6,0.5,1.2,1.2,1.2h9l1.1,1.9c0.2,0.3,0.5,0.5,0.8,0.5c0,0,0,0,0,0
			c0.3,0,0.6-0.2,0.8-0.5l1.1-1.9h8.9c0.6,0,1.2-0.5,1.2-1.2V-45C-24-45.7-24.5-46.2-25.2-46.2z M-34.7-29.2l-1.3,2.3l-1.3-2.3h-4.2
			c0-3,2.5-5.5,5.5-5.5s5.5,2.5,5.5,5.5H-34.7z M-25-29.3c0,0.1-0.1,0.2-0.2,0.2h-4.3c0-3.6-2.9-6.5-6.5-6.5s-6.5,2.9-6.5,6.5h-4.3
			c-0.1,0-0.2-0.1-0.2-0.2V-45c0-0.1,0.1-0.2,0.2-0.2h21.7c0.1,0,0.2,0.1,0.2,0.2V-29.3z"/>
		<path d="M-32.5-39.2c0-1.9-1.6-3.5-3.5-3.5s-3.5,1.6-3.5,3.5s1.6,3.5,3.5,3.5S-32.5-37.2-32.5-39.2z M-36-36.7
			c-1.4,0-2.5-1.1-2.5-2.5s1.1-2.5,2.5-2.5s2.5,1.1,2.5,2.5S-34.6-36.7-36-36.7z"/>
	</g>
	<path d="M24.1,75.6L22,72v-8.3h0.6c0.9,0,1.6-0.7,1.6-1.6c0-0.9-0.7-1.6-1.6-1.6h-9.4c-0.9,0-1.6,0.7-1.6,1.6s0.7,1.6,1.6,1.6h0.6
		v14.9c0,2.3,1.8,4.2,4.1,4.2c1.7,0,3.1-0.9,3.8-2.5c1-0.1,2-0.7,2.5-1.6C24.6,77.7,24.6,76.5,24.1,75.6z M23,78.1
		c-0.3,0.6-1,0.9-1.7,0.9s-1.3-0.4-1.7-1c-0.3-0.6-0.4-1.3,0-1.9l1.7-2.9l1.7,2.9C23.4,76.8,23.4,77.5,23,78.1z M14.9,70.9h5.9v1
		l-2.1,3.6c-0.5,0.8-0.6,1.8-0.2,2.7c0.3,0.8,1,1.5,1.9,1.8c-0.6,0.9-1.5,1.5-2.6,1.5c-1.6,0-2.9-1.3-2.9-2.9V70.9z M14.3,62.5h-1.1
		c-0.3,0-0.4-0.2-0.4-0.4c0-0.3,0.2-0.4,0.4-0.4h9.4c0.3,0,0.4,0.2,0.4,0.4c0,0.3-0.2,0.4-0.4,0.4h-1.1c-0.3,0-0.6,0.2-0.6,0.6v6.7
		h-5.9V63C14.9,62.7,14.6,62.5,14.3,62.5z"/>
	<path d="M-26.9-104.7h-18.1c-2.2,0-3.9,1.8-3.9,4v22c0,2.2,1.8,4,3.9,4h18.1c2.2,0,3.9-1.8,3.9-4v-22
		C-23-102.9-24.8-104.7-26.9-104.7z M-32.9-84.7c-1.2,0.2-2.1,1.2-2.3,2.3h-12.7v-6.4h6.6c0.4,1.6,2,2.6,3.6,2.2
		c1.1-0.3,1.9-1.1,2.1-2.2h11.4c0,0,0.1,0,0.1,0v6.4c0,0-0.1,0-0.1,0h-5.3C-29.8-84-31.3-85-32.9-84.7z M-30.6-81.8
		C-30.6-81.8-30.6-81.8-30.6-81.8c0,1-0.8,1.9-1.8,1.9c0,0,0,0,0,0c-1,0-1.8-0.8-1.8-1.8c0,0,0,0,0,0c0-1,0.8-1.8,1.8-1.8
		C-31.4-83.6-30.6-82.8-30.6-81.8z M-31.9-93.9c1.2-0.2,2.2-1.2,2.4-2.4h5.3c0,0,0.1,0,0.1,0v6.5c0,0-0.1,0-0.1,0h-11.3
		c-0.2-1.6-1.7-2.8-3.3-2.5c-1.3,0.2-2.3,1.2-2.5,2.5h-6.6v-6.5h12.7C-34.9-94.7-33.5-93.7-31.9-93.9z M-34.2-96.8c0,0,0-0.1,0-0.1
		c0-1,0.7-1.8,1.7-1.8c0,0,0.1,0,0.1,0c1,0,1.8,0.8,1.8,1.7c0,0,0,0.1,0,0.1c0,1-0.7,1.8-1.7,1.9C-33.3-95-34.1-95.8-34.2-96.8z
		 M-36.6-89.3c-0.1,1-0.9,1.7-1.9,1.7c-0.9,0-1.7-0.8-1.8-1.7v-0.1c0-1,0.8-1.9,1.8-1.9c1,0,1.8,0.8,1.9,1.8
		C-36.6-89.5-36.6-89.5-36.6-89.3L-36.6-89.3z M-45.1-103.5h18.1c1.6,0,2.8,1.3,2.8,2.9v3.2c0,0-0.1,0-0.1,0h-5.3
		c-0.3-1.6-1.8-2.6-3.4-2.3c-1.2,0.2-2.1,1.2-2.3,2.3h-12.7v-3.2C-47.9-102.2-46.6-103.5-45.1-103.5z M-26.9-75.8h-18.1
		c-1.6,0-2.8-1.3-2.8-2.9v-2.6h12.7c0.3,1.6,1.8,2.7,3.3,2.4c1.2-0.2,2.2-1.2,2.4-2.4h5.3c0,0,0.1,0,0.1,0v2.6
		C-24.1-77.1-25.4-75.8-26.9-75.8z"/>
	<g>
		<path d="M15,19.3c0-3.8,0-7.6,0-11.3c0-1.2,1.8-1.2,1.8,0c0,3.3,0,6.6,0,9.8c0,0.7,1.1,0.7,1.1,0v-3.5c0-1.2,1.8-1.2,1.8,0
			c0,1.4,0,2.9,0,4.3c0,0.7,1.1,0.7,1.1,0c0-1.2,0-2.3,0-3.5c0-1.2,1.8-1.2,1.8,0c0,1.5,0,3,0,4.4c0,0.7,1.1,0.7,1.1,0
			c0-1.2,0-2.4,0-3.6c0-1.1,1.8-1.1,1.8,0c0,3.1,0.2,6.8-1.9,9.2c0,0,0,0,0,0h-7.4c0,0,0,0,0,0c-2.1-1.7-4.5-5.8-5.4-8
			c-0.4-1.2,1-1.6,1.5-0.7l1.8,3.1C14.3,20.1,15,19.9,15,19.3L15,19.3z M14.5,25.2h-0.2c-0.3,0-0.6,0.3-0.6,0.6v0v3.7
			c0,0.3,0.2,0.5,0.5,0.5h0c0.3,0,0.5-0.2,0.5-0.5v-3.2c0,0,0,0,0,0h9.8c0,0,0,0,0,0v3.2c0,0.3,0.2,0.5,0.5,0.5h0
			c0.3,0,0.5-0.2,0.5-0.5v-3.7c0-0.3-0.3-0.6-0.6-0.6l0,0h-0.3c0,0,0,0,0,0c1.8-2.6,1.6-6,1.6-9.2c0-1.5-1.7-2.5-3-1.7c0,0,0,0,0,0
			c-0.5-1.1-1.9-1.5-2.9-0.8c0,0,0,0,0,0c-0.5-1-1.7-1.4-2.6-0.9c0,0,0,0,0,0V8c0-2.6-4-2.6-4,0v9.3c0,0,0,0,0,0L13.2,16
			c-1.2-2.1-4.4-0.8-3.5,1.6C10.4,19.6,12.4,23.1,14.5,25.2L14.5,25.2z"/>
	</g>
	<path d="M-81,17.6h-1l0-8.4c0-1.4-1.1-2.5-2.4-2.5l-13.1,0c-1.7-0.1-1.5,3.4-1.5,3.4c0,0.3,0.2,0.5,0.4,0.5l0.6,0l0,7h-1
		c-0.2,0-0.4,0.2-0.4,0.4s0.2,0.4,0.4,0.4h1l0,8.4c0,1.4,1.1,2.5,2.4,2.5l13.1,0c1.7,0.1,1.5-3.4,1.5-3.4c0-0.3-0.2-0.5-0.4-0.5
		l-0.6,0l0-5.9h0l0-1.1h1c0.2,0,0.4-0.2,0.4-0.4S-80.8,17.6-81,17.6z M-98.1,9.6c-0.1-0.1,0-2,0.5-2l12,0c-0.2,0.4-0.4,1.3-0.3,2
		L-98.1,9.6z M-97,10.6l11.7,0c1.1-0.3-0.5-2.2,0.9-2.9c0.9,0,1.5,0.7,1.5,1.6l0,8.4h-14.1L-97,10.6z M-81.9,26.4c0.1,0.1,0,2-0.5,2
		l-12,0c0.2-0.4,0.4-1.3,0.3-2L-81.9,26.4z M-83,25.4l-11.7,0c-1.1,0.3,0.5,2.2-0.9,2.9c-0.9,0-1.5-0.7-1.5-1.6l0-8.4h14.1L-83,25.4
		z"/>
	<title>ES-typography</title>
	<g>
		<path d="M-97.8,63.3h15.5c0.3,0,0.5-0.2,0.5-0.5s-0.2-0.5-0.5-0.5h-5.2C-87.5,61-88.6,60-90,60c-1.4,0-2.5,1-2.6,2.4h-5.2
			c-0.3,0-0.5,0.2-0.5,0.5S-98,63.3-97.8,63.3z M-90,61c0.8,0,1.4,0.5,1.5,1.3c0,0,0,0,0,0c0,0,0,0,0,0l-3,0c0,0,0,0,0,0
			c0,0,0,0,0,0C-91.4,61.5-90.8,61-90,61z"/>
		<path d="M-82.3,64.4h-15.5c-0.3,0-0.5,0.2-0.5,0.5c0,0.3,0.2,0.5,0.5,0.5h5.2l-0.1,14.5c0,0,0,0.1,0,0.1l2.3,3.1
			c0,0,0.1,0.1,0.1,0.1c0.1,0,0.1,0,0.1-0.1l2.4-3.1c0,0,0-0.1,0-0.1l0.1-14.5h5.2c0.3,0,0.5-0.2,0.5-0.5
			C-81.8,64.6-82,64.4-82.3,64.4z M-89.1,80.4l-0.9,1.2c0,0-0.1,0-0.1,0l-0.9-1.2c0,0,0,0,0-0.1c0,0,0,0,0.1,0L-89.1,80.4
			C-89.1,80.3-89.1,80.3-89.1,80.4C-89.1,80.3-89.1,80.3-89.1,80.4z M-88.5,79.2C-88.5,79.2-88.5,79.3-88.5,79.2l-1,0.1
			c0,0-0.1,0-0.1-0.1l0.1-13.8l1,0L-88.5,79.2z M-90.5,65.4l-0.1,13.8c0,0,0,0.1-0.1,0.1l-0.9,0c0,0-0.1,0-0.1-0.1l0.1-13.8h0.6
			L-90.5,65.4z"/>
	</g>
	<g>
		<path d="M-134.1-103.8h-0.9c-0.1-1-0.9-1.8-1.9-1.8h-17c-1.1,0-1.9,0.8-1.9,1.9v0v26.1c0,1.1,0.9,1.9,1.9,1.9h0.9
			c0.1,1,0.9,1.8,1.9,1.8h17c1.1,0,1.9-0.9,1.9-1.9v-26.1C-132.2-102.9-133-103.7-134.1-103.8z M-153-101.8v25.3h-0.9
			c-0.5,0-0.9-0.4-0.9-0.9v-26.1c0-0.5,0.4-0.9,0.9-0.9h17c0.4,0,0.8,0.3,0.9,0.8h-15.1C-152.1-103.7-153-102.9-153-101.8z
			 M-133.1-97.5h-5.7c-0.3,0-0.5,0.2-0.5,0.5c0,0.3,0.2,0.5,0.5,0.5h5.6v3h-5.6c-0.3,0-0.5,0.2-0.5,0.5c0,0.3,0.2,0.5,0.5,0.5h5.6
			v4.9h-16.2c-0.3,0-0.5,0.2-0.5,0.5c0,0.3,0.2,0.5,0.5,0.5h16.2v3h-16.2c-0.3,0-0.5,0.2-0.5,0.5c0,0.3,0.2,0.5,0.5,0.5h16.2v3
			h-16.2c-0.3,0-0.5,0.2-0.5,0.5c0,0.3,0.2,0.5,0.5,0.5h16.2v2.9c0,0.5-0.4,0.9-0.9,0.9l0,0h-17c-0.5,0-0.9-0.4-0.9-0.9v-26.1
			c0-0.5,0.4-0.9,0.9-0.9h17c0.5,0,0.9,0.4,0.9,0.9V-97.5z"/>
		<path d="M-142.9-100.3h-6c-0.3,0-0.5,0.2-0.5,0.5v7c0,0.3,0.2,0.5,0.5,0.5h6c0.3,0,0.5-0.2,0.5-0.5v-7
			C-142.4-100.1-142.7-100.3-142.9-100.3z M-143.4-93.3h-5v-6h5V-93.3z"/>
	</g>
	<path d="M-185-102.2h-26c-1.4,0-2.5,1.1-2.5,2.5v16.4c0,1.4,1.1,2.5,2.5,2.5l12.5,0.2v2.4h-8.1c-0.3,0-0.5,0.2-0.5,0.5
		s0.2,0.5,0.5,0.5h17.1c0.3,0,0.5-0.2,0.5-0.5s-0.2-0.5-0.5-0.5h-8.1v-2.4l12.5-0.2c1.4,0,2.5-1.1,2.5-2.5v-16.4
		C-182.5-101-183.6-102.2-185-102.2z M-212.5-85.4v-14.3c0-0.8,0.7-1.5,1.5-1.5h26c0.8,0,1.5,0.7,1.5,1.5v14.3 M-183.5-84.5v1.2
		c0,0.8-0.7,1.5-1.5,1.5h-26c-0.8,0-1.5-0.7-1.5-1.5v-1.2c0.1,0,0.1,0.1,0.2,0.1"/>
	<path d="M-235.7-34.9l-2.5-1.1c-1.1-0.5-2-1.5-2.2-2.5l0-14.5c0-0.3-0.2-0.5-0.4-0.7c-0.2-0.2-0.5-0.3-0.8-0.3l-17.7,0
		c-2-0.2-3.9,1.3-4.1,3.3l-1.6,0.1c-2-0.2-3.9,1.3-4.1,3.3l-0.1,26c0.2,2,2,3.4,4,3.3l20.2,0c1.6,0.1,3.6-1,4.1-3.3v-0.1l1.6,0
		c2.1,0.2,3.9-1.3,4.1-3.3l0-2.3l0-7C-235-34.4-235.3-34.7-235.7-34.9z M-262.3-48.5l4.7,0l4.7,0v15l-4.1-3.6
		c-0.3-0.3-0.8-0.3-1.2,0l-4.1,3.6V-48.5z M-243.1-21.4c-0.1,0.8-0.8,1.4-1.7,1.3l-20.3,0c-0.8,0.1-1.5-0.5-1.6-1.2l0.1-25.9
		c0.1-0.8,0.8-1.4,1.7-1.3l0.8,0v15.1c0,0.5,0.1,0.9,0.3,1.3c0.2,0.4,0.6,0.6,0.9,0.7c0.5,0,1.1-0.2,1.1-0.2c0,0,0.1-0.1,0.1-0.1
		l4-3.5l4,3.5c0.1,0,0.1,0.1,0.1,0.1c0,0,0.5,0.3,1.2,0.2c0.4-0.1,0.7-0.4,0.9-0.7c0.2-0.3,0.3-0.7,0.3-1.3v-15.1l2.9,0l0,13.4
		c0.3,1.9,1.6,3.6,3.5,4.4l1.8,0.8L-243.1-21.4z M-237.4-24.8c-0.1,0.8-0.8,1.4-1.7,1.3h-1.7l0-7.1c0-0.4-0.3-0.8-0.7-0.9l-2.5-1.1
		c-1.1-0.5-2-1.5-2.2-2.5l0-14.5c-0.1-0.6-0.6-1-1.2-1l-13.7,0l0,0c0.1-0.8,0.8-1.4,1.7-1.3l16.6,0l0,13.4c0.3,1.9,1.6,3.6,3.5,4.4
		l1.8,0.8L-237.4-24.8z"/>
	<g>
		<path d="M-133.9-51.6l-14.7-2.4l-0.2,0c-1.9,0-3.5,1.3-4,3l-1.3-0.2l-0.2,0c-2,0-3.7,1.6-3.7,3.6l0.2,24.3
			c0.5,1.4,1.9,2.5,3.5,2.5h0l1.5-0.1c0.5,1.7,2.1,2.9,3.9,2.9h0l14.7-1.2c2.5,0,4.1-1.6,4.1-4.1v-24.2
			C-130-49.8-131.4-51.2-133.9-51.6z M-153-44.2v19.4v1.6l-1.4,0.1c-0.7,0-1.3-0.6-1.3-1.4v0v-20.4v-1v-1.7c0-0.7,0.6-1.3,1.3-1.4
			l1.4,0.2V-44.2z M-132.3-23.3c0,1.9-1.3,1.9-1.8,1.9l-14.8,1.2c-1,0-1.7-0.9-1.7-1.9v0v-2.7v-19.4v-5.5v-0.2c0-1,0.8-1.8,1.7-1.9
			l14.7,2.4c1.6,0.2,2,0.9,2,1.9V-23.3z"/>
		<path d="M-145.8-41c1,0,1.8-0.8,1.8-1.7v-4.2c0-1.5-3-2.6-3.5,0v4.2C-147.5-41.8-146.7-41-145.8-41z"/>
		<path d="M-135.2-36.8l-11.4-0.8c-0.5,0-0.9,0.3-0.9,0.8c0,0.5,0.3,0.9,0.8,0.9l11.4,0.8c0.4,0,0.6-0.1,0.9-0.8
			C-134.3-36.4-134.7-36.8-135.2-36.8z"/>
		<path d="M-146.6-30.6h11.4c0.5,0,1.6-1.2,0-1.7h-11.4C-147.2-32.3-148.2-31-146.6-30.6z"/>
		<path d="M-135.3-27.6l-11.4,0.8c-0.5,0-0.8,0.4-0.8,0.9c0.1,0.3,0.1,0.6,0.9,0.8l11.4-0.8c0.5,0,0.8-0.4,0.8-0.9
			C-134.4-27.3-134.8-27.7-135.3-27.6z"/>
	</g>
	<path d="M-27.2,59.8c-0.6-0.5-2-0.7-7.8,7.1c-1.7,2.3-3.3,5.3-4.4,7.4c-0.6,1-1.1,1.8-1.5,2.6c-0.2,0-0.3-0.1-0.5-0.1
		c-0.7,0-1.3,0.2-1.8,0.7c-0.8,0.8-0.9,1.6-0.9,2.5c0,0.7-0.1,1.5-0.7,2.4c-0.1,0.2-0.6,1.2,0.5,1.2l9.8-0.1c0,0,0.8-0.3,0-0.7
		l-7.1,0.1c0.8-0.3,1.5-0.8,2-1.4c0.5-0.6,0.8-1.3,0.9-2c0-0.5-0.1-1-0.5-1.5c0.5-0.6,1.1-1.4,1.8-2.2c1.8-1.8,4-4.3,5.7-6.5
		C-26.9,61.4-26.6,60.2-27.2,59.8z M-40.1,81c-0.6,0.7-1.6,1.2-2.6,1.4c-0.5,0.1-1,0.1-1.3,0c0.5-0.9,0.6-1.8,0.6-2.4
		c0-0.9,0.1-1.4,0.7-2c1.2-1.3,2.8,0.2,2.8,0.2c0,0,0,0,0,0c0.3,0.3,0.5,0.8,0.5,1.3C-39.4,80-39.7,80.5-40.1,81z M-39.6,77.4
		c-0.1,0-0.5-0.4-0.6-0.4c0.3-0.6,0.8-1.4,1.2-2.2c0.3,0.2,0.6,0.5,0.8,0.6C-38.7,76.2-39.2,76.9-39.6,77.4z M-27.7,60.7
		c-0.2,0.7-3.9,7.1-4.6,8.1c-1.6,2.1-3.7,4.4-5.4,6.2c-0.3-0.2-0.6-0.5-1-0.7c1.1-2,2.6-4.8,4.2-7c4.9-6.2,5.7-6.5,6.3-6.9
		C-27.9,60.2-27.6,60.4-27.7,60.7z"/>
</g>
</svg>
