<?xml version="1.0" encoding="utf-8"?>
<!-- Generator: Adobe Illustrator 23.1.0, SVG Export Plug-In . SVG Version: 6.00 Build 0)  -->
<svg version="1.1" id="Layer_1" xmlns="http://www.w3.org/2000/svg" xmlns:xlink="http://www.w3.org/1999/xlink" x="0px" y="0px"
	 viewBox="0 0 24 24" style="enable-background:new 0 0 24 24;" xml:space="preserve">
<title>SKR-black</title>
<path d="M12,22.7c-1.6,0-3.2,0-4.8,0c-0.9,0-1.6-0.4-2-1.2c-1.6-2.8-3.2-5.6-4.8-8.4c-0.4-0.8-0.4-1.6,0-2.3C1.9,8,3.5,5.3,5.1,2.5
	c0.4-0.8,1.1-1.2,2-1.1c3.3,0,6.5,0,9.8,0c0.9,0,1.5,0.4,2,1.1c1.6,2.8,3.2,5.6,4.8,8.4c0.4,0.8,0.4,1.5,0,2.3
	c-1.6,2.8-3.2,5.6-4.8,8.4c-0.4,0.8-1.1,1.1-2,1.1C15.2,22.7,13.6,22.7,12,22.7z M10.3,17.6c0-2-1.8-3.3-3.4-2.5
	c-0.7,0.3-1.3,0.7-1.9,1c-0.3,0.2-0.4,0.5-0.2,0.8C5.4,18,6,19.1,6.7,20.2c0.1,0.2,0.4,0.5,0.7,0.3c0.7-0.4,1.5-0.8,2.2-1.3
	C10.1,18.7,10.3,18.1,10.3,17.6z M17.8,5.9c0-1.8-1.7-3-3.4-2.3c-0.7,0.3-1.3,0.7-1.9,1.1c-0.3,0.2-0.4,0.5-0.2,0.8
	c0.6,1.1,1.2,2.2,1.9,3.2C14.4,9.1,14.7,9.2,15,9c0.7-0.4,1.3-0.7,2-1.2C17.6,7.4,17.9,6.7,17.8,5.9z M4.8,14.5c0.1,0,0.1,0,0.2,0
	c1.1-0.1,2-0.8,2.9-1.4c0.3-0.2,0.1-0.5,0-0.7c-0.6-1-1.2-2-1.8-3.1C5.8,8.9,5.5,8.8,5.1,9c-0.6,0.4-1.2,0.7-1.8,1.1
	c-0.9,0.6-1.2,1.8-0.9,2.8C2.7,13.8,3.7,14.5,4.8,14.5z M11.8,8.2c0-0.6-0.2-1.3-0.4-1.9c-0.3-0.5-0.5-0.6-1.1-0.3
	c-1,0.6-2,1.2-3,1.7C6.9,8,6.8,8.3,7.1,8.7c0.6,1,1.2,2,1.7,3c0.3,0.5,0.6,0.6,1.1,0.2C11.1,11,11.8,9.8,11.8,8.2z M17.7,9.5
	c-0.7,0-1.3,0.1-1.9,0.4c-0.7,0.3-0.7,0.5-0.4,1.1c0.5,1,1.1,1.9,1.7,2.8c0.4,0.6,0.5,0.7,1.2,0.3c1-0.5,1.9-1.1,2.9-1.6
	c0.6-0.3,0.6-0.6,0.2-1.2C20.5,10.1,19.2,9.5,17.7,9.5L17.7,9.5z M12.4,12.5c-0.6,0-1.3,0.2-1.9,0.4c-0.6,0.2-0.7,0.5-0.4,1
	c0.6,1,1.1,2,1.7,3c0.3,0.5,0.6,0.6,1.1,0.3c1-0.6,2-1.1,3-1.7c0.6-0.4,0.6-0.5,0.2-1.1C15.2,13.2,13.9,12.6,12.4,12.5z"/>
</svg>
